<svg width="56" height="55" viewBox="0 0 56 55" fill="none" xmlns="http://www.w3.org/2000/svg">
<rect x="1.93652" y="1" width="52.2783" height="52.2783" rx="26.1392" stroke="url(#paint0_linear_6132_58824)" stroke-width="2"/>
<path d="M28.0743 7.12038C30.7334 7.12038 33.3209 7.63483 35.7649 8.65033C38.2944 9.70093 40.5507 11.2411 42.4712 13.2287C44.3497 15.1722 45.7909 17.4253 46.7547 19.9248C47.686 22.3394 48.1353 24.8823 48.0906 27.4827C48.0459 30.083 47.5092 32.6086 46.4956 34.9901C45.4462 37.4551 43.9291 39.6571 41.9849 41.5356C38.2325 45.1616 33.2935 47.1581 28.0769 47.1581C25.4172 47.1581 22.8296 46.6437 20.385 45.6282C17.8555 44.5776 15.5986 43.0374 13.678 41.0498C11.7995 39.1057 10.359 36.8532 9.39516 34.3537C8.46392 31.9391 8.01457 29.3962 8.05861 26.7959C8.10265 24.1955 8.64008 21.6699 9.65366 19.2885C10.703 16.8235 12.2202 14.6214 14.1644 12.7436C17.9161 9.11755 22.8558 7.12102 28.0743 7.12038Z" fill="#58912B"/>
<path d="M40.5593 14.7274C40.4859 14.6623 40.4432 14.624 40.4004 14.5844C38.6183 13.6468 37.8103 11.1141 35.0472 10.7266C34.9987 10.6998 34.9355 10.6698 34.8851 10.643C32.2911 9.24138 29.2134 8.08291 25.5675 7.27676C24.6682 7.3891 23.7816 7.56143 22.9136 7.79185C32.1264 9.77625 37.9424 13.8127 41.5921 18.3745C41.6221 18.4128 41.6521 18.4504 41.6859 18.4906C43.0965 20.6084 43.5222 23.4583 45.5768 25.4504C45.6024 25.5008 45.6247 25.5468 45.6802 25.6393C46.5949 28.1024 47.0889 30.4915 47.341 32.5889C47.6793 31.3902 47.9053 30.1628 48.015 28.9149C47.1751 24.3921 45.1479 19.09 40.5593 14.7274Z" fill="#7DC246"/>
<path d="M20.8117 44.7074C19.1216 43.5827 17.4582 42.2028 15.9283 40.512C15.8798 40.459 15.8198 40.3907 15.7611 40.3218C15.1943 39.6899 14.7239 39.0152 14.3116 38.3157C14.2713 38.2455 14.2241 38.1765 14.1813 38.1083C14.062 37.7278 14.062 37.7278 13.7263 37.253C13.6867 37.1853 13.6586 37.1042 13.6235 37.0315C12.5505 34.8601 11.7872 32.5527 10.2847 30.5651C10.2732 30.5217 10.2662 30.4975 10.2585 30.4764C9.47789 28.0261 8.92897 25.2623 8.68451 22.1482C8.29644 23.6596 8.08581 25.2138 8.059 26.7961C8.05517 27.022 8.05645 27.248 8.05964 27.4733C8.39665 29.5062 8.88557 31.3591 9.49768 33.0474C9.51363 33.0933 9.53087 33.138 9.54682 33.1827C11.8446 35.8302 13.0573 39.628 15.4139 42.4032C15.4681 42.4581 15.523 42.5124 15.5785 42.566C16.0068 42.9815 16.4447 43.3747 16.8883 43.7474C17.9842 44.4872 19.1516 45.1165 20.3847 45.6291C22.0992 46.3407 23.8844 46.8054 25.715 47.0205C23.9955 46.4046 22.147 46.0248 21.0026 44.8446C20.9183 44.7827 20.8609 44.7431 20.8117 44.7074Z" fill="#7DC246"/>
<path d="M31.4083 42.9647C31.2704 42.874 31.1326 42.7802 30.9941 42.6857C30.9245 42.6398 30.8543 42.5906 30.7803 42.5402C25.5279 39.5046 21.5744 35.7924 17.6733 32.0527C18.0384 32.2538 18.5324 32.3055 19.2696 32.3808C18.976 29.4511 13.753 29.4951 15.2727 25.8595C15.228 25.751 15.1846 25.6553 15.1412 25.5602C14.5361 24.23 14.1047 22.8188 13.917 21.2984C13.894 21.239 13.8717 21.1803 13.8487 21.121C13.1377 19.2719 12.5134 17.3009 11.9971 15.2054C11.1105 16.3958 10.3624 17.6794 9.75928 19.0453C9.76311 19.074 9.76694 19.1027 9.77077 19.1315C9.78098 19.2061 9.79119 19.2808 9.80332 19.3555C11.2669 21.9003 10.2833 25.3834 11.8994 27.7061C11.916 27.7514 11.9326 27.7961 11.9498 27.8414C12.7477 29.9649 13.7862 32.1363 15.1374 34.2394C15.1629 34.2797 15.1891 34.3199 15.2325 34.3614C17.8864 34.5592 16.3776 37.4104 17.9828 37.9893C18.0173 38.0308 18.0518 38.0723 18.0849 38.1131C19.883 40.1135 22.0461 41.9734 24.6496 43.5736C24.6943 43.6004 24.7396 43.6285 24.7843 43.6566C27.1606 43.4166 27.9686 45.9492 29.8579 46.1618C29.9135 46.1835 29.9671 46.2046 30.022 46.2256C30.5671 46.4375 31.1268 46.6386 31.7013 46.8301C33.1514 46.5652 34.5614 46.142 35.9088 45.5695C34.4925 44.621 32.7857 44.0019 31.5819 43.0796C31.5328 43.047 31.4587 42.9979 31.4083 42.9647Z" fill="#7DC246"/>
<path d="M39.8927 39.6932C38.5031 37.8314 35.6935 37.5435 36.4887 34.5232C36.4683 34.4326 36.4473 34.3432 36.4256 34.2545C36.3771 34.1849 36.3298 34.116 36.2819 34.0464C35.6009 33.0583 34.9045 32.0882 34.198 31.1371C34.1399 31.0573 34.0773 30.9782 34.009 30.9048C33.1901 30.3284 32.0668 30.2129 30.9428 30.098C32.0668 30.2135 31.1087 29.5351 32.1025 28.787C32.1012 28.7308 32.1012 28.6721 32.1025 28.6083C32.1038 28.5464 32.1083 28.4806 32.1134 28.4111C32.0629 28.346 32.0106 28.2815 31.9595 28.217C31.3966 27.5041 30.8298 26.8064 30.2624 26.1222C30.247 26.1024 30.1998 26.0431 30.1705 26.0016C30.1156 25.939 30.0639 25.879 30.0141 25.8216C30.002 25.8063 29.9598 25.7782 29.8769 25.7348C28.5971 25.6863 28.7171 25.0525 28.4618 23.9936C28.4312 23.9591 28.4005 23.9246 28.352 23.8685C27.6818 23.0961 27.0167 22.3474 26.3587 21.6243C26.3191 21.5802 26.2783 21.5375 26.2361 21.4928C25.7906 21.1673 25.31 20.829 24.8683 20.4677C24.8319 20.4371 24.7911 20.3969 24.7502 20.3554C22.8603 18.2523 19.8208 16.7804 18.8717 14.0837C18.8277 14.0384 18.7798 13.9707 18.7351 13.9318C17.6022 12.8946 16.5969 12.0278 15.7633 11.3551C15.2099 11.7878 14.6763 12.2506 14.1651 12.7446C13.9819 12.9214 13.8044 13.102 13.6289 13.2839C14.308 14.6741 15.0165 16.0221 15.7486 17.3274C15.7748 17.374 15.8048 17.4244 15.8546 17.4959C18.2634 20.1001 21.698 22.1917 21.3533 26.0405C21.3871 26.0794 21.4203 26.1165 21.4542 26.1535C21.7114 26.5033 21.9693 26.8479 22.2278 27.1894C22.2629 27.236 22.2992 27.2826 22.3414 27.3298C25.0336 29.1712 27.011 32.3358 28.825 34.9189C28.8697 34.9687 28.9239 35.03 29.0037 35.1295C32.9604 39.272 36.5341 42.2521 38.837 44.0246C39.6935 43.4769 40.5124 42.8616 41.2867 42.1806C40.8858 41.4351 40.4729 40.6934 40.0446 39.9575C39.9948 39.8719 39.945 39.7864 39.8927 39.6932Z" fill="#7DC246"/>
<path d="M39.8021 21.3275C38.5403 17.4461 34.1483 16.8161 32.0286 13.7818C31.9379 13.7052 31.899 13.6771 31.8652 13.6528C27.9927 11.0149 23.9863 9.41725 20.8409 8.46622C19.6677 8.92067 18.538 9.48619 17.4663 10.1577C18.7192 10.7168 19.9154 11.3097 21.056 11.9314C21.0943 11.9518 21.1326 11.9723 21.1715 11.9946C24.151 11.7578 25.3414 13.9739 27.0366 15.7968C27.0787 15.8281 27.119 15.8581 27.1426 15.8766C28.0476 16.5691 28.9048 17.2795 29.7193 18.0021C29.7601 18.0378 29.8003 18.0748 29.8412 18.1106C30.1642 19.0003 30.2274 20.746 30.789 20.8041C35.8461 21.3224 37.4928 25.5509 39.0841 29.3883C39.1185 29.4891 39.1524 29.5906 39.1868 29.6927C39.6285 31.0171 40.0696 32.3467 40.9976 33.3302C41.0212 33.3839 41.0442 33.4368 41.0717 33.5051C42.1918 35.9848 42.9424 38.2143 43.4377 39.9747C44.1973 39.069 44.8707 38.102 45.4553 37.0808C44.8254 30.5703 42.719 25.4578 39.8851 21.4494C39.8577 21.4085 39.8302 21.3696 39.8021 21.3275Z" fill="#7DC246"/>
<path d="M39.6217 13.2744C39.9364 13.5891 40.9589 14.0748 41.4357 14.2919C41.5315 14.3353 41.5315 14.4706 41.4357 14.514C40.9589 14.731 39.937 15.2161 39.6217 15.5314C39.3071 15.8461 38.8213 16.8686 38.6043 17.3454C38.5609 17.4411 38.4256 17.4411 38.3822 17.3454C38.1652 16.8686 37.6801 15.8467 37.3648 15.5314C37.0501 15.2167 36.0276 14.731 35.5508 14.514C35.4551 14.4706 35.4551 14.3353 35.5508 14.2919C36.0276 14.0748 37.0495 13.5898 37.3648 13.2744C37.6795 12.9598 38.1652 11.9373 38.3822 11.4605C38.4256 11.3647 38.5609 11.3647 38.6043 11.4605C38.8213 11.9373 39.3064 12.9598 39.6217 13.2744Z" fill="white"/>
<path d="M27.7669 28.7483C25.434 28.7483 23.9091 27.3856 23.8868 27.3652C23.6838 27.1788 23.6698 26.8635 23.8568 26.6605C24.0425 26.4582 24.3572 26.4442 24.5602 26.6293C24.6802 26.7371 27.4292 29.1504 31.1925 26.5858C31.4204 26.4307 31.7306 26.4895 31.8857 26.7173C32.0408 26.9452 31.9821 27.2554 31.7542 27.4105C30.2823 28.412 28.9247 28.7483 27.7669 28.7483Z" fill="#45150B"/>
<path d="M23.5013 23.1622C23.5013 24.0341 22.7948 24.7406 21.9235 24.7406C21.0523 24.7406 20.3457 24.0341 20.3457 23.1622C20.3457 22.2903 21.0523 21.5844 21.9235 21.5844C22.7948 21.5837 23.5013 22.2903 23.5013 23.1622Z" fill="#45150B"/>
<path d="M35.809 23.1622C35.809 24.0341 35.103 24.7406 34.2311 24.7406C33.3599 24.7406 32.6533 24.0341 32.6533 23.1622C32.6533 22.2903 33.3599 21.5844 34.2311 21.5844C35.103 21.5837 35.809 22.2903 35.809 23.1622Z" fill="#45150B"/>
<path d="M27.9505 28.9223C27.5063 28.9223 27.0767 28.8623 26.642 28.7436C26.455 29.3819 26.2916 30.3904 26.7046 31.014C26.9988 31.4588 27.5324 31.6867 28.3909 31.6925C29.1205 31.6886 29.4428 31.5214 29.6777 31.1806C30.1251 30.5321 29.9687 29.3436 29.7607 28.5758C29.3381 28.7423 28.719 28.9223 27.9505 28.9223Z" fill="#F7931D"/>
<path d="M30.2436 27.4065C30.1025 27.3593 29.9461 27.3784 29.8191 27.457C29.8121 27.4614 29.0583 27.9248 27.9617 27.9248C27.4722 27.9248 26.9832 27.8335 26.5071 27.6523C26.2575 27.5572 25.976 27.6765 25.8707 27.9235C25.8324 28.0142 24.9401 30.1569 25.8682 31.5643C26.3603 32.3104 27.2322 32.6953 28.4596 32.6953H28.4692C29.4183 32.6953 30.1191 32.3749 30.5506 31.7474C31.5176 30.342 30.6533 27.9676 30.5518 27.702C30.4989 27.5623 30.3846 27.4538 30.2436 27.4065ZM29.6755 31.1807C29.4406 31.5215 29.1183 31.6881 28.3887 31.6925C27.5303 31.6868 26.9967 31.4596 26.7024 31.0141C26.2894 30.3905 26.4528 29.3826 26.6399 28.7437C27.0745 28.8624 27.5041 28.9224 27.9483 28.9224C28.7168 28.9224 29.3366 28.7424 29.7585 28.5758C29.9665 29.3437 30.1229 30.5322 29.6755 31.1807Z" fill="#45150B"/>
<path d="M28.1157 31.4431C27.8406 31.4431 27.6172 31.2197 27.6172 30.9446V28.4509C27.6172 28.1752 27.8406 27.9524 28.1157 27.9524C28.3914 27.9524 28.6142 28.1758 28.6142 28.4509V30.9446C28.6142 31.2197 28.3914 31.4431 28.1157 31.4431Z" fill="#45150B"/>
<path d="M15.138 31.8765C16.6661 31.8765 17.9049 31.1141 17.9049 30.1736C17.9049 29.2331 16.6661 28.4706 15.138 28.4706C13.6099 28.4706 12.3711 29.2331 12.3711 30.1736C12.3711 31.1141 13.6099 31.8765 15.138 31.8765Z" fill="#FFCACA"/>
<path d="M41.0135 31.8765C42.5416 31.8765 43.7804 31.1141 43.7804 30.1736C43.7804 29.2331 42.5416 28.4706 41.0135 28.4706C39.4854 28.4706 38.2466 29.2331 38.2466 30.1736C38.2466 31.1141 39.4854 31.8765 41.0135 31.8765Z" fill="#FFCACA"/>
<defs>
<linearGradient id="paint0_linear_6132_58824" x1="6.05835" y1="27.1392" x2="55.2148" y2="31.315" gradientUnits="userSpaceOnUse">
<stop stop-color="#61FFC8"/>
<stop offset="1" stop-color="#00FF00"/>
</linearGradient>
</defs>
</svg>
