<svg width="58" height="58" viewBox="0 0 58 58" fill="none" xmlns="http://www.w3.org/2000/svg">
<g clip-path="url(#clip0_6132_58662)">
<path d="M32.4422 16.2006C37.8311 16.2006 42.7664 18.7415 46.5851 22.5566C44.8798 22.2086 41.6032 52.6791 45.7756 54.1971C42.0805 56.0872 37.4581 57.0169 32.4422 57.0169C20.3255 57.0169 10.5034 51.5907 10.5034 40.3196C10.5034 29.0486 20.3255 16.2006 32.4422 16.2006Z" fill="#FFF8BD"/>
<path d="M54.3799 40.3188C54.3799 45.2121 52.5285 49.0034 49.4421 51.727C48.3623 52.6796 47.1316 53.5025 45.7756 54.1963C41.6033 52.6796 37.732 48.5367 35.7686 42.867C32.7739 34.2195 35.3484 25.2947 41.5213 22.9347C43.1554 22.3095 44.8788 22.2075 46.5844 22.5562C47.4311 23.4004 48.2221 24.3076 48.9513 25.2641C52.3309 29.6954 54.3799 35.1713 54.3799 40.3188Z" fill="#F9EE80"/>
<path d="M53.4162 24.4758C53.4162 32.1254 48.8402 36.8295 42.1361 38.9724C30.8595 38.9713 18.6895 30.5585 18.6895 18.8069C18.6895 14.1435 21.4932 8.69505 25.6009 5.21054V5.20933C27.7449 4.47129 30.0465 4.0676 32.4411 4.0676C44.025 4.0676 53.4162 13.5178 53.4162 24.4758Z" fill="#FBF198"/>
<path d="M42.1354 38.9719C39.2351 39.9004 35.9381 40.3483 32.4403 40.3483C20.8564 40.3483 11.4653 35.4334 11.4653 24.4754C11.4653 15.7826 17.3746 8.03999 25.6003 5.20888C23.1581 8.71574 21.7182 13.0298 21.7182 17.6931C21.7181 29.4447 30.8587 38.9707 42.1354 38.9719Z" fill="#F9EE80"/>
<path d="M37.43 27.0282C37.43 29.811 35.1969 31.0591 32.4413 31.0591C29.6857 31.0591 27.4526 29.811 27.4526 27.0282C27.4526 26.6427 27.4952 26.2672 27.5769 25.9062C27.5769 25.9062 30.3133 24.6016 32.4413 24.6016C34.5693 24.6016 37.3057 25.9062 37.3057 25.9062C37.3874 26.2673 37.43 26.6428 37.43 27.0282Z" fill="#FAB658"/>
<path d="M32.443 21.9888C34.8171 21.9888 36.8035 23.6635 37.3069 25.9061C37.3069 25.9061 37.3056 25.9068 37.3029 25.908C34.2148 27.3117 30.6695 27.312 27.5816 25.9077L27.5781 25.9061C28.0815 23.6635 30.0679 21.9888 32.4421 21.9888" fill="#FDC072"/>
<path d="M23.5537 24.4695C25.3646 24.4695 26.8325 23.3005 26.8325 21.8584C26.8325 20.4163 25.3646 19.2473 23.5537 19.2473C21.7429 19.2473 20.2749 20.4163 20.2749 21.8584C20.2749 23.3005 21.7429 24.4695 23.5537 24.4695Z" fill="#FFA1AC"/>
<path d="M41.3257 24.4695C43.1365 24.4695 44.6045 23.3005 44.6045 21.8584C44.6045 20.4163 43.1365 19.2473 41.3257 19.2473C39.5149 19.2473 38.0469 20.4163 38.0469 21.8584C38.0469 23.3005 39.5149 24.4695 41.3257 24.4695Z" fill="#FFA1AC"/>
<path d="M27.0267 19.8674C26.5571 19.8674 26.1764 19.4867 26.1764 19.0171C26.1764 18.6255 25.8578 18.3068 25.4661 18.3068C25.0744 18.3068 24.7558 18.6254 24.7558 19.0171C24.7558 19.4868 24.3751 19.8674 23.9055 19.8674C23.4359 19.8674 23.0552 19.4867 23.0552 19.0171C23.0552 17.6877 24.1367 16.6062 25.4662 16.6062C26.7956 16.6062 27.8772 17.6877 27.8772 19.0171C27.877 19.4867 27.4963 19.8674 27.0267 19.8674Z" fill="#666667"/>
<path d="M40.9779 19.8674C40.5081 19.8674 40.1276 19.4867 40.1276 19.0171C40.1276 18.6255 39.809 18.3068 39.4173 18.3068C39.0256 18.3068 38.7069 18.6254 38.7069 19.0171C38.7069 19.4868 38.3263 19.8674 37.8566 19.8674C37.3869 19.8674 37.0063 19.4867 37.0063 19.0171C37.0063 17.6877 38.0879 16.6062 39.4173 16.6062C40.7466 16.6062 41.8282 17.6877 41.8282 19.0171C41.8282 19.4867 41.4475 19.8674 40.9779 19.8674Z" fill="#666667"/>
<path d="M26.9647 11.3025C27.2157 9.20959 26.894 6.85129 25.4092 5.35363C24.4788 4.41518 24.2075 2.77467 24.1479 1.52123C24.1181 0.894231 24.7882 0.464349 25.3401 0.763594C29.0041 2.75034 35.6012 -0.639303 37.5426 4.6945C35.873 5.5864 31.4576 7.4051 30.0894 8.80777C29.1066 9.75999 28.073 10.4999 26.9647 11.3025Z" fill="#FBF198"/>
<path d="M21.2701 37.1535L22.6111 36.3792C23.8553 35.6609 25.4463 36.0871 26.1648 37.3314L28.6623 41.6572C29.4199 42.9695 28.9 44.6491 27.5335 45.3039L25.4341 46.3099C21.9404 47.9838 17.7474 47.1487 15.193 44.2362C10.2942 38.6506 6.54303 32.1533 4.15512 25.1182C2.90993 21.4497 4.28323 17.4009 7.47983 15.2123L9.40066 13.8971C10.651 13.0409 12.3655 13.4305 13.1232 14.7429L15.6208 19.0687C16.3391 20.3129 15.9128 21.9038 14.6685 22.6223L13.3275 23.3965C12.565 23.8368 12.2511 24.7793 12.6021 25.5867C14.3109 29.5174 16.461 33.2415 19.0107 36.6866C19.5344 37.3942 20.5076 37.5936 21.2701 37.1535Z" fill="#1EDA0D"/>
<path d="M4.7771 37.505C6.34255 40.2164 9.58527 41.2749 12.0201 39.8693C14.4549 38.4636 13.5565 36.0515 11.991 33.3402C10.4256 30.6288 8.78593 28.6447 6.35113 30.0504C3.91634 31.4562 3.21165 34.7936 4.7771 37.505Z" fill="#F9EE80"/>
<path d="M26.9672 11.302C27.2181 9.20903 26.8964 6.85073 25.4116 5.35307C24.4812 4.41461 24.2099 2.7741 24.1504 1.52066C24.1205 0.893667 24.7907 0.463784 25.3425 0.763029C29.0065 2.74978 35.6037 -0.639868 37.5451 4.69394C35.8754 5.58584 31.46 7.40453 30.0918 8.80721C29.109 9.75942 28.0754 10.4993 26.9672 11.302Z" fill="#FBF198"/>
</g>
<defs>
<clipPath id="clip0_6132_58662">
<rect width="56.3492" height="56.3492" fill="white" transform="translate(0.865723 0.665314)"/>
</clipPath>
</defs>
</svg>
