<svg width="54" height="55" viewBox="0 0 54 55" fill="none" xmlns="http://www.w3.org/2000/svg">
<g clip-path="url(#clip0_6132_58483)">
<path d="M28.5145 30.1994L23.9685 25.6534C21.9596 23.6445 21.9595 20.3875 23.9683 18.3785L20.331 22.0158L15.9536 26.3932L27.7747 38.2144L32.1522 33.8369L35.7897 30.1994C33.7806 32.2082 30.5235 32.2082 28.5145 30.1994Z" fill="url(#paint0_linear_6132_58483)"/>
<path d="M28.5145 30.1994L23.9685 25.6534C21.9596 23.6445 21.9595 20.3875 23.9683 18.3785L20.331 22.0158L15.9536 26.3932L27.7747 38.2144L32.1522 33.8369L35.7897 30.1994C33.7806 32.2082 30.5235 32.2082 28.5145 30.1994Z" fill="url(#paint1_linear_6132_58483)"/>
<path d="M6.34767 3.18887L2.70661 8.18753C1.47518 9.87837 0.620611 11.8204 0.253714 13.8796C-1.50479 23.75 6.19488 31.1634 14.6018 39.5704C23.0088 47.9773 30.4222 55.677 40.2926 53.9185C42.3519 53.5516 44.2938 52.6971 45.9847 51.4656L50.9835 47.8245L33.4853 30.3265L31.1845 33.4853C29.8845 35.2702 27.3018 35.4837 25.7276 33.9351C24.003 32.2384 21.9338 30.1692 20.2371 28.4446C18.6885 26.8704 18.902 24.2878 20.6869 22.9877L23.8457 20.6869L6.34767 3.18887C6.34778 3.18887 6.34778 3.18887 6.34767 3.18887Z" fill="url(#paint2_linear_6132_58483)"/>
<path d="M31.1948 33.4703C29.8889 35.2631 27.2945 35.4776 25.7134 33.922C25.4762 33.6886 25.2327 33.4482 24.9844 33.2028L16.6094 41.5779C24.2007 49.1392 31.1884 55.5122 40.2414 53.9275C42.3189 53.5639 44.2792 52.7074 45.9838 51.4657L50.9826 47.8246L33.4845 30.3266L31.1948 33.4703Z" fill="url(#paint3_linear_6132_58483)"/>
<path d="M28.0201 36.1628C25.6257 33.8838 20.2882 28.5463 18.0092 26.1519L1.67766 9.8205C0.994171 11.088 0.50697 12.4558 0.253226 13.88C-1.50527 23.7504 6.19439 31.1638 14.6013 39.5708C23.0083 47.9777 30.4218 55.6773 40.2921 53.9188C41.7162 53.665 43.084 53.1778 44.3516 52.4943L28.0201 36.1628Z" fill="url(#paint4_linear_6132_58483)"/>
<path d="M26.1083 19.3689L24.3451 21.1321C22.71 22.7673 20.0588 22.7673 18.4236 21.1321L6.3748 9.08329C4.73965 7.44814 4.73965 4.79697 6.3748 3.16182L8.13799 1.39863C9.77313 -0.236515 12.4243 -0.236515 14.0595 1.39863L26.1083 13.4475C27.7436 15.0826 27.7436 17.7338 26.1083 19.3689Z" fill="url(#paint5_linear_6132_58483)"/>
<path d="M23.9753 17.1153L23.4318 17.6588C22.3477 18.7429 20.5899 18.7429 19.5057 17.6588L9.84925 8.00222C8.76509 6.91807 8.76509 5.16027 9.84925 4.07612L10.3927 3.53263C11.4769 2.44847 13.2347 2.44847 14.3188 3.53263L23.9753 13.1891C25.0594 14.2733 25.0594 16.031 23.9753 17.1153Z" fill="url(#paint6_linear_6132_58483)"/>
<path d="M23.9753 17.1153L23.4318 17.6588C22.3477 18.7429 20.5899 18.7429 19.5057 17.6588L9.84925 8.00222C8.76509 6.91807 8.76509 5.16027 9.84925 4.07612L10.3927 3.53263C11.4769 2.44847 13.2347 2.44847 14.3188 3.53263L23.9753 13.1891C25.0594 14.2733 25.0594 16.031 23.9753 17.1153Z" fill="url(#paint7_linear_6132_58483)"/>
<path d="M52.7725 46.0333L51.0093 47.7965C49.3741 49.4316 46.723 49.4316 45.0878 47.7965L33.0389 35.7475C31.4037 34.1124 31.4037 31.4612 33.0389 29.826L34.802 28.0628C36.4372 26.4277 39.0884 26.4277 40.7235 28.0628L52.7724 40.1117C54.4076 41.7469 54.4076 44.398 52.7725 46.0333Z" fill="url(#paint8_linear_6132_58483)"/>
<path d="M50.6374 43.7806L50.0939 44.324C49.0098 45.4082 47.252 45.4082 46.1678 44.324L36.5114 34.6676C35.4272 33.5834 35.4272 31.8256 36.5114 30.7415L37.0548 30.198C38.139 29.1138 39.8968 29.1138 40.981 30.198L50.6374 39.8545C51.7216 40.9386 51.7216 42.6964 50.6374 43.7806Z" fill="url(#paint9_linear_6132_58483)"/>
<path d="M50.6374 43.7806L50.0939 44.324C49.0098 45.4082 47.252 45.4082 46.1678 44.324L36.5114 34.6676C35.4272 33.5834 35.4272 31.8256 36.5114 30.7415L37.0548 30.198C38.139 29.1138 39.8968 29.1138 40.981 30.198L50.6374 39.8545C51.7216 40.9386 51.7216 42.6964 50.6374 43.7806Z" fill="url(#paint10_linear_6132_58483)"/>
<path d="M52.7729 46.0352L51.01 47.7982C49.3751 49.4331 46.7238 49.4331 45.0889 47.7982L37.4199 40.1292L44.8028 32.1428L52.7728 40.1128C54.4078 41.7479 54.4078 44.399 52.7729 46.0352Z" fill="url(#paint11_linear_6132_58483)"/>
</g>
<defs>
<linearGradient id="paint0_linear_6132_58483" x1="27.5534" y1="26.6144" x2="21.4376" y2="32.7301" gradientUnits="userSpaceOnUse">
<stop stop-color="#B3DAFE"/>
<stop offset="1" stop-color="#0182FC"/>
</linearGradient>
<linearGradient id="paint1_linear_6132_58483" x1="27.7638" y1="29.721" x2="33.071" y2="33.7163" gradientUnits="userSpaceOnUse">
<stop stop-color="#314DC9" stop-opacity="0"/>
<stop offset="0.2761" stop-color="#304BC4" stop-opacity="0.276"/>
<stop offset="0.5628" stop-color="#2B45B8" stop-opacity="0.563"/>
<stop offset="0.8535" stop-color="#243BA3" stop-opacity="0.854"/>
<stop offset="1" stop-color="#1F3596"/>
</linearGradient>
<linearGradient id="paint2_linear_6132_58483" x1="27.4141" y1="26.6757" x2="18.4342" y2="44.3826" gradientUnits="userSpaceOnUse">
<stop stop-color="#B3DAFE"/>
<stop offset="1" stop-color="#206EFF"/>
</linearGradient>
<linearGradient id="paint3_linear_6132_58483" x1="32.7637" y1="43.2695" x2="45.8542" y2="55.6011" gradientUnits="userSpaceOnUse">
<stop stop-color="#314DC9" stop-opacity="0"/>
<stop offset="0.2761" stop-color="#304BC4" stop-opacity="0.276"/>
<stop offset="0.5628" stop-color="#2B45B8" stop-opacity="0.563"/>
<stop offset="0.8535" stop-color="#243BA3" stop-opacity="0.854"/>
<stop offset="1" stop-color="#1F3596"/>
</linearGradient>
<linearGradient id="paint4_linear_6132_58483" x1="20.0366" y1="34.8834" x2="14.5348" y2="41.7764" gradientUnits="userSpaceOnUse">
<stop stop-color="#314DC9" stop-opacity="0"/>
<stop offset="0.2761" stop-color="#304BC4" stop-opacity="0.276"/>
<stop offset="0.5628" stop-color="#2B45B8" stop-opacity="0.563"/>
<stop offset="0.8535" stop-color="#243BA3" stop-opacity="0.854"/>
<stop offset="1" stop-color="#1F3596"/>
</linearGradient>
<linearGradient id="paint5_linear_6132_58483" x1="16.5332" y1="5.02289" x2="15.8376" y2="20.0106" gradientUnits="userSpaceOnUse">
<stop stop-color="#B3DAFE"/>
<stop offset="1" stop-color="#256AFF"/>
</linearGradient>
<linearGradient id="paint6_linear_6132_58483" x1="18.291" y1="8.9642" x2="12.9242" y2="15.3148" gradientUnits="userSpaceOnUse">
<stop stop-color="#B3DAFE"/>
<stop offset="1" stop-color="#0182FC"/>
</linearGradient>
<linearGradient id="paint7_linear_6132_58483" x1="14.3014" y1="7.98487" x2="8.75571" y2="2.43909" gradientUnits="userSpaceOnUse">
<stop stop-color="#314DC9" stop-opacity="0"/>
<stop offset="0.2761" stop-color="#304BC4" stop-opacity="0.276"/>
<stop offset="0.5628" stop-color="#2B45B8" stop-opacity="0.563"/>
<stop offset="0.8535" stop-color="#243BA3" stop-opacity="0.854"/>
<stop offset="1" stop-color="#1F3596"/>
</linearGradient>
<linearGradient id="paint8_linear_6132_58483" x1="43.9066" y1="32.327" x2="41.5035" y2="45.7337" gradientUnits="userSpaceOnUse">
<stop stop-color="#B3DAFE"/>
<stop offset="1" stop-color="#0182FC"/>
</linearGradient>
<linearGradient id="paint9_linear_6132_58483" x1="45.716" y1="35.1097" x2="40.5304" y2="40.2953" gradientUnits="userSpaceOnUse">
<stop stop-color="#B3DAFE"/>
<stop offset="1" stop-color="#0079EB"/>
</linearGradient>
<linearGradient id="paint10_linear_6132_58483" x1="43.3223" y1="33.1023" x2="42.9646" y2="27.1988" gradientUnits="userSpaceOnUse">
<stop stop-color="#314DC9" stop-opacity="0"/>
<stop offset="0.2761" stop-color="#304BC4" stop-opacity="0.276"/>
<stop offset="0.5628" stop-color="#2B45B8" stop-opacity="0.563"/>
<stop offset="0.8535" stop-color="#5F7AF4" stop-opacity="0.854"/>
<stop offset="1" stop-color="#4D6EFF"/>
</linearGradient>
<linearGradient id="paint11_linear_6132_58483" x1="47.0643" y1="42.2013" x2="51.7155" y2="47.1208" gradientUnits="userSpaceOnUse">
<stop stop-color="#314DC9" stop-opacity="0"/>
<stop offset="0.2761" stop-color="#002FFF" stop-opacity="0.276"/>
<stop offset="0.5628" stop-color="#2C53FF" stop-opacity="0.563"/>
<stop offset="0.8535" stop-color="#0230FF" stop-opacity="0.854"/>
<stop offset="1" stop-color="#0025C7"/>
</linearGradient>
<clipPath id="clip0_6132_58483">
<rect width="53.9995" height="54" fill="white" transform="translate(0.000488281 0.172882)"/>
</clipPath>
</defs>
</svg>
