<svg width="54" height="55" viewBox="0 0 54 55" fill="none" xmlns="http://www.w3.org/2000/svg">
<g clip-path="url(#clip0_6132_58434)">
<path d="M27.0031 53.8142C3.63436 53.8142 0.818307 33.5669 0.850365 28.5051V26.8178C0.818307 21.756 3.63436 1.50871 27.0031 1.50871C50.3718 1.50871 53.1879 21.756 53.1558 26.8178V28.5051C53.1879 33.5669 50.3718 53.8142 27.0031 53.8142Z" fill="url(#paint0_linear_6132_58434)"/>
<path d="M43.8753 41.1596C48.5346 41.1596 52.3117 37.3825 52.3117 32.7233C52.3117 28.064 48.5346 24.2869 43.8753 24.2869C39.2161 24.2869 35.439 28.064 35.439 32.7233C35.439 37.3825 39.2161 41.1596 43.8753 41.1596Z" fill="url(#paint1_radial_6132_58434)"/>
<path d="M10.1297 41.1596C14.789 41.1596 18.5661 37.3825 18.5661 32.7233C18.5661 28.064 14.789 24.2869 10.1297 24.2869C5.47045 24.2869 1.69336 28.064 1.69336 32.7233C1.69336 37.3825 5.47045 41.1596 10.1297 41.1596Z" fill="url(#paint2_radial_6132_58434)"/>
<path d="M40.5008 23.0214C40.5008 20.4905 38.8135 17.9596 36.2826 17.9596C33.7517 17.9596 32.0645 20.4905 32.0645 23.0214C32.0645 23.1741 32.0763 23.3015 32.0822 23.4433C32.0712 23.5841 32.0645 23.7259 32.0645 23.8651C32.0645 26.396 32.9081 27.2396 32.9081 27.2396C32.9081 27.2396 33.7517 22.1778 36.2826 22.1778C38.8135 22.1778 39.6572 27.2396 39.6572 27.2396C39.6572 27.2396 40.5008 26.396 40.5008 23.8651C40.5008 23.7242 40.4941 23.5825 40.4831 23.4433C40.489 23.3015 40.5008 23.1741 40.5008 23.0214Z" fill="#ED8D06"/>
<path d="M17.7226 17.9596C15.1917 17.9596 13.5044 20.4905 13.5044 23.0214C13.5044 23.1741 13.5162 23.3015 13.5221 23.4433C13.5111 23.5841 13.5044 23.7259 13.5044 23.8651C13.5044 26.396 14.348 27.2396 14.348 27.2396C14.348 27.2396 15.1917 22.1778 17.7226 22.1778C20.2535 22.1778 21.0971 27.2396 21.0971 27.2396C21.0971 27.2396 21.9408 26.396 21.9408 23.8651C21.9408 23.7242 21.934 23.5825 21.923 23.4433C21.9289 23.3032 21.9408 23.1758 21.9408 23.0214C21.9408 20.4905 20.2535 17.9596 17.7226 17.9596Z" fill="#ED8D06"/>
<path d="M32.9081 26.396C32.9081 26.396 32.0645 25.5524 32.0645 23.0214C32.0645 20.4905 33.7517 17.9596 36.2826 17.9596C38.8135 17.9596 40.5008 20.4905 40.5008 23.0214C40.5008 25.5524 39.6572 26.396 39.6572 26.396C39.6572 26.396 38.8135 21.3342 36.2826 21.3342C33.7517 21.3342 32.9081 26.396 32.9081 26.396Z" fill="url(#paint3_linear_6132_58434)"/>
<path d="M14.348 26.396C14.348 26.396 13.5044 25.5524 13.5044 23.0214C13.5044 20.4905 15.1917 17.9596 17.7226 17.9596C20.2535 17.9596 21.9408 20.4905 21.9408 23.0214C21.9408 25.5524 21.0971 26.396 21.0971 26.396C21.0971 26.396 20.2535 21.3342 17.7226 21.3342C15.1917 21.3342 14.348 26.396 14.348 26.396Z" fill="url(#paint4_linear_6132_58434)"/>
<path d="M37.9697 35.2542H37.9613C37.963 35.1206 37.9326 34.9885 37.8726 34.8691C37.8126 34.7498 37.7247 34.6466 37.6164 34.5683C37.5081 34.49 37.3826 34.439 37.2504 34.4195C37.1182 34.3999 36.9833 34.4125 36.8569 34.4561C33.6789 35.5326 30.3567 36.1236 27.0024 36.2092C23.6481 36.1236 20.3259 35.5326 17.1479 34.4561C17.0216 34.4125 16.8867 34.3999 16.7545 34.4195C16.6223 34.439 16.4968 34.49 16.3885 34.5683C16.2802 34.6466 16.1923 34.7498 16.1323 34.8691C16.0722 34.9885 16.0418 35.1206 16.0436 35.2542H16.0352V36.0978H16.0436C16.0444 36.2553 16.091 36.4092 16.1777 36.5407C17.6313 38.7401 20.8287 42.0033 27.0024 42.0033C33.1762 42.0033 36.3735 38.7401 37.8271 36.5407C37.9138 36.4092 37.9604 36.2553 37.9613 36.0978H37.9697V35.2542Z" fill="#F9BF06"/>
<path d="M37.9697 34.4106H37.9613C37.963 34.277 37.9326 34.1449 37.8726 34.0255C37.8126 33.9061 37.7247 33.803 37.6164 33.7247C37.5081 33.6464 37.3826 33.5954 37.2504 33.5758C37.1182 33.5563 36.9833 33.5689 36.8569 33.6125C33.6789 34.6889 30.3567 35.2799 27.0024 35.3656C23.6481 35.2799 20.3259 34.6889 17.1479 33.6125C17.0216 33.5689 16.8867 33.5563 16.7545 33.5758C16.6223 33.5954 16.4968 33.6464 16.3885 33.7247C16.2802 33.803 16.1923 33.9061 16.1323 34.0255C16.0722 34.1449 16.0418 34.277 16.0436 34.4106H16.0352V35.2542H16.0436C16.0444 35.4117 16.091 35.5656 16.1777 35.6971C17.6313 37.8965 20.8287 41.1597 27.0024 41.1597C33.1762 41.1597 36.3735 37.8965 37.8271 35.6971C37.9138 35.5656 37.9604 35.4117 37.9613 35.2542H37.9697V34.4106Z" fill="#ED8D06"/>
<path d="M36.8584 34.4556C37.0225 34.3978 37.2006 34.3929 37.3676 34.4416C37.5347 34.4904 37.6822 34.5904 37.7894 34.7275C37.8966 34.8646 37.958 35.0319 37.965 35.2057C37.972 35.3796 37.9243 35.5513 37.8285 35.6966C36.375 37.896 33.1776 41.1592 27.0038 41.1592C20.8301 41.1592 17.6327 37.896 16.1791 35.6966C16.0834 35.5513 16.0356 35.3796 16.0427 35.2057C16.0497 35.0319 16.1111 34.8646 16.2183 34.7275C16.3255 34.5904 16.473 34.4904 16.64 34.4416C16.8071 34.3929 16.9852 34.3978 17.1493 34.4556C20.3274 35.5321 23.6495 36.1231 27.0038 36.2087C30.3581 36.1231 33.6803 35.5321 36.8584 34.4556Z" fill="url(#paint5_linear_6132_58434)"/>
<path d="M8.44287 22.5998C9.3525 20.4995 10.7424 18.642 12.5007 17.1768C14.259 15.7115 16.3366 14.6794 18.5665 14.1634C18.5665 14.1634 9.16587 12.3184 8.44287 22.5998Z" fill="#ED8D06"/>
<path d="M8.44287 22.5998C8.44287 22.5998 9.88886 15.0982 18.5665 14.1634C18.5665 14.1634 9.16587 12.3184 8.44287 22.5998Z" fill="url(#paint6_linear_6132_58434)"/>
<path d="M45.5626 22.5998C44.653 20.4995 43.2631 18.642 41.5048 17.1768C39.7465 15.7115 37.6688 14.6794 35.439 14.1634C35.439 14.1634 44.8396 12.3184 45.5626 22.5998Z" fill="#ED8D06"/>
<path d="M45.5626 22.5998C45.5626 22.5998 44.1166 15.0982 35.439 14.1634C35.439 14.1634 44.8396 12.3184 45.5626 22.5998Z" fill="url(#paint7_linear_6132_58434)"/>
<path d="M50.8048 3.66325C50.1453 3.42752 49.4375 3.35968 48.7453 3.46587C48.0531 3.57207 47.3982 3.84894 46.8397 4.27152C46.5615 3.61703 46.1312 3.03834 45.5845 2.58349C45.0378 2.12865 44.3905 1.81077 43.6963 1.65624C41.1578 0.940838 40.1041 2.94447 39.8307 4.01842C39.6231 4.82249 39.5989 5.66294 39.7599 6.47762C40.4161 9.66004 41.9185 12.6066 44.1088 15.0068C47.1432 14.0807 49.8528 12.3132 51.9234 9.90954C52.4534 9.28166 52.8321 8.54045 53.0303 7.74308C53.1688 7.32946 53.2206 6.8917 53.1822 6.45718C53.1438 6.02266 53.0162 5.60073 52.8073 5.21779C52.5984 4.83485 52.3128 4.49914 51.9682 4.23165C51.6236 3.96417 51.2276 3.77067 50.8048 3.66325Z" fill="url(#paint8_linear_6132_58434)"/>
<path d="M43.6983 2.50317C44.3925 2.6577 45.0398 2.97558 45.5865 3.43043C46.1332 3.88527 46.5635 4.46396 46.8417 5.11845C47.4001 4.69587 48.0551 4.419 48.7473 4.31281C49.4395 4.20662 50.1473 4.27445 50.8068 4.51019C51.4285 4.6416 51.9909 4.9709 52.4097 5.44876C52.8286 5.92662 53.0813 6.52732 53.1301 7.16089C53.2638 6.39137 53.0971 5.5999 52.6643 4.94972C52.2315 4.29954 51.5657 3.84024 50.8042 3.66655C50.1448 3.43081 49.437 3.36298 48.7448 3.46917C48.0525 3.57536 47.3976 3.85224 46.8391 4.27481C46.5609 3.62032 46.1306 3.04163 45.5839 2.58679C45.0372 2.13194 44.3899 1.81406 43.6958 1.65954C41.1572 0.944134 40.1036 2.94777 39.8302 4.02172C39.675 4.62734 39.6222 5.25468 39.6741 5.87772C39.6956 5.53626 39.7478 5.19743 39.8302 4.86536C40.1061 3.79141 41.1598 1.78777 43.6983 2.50317Z" fill="url(#paint9_linear_6132_58434)"/>
<path d="M49.3525 9.04592C49.4428 9.23379 49.5739 9.39909 49.7364 9.52969C49.8988 9.66028 50.0884 9.75288 50.2913 9.80069C50.4942 9.8485 50.7052 9.8503 50.9089 9.80597C51.1125 9.76165 51.3037 9.67231 51.4683 9.54451C51.7062 9.3453 51.9179 9.11683 52.0985 8.86454C52.3946 8.4701 52.5621 7.99414 52.5784 7.50124C52.5947 7.00834 52.459 6.52236 52.1897 6.10922C51.8656 5.7086 51.4224 5.42166 50.9242 5.29005C50.0148 5.02262 47.5986 5.26896 47.6104 6.6095C47.6163 7.22873 48.4945 7.75769 48.837 8.21747C49.032 8.47853 49.2045 8.75567 49.3525 9.04592Z" fill="url(#paint10_linear_6132_58434)"/>
<path d="M44.7194 5.90572C45.0189 6.43215 45.5546 6.69958 45.8001 6.45746C45.8931 6.36577 45.9678 6.25727 46.0203 6.13772C46.1038 5.86651 46.1206 5.57914 46.0692 5.30006C46.0178 5.02098 45.8997 4.75844 45.725 4.53481C45.5358 4.2752 45.2937 4.05868 45.0147 3.89955C44.5431 3.63212 43.4118 3.47773 43.5805 4.264C43.6598 4.62676 44.1474 5.04352 44.3701 5.35482C44.4958 5.53452 44.6131 5.71843 44.7194 5.90572Z" fill="url(#paint11_linear_6132_58434)"/>
<path d="M1.82542 9.13551C2.37983 8.62843 3.06491 8.28635 3.80338 8.14787C4.54185 8.00938 5.30432 8.08001 6.00479 8.35178C5.73303 7.65131 5.6624 6.88883 5.80088 6.15036C5.93936 5.4119 6.28144 4.72681 6.78853 4.1724C7.05157 3.8708 7.37579 3.62864 7.73963 3.462C8.10348 3.29536 8.49862 3.20807 8.89881 3.20591C9.29899 3.20376 9.69505 3.2868 10.0607 3.44951C10.4263 3.61222 10.7531 3.85088 11.0194 4.14962C11.5464 4.67294 11.9403 5.31485 12.1684 6.02165C12.8833 8.76436 12.8316 11.6507 12.0191 14.3661C9.3037 15.1786 6.41738 15.2303 3.67467 14.5154C2.96787 14.2873 2.32596 13.8933 1.80264 13.3664C1.50389 13.1001 1.26523 12.7733 1.10252 12.4077C0.93981 12.042 0.856773 11.646 0.858928 11.2458C0.861082 10.8456 0.948379 10.4505 1.11502 10.0866C1.28166 9.72277 1.52382 9.39856 1.82542 9.13551Z" fill="url(#paint12_linear_6132_58434)"/>
<path d="M2.66905 9.97915C3.22347 9.47206 3.90855 9.12998 4.64702 8.9915C5.38549 8.85302 6.14796 8.92365 6.84843 9.19541C6.57666 8.49494 6.50604 7.73247 6.64452 6.994C6.783 6.25553 7.12508 5.57045 7.63217 5.01604C8.0929 4.46948 8.74871 4.12426 9.46008 4.05383C10.1714 3.9834 10.8822 4.19332 11.4412 4.63893C11.3116 4.46663 11.1707 4.30316 11.0194 4.14962C10.7531 3.85088 10.4263 3.61222 10.0607 3.44951C9.69505 3.2868 9.29899 3.20376 8.89881 3.20591C8.49862 3.20807 8.10348 3.29536 7.73963 3.462C7.37579 3.62864 7.05157 3.8708 6.78853 4.1724C6.28144 4.72681 5.93936 5.4119 5.80088 6.15036C5.6624 6.88883 5.73303 7.65131 6.00479 8.35178C5.30432 8.08001 4.54185 8.00938 3.80338 8.14787C3.06491 8.28635 2.37983 8.62843 1.82542 9.13551C1.52382 9.39856 1.28166 9.72277 1.11502 10.0866C0.948379 10.4505 0.861082 10.8456 0.858928 11.2458C0.856773 11.646 0.93981 12.042 1.10252 12.4077C1.26523 12.7733 1.50389 13.1001 1.80264 13.3664C1.95618 13.5177 2.11965 13.6586 2.29195 13.7882C1.84634 13.2292 1.63642 12.5184 1.70685 11.8071C1.77727 11.0957 2.12249 10.4399 2.66905 9.97915Z" fill="url(#paint13_linear_6132_58434)"/>
<path d="M10.0931 7.59172C10.2305 7.62957 10.3746 7.63621 10.5149 7.61116C10.6552 7.58611 10.7882 7.52999 10.904 7.44693C11.0198 7.36387 11.1156 7.25596 11.1843 7.1311C11.253 7.00624 11.293 6.86759 11.3012 6.7253C11.3055 6.51327 11.2831 6.30154 11.2345 6.0951C11.1645 5.76498 10.9946 5.46442 10.7478 5.23424C10.501 5.00407 10.1894 4.85544 9.85518 4.80856C9.50308 4.79569 9.15598 4.89495 8.86391 5.09202C8.31723 5.44044 7.35802 6.79701 8.05402 7.39346C8.37629 7.66849 9.04276 7.4542 9.43421 7.48457C9.65651 7.50126 9.87695 7.53711 10.0931 7.59172Z" fill="url(#paint14_linear_6132_58434)"/>
<path d="M5.66714 10.7764C6.26696 10.8523 6.80098 10.5739 6.75205 10.2212C6.73497 10.0883 6.69289 9.95976 6.62804 9.84245C6.46421 9.60912 6.24561 9.41957 5.99144 9.29043C5.73727 9.16128 5.45529 9.09649 5.17023 9.10174C4.84875 9.09894 4.53055 9.16661 4.23802 9.29999C3.74365 9.5244 2.94472 10.3697 3.67531 10.7114C4.11911 10.7927 4.57343 10.7986 5.01922 10.7291C5.23588 10.7334 5.45215 10.7492 5.66714 10.7764Z" fill="url(#paint15_linear_6132_58434)"/>
<path d="M44.1071 15.0068C41.9181 12.607 40.4166 9.6614 39.7607 6.48015C39.7212 6.28224 39.693 6.08226 39.6763 5.88116C39.6402 6.36365 39.6686 6.84879 39.7607 7.32378C40.4166 10.505 41.9181 13.4506 44.1071 15.8504C46.0122 15.27 47.7974 14.3516 49.3773 13.139C49.2651 12.9458 49.1486 12.7534 49.0305 12.5611C47.5362 13.6435 45.8724 14.47 44.1071 15.0068Z" fill="#ED8D06"/>
<path d="M12.0176 15.209C12.4733 13.4965 12.6849 11.7282 12.6461 9.95654C12.6052 11.4453 12.3943 12.9245 12.0176 14.3654C9.36249 15.1516 6.5465 15.2203 3.85623 14.5645C3.73531 14.8075 3.61917 15.0504 3.50781 15.2934C3.56434 15.3136 3.61749 15.3398 3.67654 15.3583C5.3056 15.8789 8.15034 16.1952 12.0176 15.209Z" fill="#ED8D06"/>
<path d="M41.9855 48.1114C40.9993 44.2433 41.3157 41.3994 41.8362 39.767C41.9976 39.2678 42.2436 38.8001 42.5634 38.3842C42.4136 38.4909 42.2725 38.6094 42.1416 38.7386C41.6146 39.2619 41.2206 39.9038 40.9926 40.6106C40.472 42.243 40.1557 45.0869 41.1419 48.955C41.7628 49.1128 42.3474 49.2275 42.9135 49.3228C43.2836 49.0613 43.641 48.7919 43.9858 48.5146C43.3514 48.4151 42.6942 48.2911 41.9855 48.1114Z" fill="#ED8D06"/>
<path d="M43.1037 41.5696L36.7004 52.6584C36.7004 52.6584 38.7117 53.6741 41.4299 53.5071C42.476 53.443 43.4546 52.9756 44.17 52.2096C52.6335 43.1303 55.8528 32.2963 53.8247 19.7074C53.656 18.6563 53.0857 17.7063 52.2285 17.0736C50.0485 15.4639 47.8247 15.2176 47.8247 15.2176L47.1329 28.0038C47.1329 28.0038 48.3731 27.8654 49.1509 27.8098C49.6723 27.7726 49.9304 28.0814 50.0435 28.2906C49.7887 33.5971 48.3731 38.4869 45.6954 42.9228C45.4861 43.0358 45.1014 43.1539 44.6847 42.8367C44.0671 42.3626 43.1037 41.5696 43.1037 41.5696Z" fill="#443FD0"/>
<path d="M44.8542 16.0593L44.2552 27.1329C44.2485 27.2392 44.2941 27.3421 44.3767 27.4113C45.1512 28.066 46.0151 28.341 46.9465 28.3258C47.1253 28.3225 47.2721 28.1841 47.2805 28.0053L47.9639 15.3641C47.974 15.1684 47.8171 15.0064 47.6231 15.0064C46.5499 15.0132 45.6034 15.2038 44.9572 15.8332C44.8964 15.8939 44.8593 15.9732 44.8542 16.0593Z" fill="#4B87E2"/>
<path d="M34.672 50.3277L40.2181 40.7237C40.2721 40.6309 40.3649 40.5701 40.4712 40.5566C41.4769 40.4318 42.3509 40.673 43.1236 41.1927C43.2721 41.2923 43.3177 41.4897 43.2283 41.6449L36.8976 52.6089C36.7997 52.7776 36.5804 52.8282 36.4167 52.7219C35.5207 52.1297 34.834 51.4531 34.6349 50.574C34.6164 50.4913 34.6282 50.4019 34.672 50.3277Z" fill="#4B87E2"/>
</g>
<defs>
<linearGradient id="paint0_linear_6132_58434" x1="27.0031" y1="1.76518" x2="27.0031" y2="54.0706" gradientUnits="userSpaceOnUse">
<stop stop-color="#FFE100"/>
<stop offset="1" stop-color="#F98900"/>
</linearGradient>
<radialGradient id="paint1_radial_6132_58434" cx="0" cy="0" r="1" gradientUnits="userSpaceOnUse" gradientTransform="translate(43.8603 32.7129) scale(8.43299)">
<stop stop-color="#FF6600"/>
<stop offset="0.098" stop-color="#FF6800" stop-opacity="0.978"/>
<stop offset="0.222" stop-color="#FE6D01" stop-opacity="0.916"/>
<stop offset="0.36" stop-color="#FE7501" stop-opacity="0.814"/>
<stop offset="0.509" stop-color="#FD8003" stop-opacity="0.672"/>
<stop offset="0.666" stop-color="#FC8E04" stop-opacity="0.488"/>
<stop offset="0.83" stop-color="#FBA006" stop-opacity="0.264"/>
<stop offset="0.997" stop-color="#F9B508" stop-opacity="0.01"/>
<stop offset="1" stop-color="#F9B508" stop-opacity="0"/>
</radialGradient>
<radialGradient id="paint2_radial_6132_58434" cx="0" cy="0" r="1" gradientUnits="userSpaceOnUse" gradientTransform="translate(10.1282 32.7129) scale(8.43299)">
<stop stop-color="#FF6600"/>
<stop offset="0.098" stop-color="#FF6800" stop-opacity="0.978"/>
<stop offset="0.222" stop-color="#FE6D01" stop-opacity="0.916"/>
<stop offset="0.36" stop-color="#FE7501" stop-opacity="0.814"/>
<stop offset="0.509" stop-color="#FD8003" stop-opacity="0.672"/>
<stop offset="0.666" stop-color="#FC8E04" stop-opacity="0.488"/>
<stop offset="0.83" stop-color="#FBA006" stop-opacity="0.264"/>
<stop offset="0.997" stop-color="#F9B508" stop-opacity="0.01"/>
<stop offset="1" stop-color="#F9B508" stop-opacity="0"/>
</radialGradient>
<linearGradient id="paint3_linear_6132_58434" x1="36.2826" y1="25.0993" x2="36.2826" y2="18.3021" gradientUnits="userSpaceOnUse">
<stop stop-color="#803F02"/>
<stop offset="0.174" stop-color="#6D3602"/>
<stop offset="0.515" stop-color="#4D2601"/>
<stop offset="0.802" stop-color="#3A1C01"/>
<stop offset="1" stop-color="#331901"/>
</linearGradient>
<linearGradient id="paint4_linear_6132_58434" x1="17.7226" y1="25.0993" x2="17.7226" y2="18.3021" gradientUnits="userSpaceOnUse">
<stop stop-color="#803F02"/>
<stop offset="0.174" stop-color="#6D3602"/>
<stop offset="0.515" stop-color="#4D2601"/>
<stop offset="0.802" stop-color="#3A1C01"/>
<stop offset="1" stop-color="#331901"/>
</linearGradient>
<linearGradient id="paint5_linear_6132_58434" x1="27.0038" y1="40.9272" x2="27.0038" y2="36.0374" gradientUnits="userSpaceOnUse">
<stop stop-color="#911625"/>
<stop offset="0.587" stop-color="#630F19"/>
<stop offset="1" stop-color="#400A10"/>
</linearGradient>
<linearGradient id="paint6_linear_6132_58434" x1="8.44287" y1="18.3175" x2="18.5665" y2="18.3175" gradientUnits="userSpaceOnUse">
<stop offset="0.005" stop-color="#414D4D"/>
<stop offset="0.206" stop-color="#3A4545"/>
<stop offset="0.522" stop-color="#272E2E"/>
<stop offset="0.914" stop-color="#080909"/>
<stop offset="1"/>
</linearGradient>
<linearGradient id="paint7_linear_6132_58434" x1="45.5626" y1="18.3175" x2="35.439" y2="18.3175" gradientUnits="userSpaceOnUse">
<stop offset="0.005" stop-color="#414D4D"/>
<stop offset="0.206" stop-color="#3A4545"/>
<stop offset="0.522" stop-color="#272E2E"/>
<stop offset="0.914" stop-color="#080909"/>
<stop offset="1"/>
</linearGradient>
<linearGradient id="paint8_linear_6132_58434" x1="47.3037" y1="3.02631" x2="43.7444" y2="14.7005" gradientUnits="userSpaceOnUse">
<stop stop-color="#FF5F6F"/>
<stop offset="0.346" stop-color="#FF2D44"/>
<stop offset="0.722" stop-color="#D41E32"/>
<stop offset="0.853" stop-color="#D61F33"/>
<stop offset="0.918" stop-color="#DE2337"/>
<stop offset="0.968" stop-color="#EB293E"/>
<stop offset="1" stop-color="#F82F44"/>
</linearGradient>
<linearGradient id="paint9_linear_6132_58434" x1="47.6263" y1="2.15813" x2="45.6648" y2="8.01128" gradientUnits="userSpaceOnUse">
<stop stop-color="#FF8A95"/>
<stop offset="0.66" stop-color="#FF495D"/>
<stop offset="1" stop-color="#FF2D44"/>
</linearGradient>
<linearGradient id="paint10_linear_6132_58434" x1="51.2406" y1="5.19978" x2="48.7097" y2="9.59766" gradientUnits="userSpaceOnUse">
<stop stop-color="#FF5F5F"/>
<stop offset="0.283" stop-color="#FF565A"/>
<stop offset="0.746" stop-color="#FF3D4D"/>
<stop offset="1" stop-color="#FF2D44"/>
</linearGradient>
<linearGradient id="paint11_linear_6132_58434" x1="45.5765" y1="4.07503" x2="44.058" y2="6.02045" gradientUnits="userSpaceOnUse">
<stop stop-color="#FF5F5F"/>
<stop offset="0.283" stop-color="#FF565A"/>
<stop offset="0.746" stop-color="#FF3D4D"/>
<stop offset="1" stop-color="#FF2D44"/>
</linearGradient>
<linearGradient id="paint12_linear_6132_58434" x1="4.06021" y1="6.39707" x2="11.8428" y2="14.2117" gradientUnits="userSpaceOnUse">
<stop stop-color="#FF5F6F"/>
<stop offset="0.346" stop-color="#FF2D44"/>
<stop offset="0.722" stop-color="#D41E32"/>
<stop offset="0.853" stop-color="#D61F33"/>
<stop offset="0.918" stop-color="#DE2337"/>
<stop offset="0.968" stop-color="#EB293E"/>
<stop offset="1" stop-color="#F82F44"/>
</linearGradient>
<linearGradient id="paint13_linear_6132_58434" x1="3.60549" y1="5.70951" x2="7.99577" y2="10.4786" gradientUnits="userSpaceOnUse">
<stop stop-color="#FF8A95"/>
<stop offset="0.66" stop-color="#FF495D"/>
<stop offset="1" stop-color="#FF2D44"/>
</linearGradient>
<linearGradient id="paint14_linear_6132_58434" x1="8.95262" y1="4.8906" x2="10.0806" y2="8.17068" gradientUnits="userSpaceOnUse">
<stop stop-color="#FF5F5F"/>
<stop offset="0.283" stop-color="#FF565A"/>
<stop offset="0.746" stop-color="#FF3D4D"/>
<stop offset="1" stop-color="#FF2D44"/>
</linearGradient>
<linearGradient id="paint15_linear_6132_58434" x1="4.70673" y1="8.94595" x2="5.37794" y2="11.3836" gradientUnits="userSpaceOnUse">
<stop stop-color="#FF5F5F"/>
<stop offset="0.283" stop-color="#FF565A"/>
<stop offset="0.746" stop-color="#FF3D4D"/>
<stop offset="1" stop-color="#FF2D44"/>
</linearGradient>
<clipPath id="clip0_6132_58434">
<rect width="53.9927" height="53.9927" fill="white" transform="translate(0.00732422 0.665115)"/>
</clipPath>
</defs>
</svg>
