<svg width="56" height="56" viewBox="0 0 56 56" fill="none" xmlns="http://www.w3.org/2000/svg">
<g clip-path="url(#clip0_6132_58596)">
<path d="M55.2148 28.0441C55.2148 42.2333 44.4526 53.9097 30.6462 55.3554C29.6954 55.455 28.7302 51.3154 27.7529 51.3154C27.6371 51.3154 27.5212 51.3144 27.4054 51.3133C25.836 51.294 20.8386 41.0288 19.3433 40.7563C8.23534 38.735 7.99934 43.5388 0.786725 33.2653C0.461365 31.5749 0.291016 29.8294 0.291016 28.0441C0.291016 12.8779 12.5867 0.582222 27.7529 0.582222C42.9192 0.582222 55.2148 12.8779 55.2148 28.0441Z" fill="#00C80D"/>
<path d="M35.6729 20.351C37.7268 20.351 39.3918 18.686 39.3918 16.6322C39.3918 14.5783 37.7268 12.9134 35.6729 12.9134C33.6191 12.9134 31.9541 14.5783 31.9541 16.6322C31.9541 18.686 33.6191 20.351 35.6729 20.351Z" fill="#F9F6F9"/>
<path d="M35.175 18.8014C36.373 18.8014 37.3442 17.8302 37.3442 16.6322C37.3442 15.4342 36.373 14.4631 35.175 14.4631C33.977 14.4631 33.0059 15.4342 33.0059 16.6322C33.0059 17.8302 33.977 18.8014 35.175 18.8014Z" fill="#453D81"/>
<path d="M25.7552 5.97194C23.5092 5.97194 21.6885 7.79269 21.6885 10.0387V14.9615H29.8218V10.0387C29.8219 7.79269 28.0012 5.97194 25.7552 5.97194Z" fill="#AC80DD"/>
<path d="M26.9685 6.15538C25.3143 6.67243 24.1139 8.21609 24.1139 10.0387V14.9614H21.6885V10.0387C21.6885 7.79344 23.5089 5.97194 25.7552 5.97194C26.1779 5.97194 26.5844 6.0363 26.9685 6.15538Z" fill="#9D66D5"/>
<path d="M33.579 18.3883L32.6829 1.31876C32.6401 0.504023 31.5305 0.298059 31.1983 1.04328L24.2368 16.6545L33.579 18.3883Z" fill="#B1E4F9"/>
<path d="M32.0484 0.596C31.9613 0.579802 31.8379 0.758733 31.7406 1.14417L27.6596 17.2899L24.2363 16.6546L31.1971 1.04322C31.3634 0.670662 31.7247 0.535927 32.0484 0.596Z" fill="#90D8F9"/>
<path d="M25.0317 15.4733C24.6063 15.3944 24.2564 15.0569 24.1828 14.6054C24.0892 14.0303 24.4794 13.4881 25.0545 13.3944L33.1307 12.0782C33.706 11.9845 34.2479 12.3749 34.3417 12.95C34.4354 13.525 34.0451 14.0672 33.47 14.161L25.3938 15.4771C25.2702 15.4972 25.1482 15.4949 25.0317 15.4733Z" fill="#90D8F9"/>
<path d="M27.4129 10.1371C26.9877 10.0581 26.6378 9.72063 26.5642 9.26922C26.4704 8.69413 26.8606 8.15186 27.4357 8.05811L32.8727 7.17139C33.4477 7.07763 33.99 7.46778 34.0838 8.04287C34.1776 8.61796 33.7874 9.16023 33.2123 9.25399L27.7753 10.1407C27.6516 10.1609 27.5294 10.1586 27.4129 10.1371Z" fill="#90D8F9"/>
<path d="M29.7924 4.79962C29.3671 4.72067 29.0172 4.38308 28.9436 3.93157C28.8499 3.35648 29.2402 2.81432 29.8153 2.72067L32.6155 2.26455C33.1905 2.17068 33.7328 2.56116 33.8264 3.13625C33.9201 3.71134 33.5298 4.2535 32.9547 4.34715L30.1545 4.80327C30.0309 4.82344 29.9088 4.82119 29.7924 4.79962Z" fill="#90D8F9"/>
<path d="M18.2188 6.7923C21.3625 6.7923 23.9111 9.3409 23.9111 12.4846C23.9111 15.6284 21.3625 18.177 18.2188 18.177V6.7923Z" fill="#FFCEEC"/>
<path d="M28.8756 20.384H23.4014C23.4165 20.5857 23.4272 20.7895 23.4272 20.9944C23.4272 25.0118 20.4075 28.3212 16.5145 28.7814C16.6261 29.3081 16.6851 29.853 16.6851 30.413C16.6851 33.8972 14.4109 36.8505 11.2667 37.8717C11.9243 39.1332 12.2976 40.5664 12.2976 42.0865C12.2976 44.6428 14.1912 44.044 12.4995 45.7013C11.5727 44.8818 10.7962 45.0899 9.98845 44.1534C9.43814 43.5151 5.87839 44.6717 5.38708 43.9841C3.14185 40.8399 1.54348 37.2023 0.786133 33.2654C1.01141 33.2032 1.24097 33.1506 1.47375 33.1077C1.16588 32.2678 0.998534 31.3591 0.998534 30.413C0.998534 26.3956 4.01827 23.0863 7.91121 22.626C7.79965 22.0993 7.74065 21.5544 7.74065 20.9944C7.74065 16.6627 11.2517 13.1517 15.5834 13.1517H25.4611C27.347 13.1517 28.8756 14.6803 28.8756 16.5651V20.384Z" fill="#AC80DD"/>
<path d="M13.1976 20.9944C13.1976 21.5544 13.2577 22.0993 13.3693 22.626C9.47633 23.0863 6.45552 26.3956 6.45552 30.413C6.45552 31.3592 6.62393 32.2678 6.93181 33.1077C4.77776 33.51 2.88976 34.6675 1.55314 36.2959C1.24097 35.309 0.984588 34.2974 0.786133 33.2654C1.01141 33.2032 1.24097 33.1506 1.47375 33.1077C1.16588 32.2678 0.998534 31.3592 0.998534 30.413C0.998534 26.3956 4.01827 23.0863 7.91121 22.626C7.79965 22.0993 7.74065 21.5544 7.74065 20.9944C7.74065 16.6627 11.2517 13.1517 15.5834 13.1517H21.0414C16.7098 13.1517 13.1976 16.6627 13.1976 20.9944Z" fill="#9D66D5"/>
<path d="M48.1314 17.0602H19.1763V27.8369C19.1763 33.3303 23.6302 37.7842 29.1237 37.7842C31.2209 37.7842 33.1668 37.1352 34.7706 36.0271C36.3743 34.9189 37.6369 33.3527 38.3685 31.5162L40.7001 31.2438V31.579C40.7001 32.7144 41.6205 33.6348 42.7559 33.6348H48.4866C49.3523 33.6348 50.1375 33.284 50.705 32.7154C51.2725 32.1469 51.6243 31.3628 51.6243 30.4961V20.5529C51.6242 18.6243 50.0602 17.0602 48.1314 17.0602Z" fill="#FFDDF1"/>
<path d="M30.6447 33.1962V55.3546C29.6942 55.4543 28.7288 55.5058 27.7515 55.5058C27.6355 55.5058 27.5196 55.5051 27.404 55.5037C26.6194 55.4939 25.8426 53.4228 25.0752 53.3486C24.3077 53.2743 23.5495 55.1971 22.8018 55.061C16.5078 53.9152 10.9622 50.6238 6.9502 45.9725L19.175 17.0602L30.6447 33.1962Z" fill="#FFDDF1"/>
<path d="M21.4943 32.2136L12.3932 50.8126C10.3711 49.4449 8.53996 47.8154 6.95018 45.9725C6.39987 45.3342 5.87852 44.6712 5.38721 43.9836L19.175 17.0602L21.1574 19.8493L21.4943 32.2136Z" fill="#FFCEEC"/>
<path d="M7.20605 17.0602C7.20605 20.6739 10.1356 23.6034 13.7493 23.6034C17.363 23.6034 20.2925 20.6739 20.2925 17.0602H7.20605Z" fill="#FFCEEC"/>
<path d="M46.4791 22.3899C45.8251 22.3899 45.2949 21.8597 45.2949 21.2057C45.2949 20.5517 45.8251 20.0215 46.4791 20.0215C47.1332 20.0215 47.6633 20.5517 47.6633 21.2057C47.6633 21.8597 47.1332 22.3899 46.4791 22.3899Z" fill="#EAAADD"/>
<path d="M49.9078 22.3899C49.2538 22.3899 48.7236 21.8597 48.7236 21.2057C48.7236 20.5517 49.2538 20.0215 49.9078 20.0215C50.5619 20.0215 51.092 20.5517 51.092 21.2057C51.092 21.8597 50.5618 22.3899 49.9078 22.3899Z" fill="#EAAADD"/>
<path d="M30.5301 37.6856C30.0709 37.751 29.6011 37.7843 29.1237 37.7843C23.6302 37.7843 19.1763 33.3303 19.1763 27.8369V17.0602H21.9825V27.8369C21.9825 32.8551 25.6995 37.0055 30.5301 37.6856Z" fill="#FFCEEC"/>
<path d="M27.1451 20.3511C29.199 20.3511 30.8639 18.6861 30.8639 16.6322C30.8639 14.5784 29.199 12.9134 27.1451 12.9134C25.0913 12.9134 23.4263 14.5784 23.4263 16.6322C23.4263 18.6861 25.0913 20.3511 27.1451 20.3511Z" fill="#F9F6F9"/>
<path d="M27.2424 18.8014C28.4404 18.8014 29.4116 17.8303 29.4116 16.6323C29.4116 15.4343 28.4404 14.4631 27.2424 14.4631C26.0444 14.4631 25.0732 15.4343 25.0732 16.6323C25.0732 17.8303 26.0444 18.8014 27.2424 18.8014Z" fill="#453D81"/>
<path d="M46.9062 29.0557H42.5793C41.3311 29.0557 40.3193 28.0439 40.3193 26.7958V26.2019H49.1661V26.7958C49.1661 28.0439 48.1543 29.0557 46.9062 29.0557Z" fill="#453D81"/>
<path d="M39.3585 47.5687L38.5745 48.3526C32.9755 53.9516 23.8653 53.9516 18.2662 48.3526L10.3643 40.4507C4.76529 34.8517 4.76529 25.7414 10.3643 20.1424L11.1483 19.3584L18.6178 26.8279L17.8338 27.6119C16.3536 29.0922 16.3536 31.5009 17.8338 32.9811L25.7358 40.8831C27.216 42.3633 29.6248 42.3633 31.105 40.8831L31.889 40.0991L39.3585 47.5687Z" fill="#DA387D"/>
<path d="M13.4268 37.3878L21.329 45.2899C26.1444 50.1053 33.5571 50.7794 39.0995 47.3111L39.3578 47.5694L38.5742 48.353C32.9752 53.952 23.8649 53.952 18.2659 48.353L10.3637 40.4508C4.76537 34.8525 4.76537 25.7421 10.3644 20.1431L11.148 19.3594L11.4063 19.6178C7.93797 25.1601 8.61207 32.573 13.4268 37.3878Z" fill="#C3247D"/>
<path d="M21.8589 25.474L20.3288 27.0041C19.5624 27.7705 18.3199 27.7705 17.5534 27.0041L11.1382 20.589C10.3719 19.8226 10.3719 18.5801 11.1382 17.8136L12.6684 16.2835C13.4347 15.5171 14.6773 15.5171 15.4438 16.2835L21.8589 22.6986C22.6254 23.465 22.6254 24.7075 21.8589 25.474Z" fill="#F9F6F9"/>
<path d="M42.6402 46.2563L41.11 47.7864C40.3437 48.5528 39.1011 48.5528 38.3346 47.7864L31.9195 41.3713C31.1531 40.6049 31.1531 39.3624 31.9195 38.5959L33.4496 37.0658C34.216 36.2994 35.4585 36.2994 36.225 37.0658L42.6402 43.4809C43.4065 44.2474 43.4065 45.4899 42.6402 46.2563Z" fill="#F9F6F9"/>
<path d="M39.6195 40.4586L42.6416 43.4807C43.4078 44.247 43.4078 45.4894 42.6416 46.2557L41.111 47.7863C40.3448 48.5525 39.1023 48.5525 38.3361 47.7863L35.314 44.7642C36.0802 45.5304 37.3227 45.5304 38.0889 44.7642L39.6195 43.2336C40.3856 42.4673 40.3857 41.2249 39.6195 40.4586Z" fill="#DDDAEC"/>
<path d="M18.8363 19.6766L21.8584 22.6987C22.6246 23.4649 22.6246 24.7074 21.8584 25.4736L20.3278 27.0042C19.5615 27.7704 18.3191 27.7704 17.5529 27.0042L14.5308 23.9821C15.297 24.7483 16.5394 24.7483 17.3057 23.9821L18.8363 22.4515C19.6025 21.6853 19.6025 20.4428 18.8363 19.6766Z" fill="#DDDAEC"/>
<path d="M27.4047 49.6504V55.5043C25.8353 55.485 24.2981 55.3337 22.8027 55.0613V49.6504C22.8027 49.0727 23.271 48.6045 23.8486 48.6045H26.3588C26.9365 48.6045 27.4047 49.0727 27.4047 49.6504Z" fill="#453D81"/>
</g>
<defs>
<clipPath id="clip0_6132_58596">
<rect width="54.9238" height="54.9238" fill="white" transform="translate(0.291016 0.582298)"/>
</clipPath>
</defs>
</svg>
