<svg width="54" height="55" viewBox="0 0 54 55" fill="none" xmlns="http://www.w3.org/2000/svg">
<path d="M26.9965 53.5323C41.285 53.5323 52.868 41.9492 52.868 27.6608C52.868 13.3723 41.285 1.78926 26.9965 1.78926C12.7081 1.78926 1.125 13.3723 1.125 27.6608C1.125 41.9492 12.7081 53.5323 26.9965 53.5323Z" fill="#EB9B19"/>
<path d="M26.9967 5.164C40.6636 5.164 51.7434 14.7331 51.7434 26.5361H52.8401C52.53 19.8906 49.6718 13.6199 44.8592 9.02663C40.0466 4.43335 33.6495 1.87054 26.9967 1.87054C20.3439 1.87054 13.9469 4.43335 9.13424 9.02663C4.32163 13.6199 1.46342 19.8906 1.15332 26.5361H2.25005C2.25005 14.7331 13.3298 5.164 26.9967 5.164Z" fill="#FFA771"/>
<path d="M51.7432 26.5359C51.7432 38.339 40.6634 47.9081 26.9965 47.9081C13.3296 47.9081 2.24985 38.339 2.24985 26.5359H1.15312C1.13737 26.9094 1.125 27.284 1.125 27.6608C1.125 34.5223 3.85074 41.1029 8.70259 45.9547C13.5544 50.8066 20.135 53.5323 26.9965 53.5323C33.8581 53.5323 40.4386 50.8066 45.2904 45.9547C50.1423 41.1029 52.868 34.5223 52.868 27.6608C52.868 27.284 52.8557 26.9094 52.8399 26.5359H51.7432Z" fill="#E6B446"/>
<path d="M41.9731 11.1554C42.3355 10.793 42.2205 10.0904 41.7162 9.5861C41.2119 9.0818 40.5093 8.96678 40.1469 9.32919C39.7845 9.69159 39.8995 10.3942 40.4038 10.8985C40.9081 11.4028 41.6107 11.5178 41.9731 11.1554Z" fill="#F6FAFD"/>
<path d="M34.4818 5.63339C34.6633 5.45197 34.6059 5.10049 34.3538 4.84834C34.1016 4.5962 33.7502 4.53886 33.5687 4.72029C33.3873 4.90171 33.4446 5.25319 33.6968 5.50534C33.9489 5.75748 34.3004 5.81482 34.4818 5.63339Z" fill="#F6FAFD"/>
<path d="M39.5113 9.81806C40.2361 9.09325 40.0057 7.68769 38.9967 6.67867C37.9877 5.66964 36.5821 5.43924 35.8573 6.16405C35.1325 6.88886 35.3629 8.29442 36.3719 9.30345C37.381 10.3125 38.7865 10.5429 39.5113 9.81806Z" fill="#F6FAFD"/>
<path d="M26.9965 31.0353C33.2089 31.0353 38.245 30.0281 38.245 28.7856C38.245 27.5432 33.2089 26.5359 26.9965 26.5359C20.7842 26.5359 15.748 27.5432 15.748 28.7856C15.748 30.0281 20.7842 31.0353 26.9965 31.0353Z" fill="#D46C2B"/>
<path d="M44.372 19.6747L43.3664 17.6613L37.8164 20.4363L34.524 22.0831L34.371 22.1595L34.3879 22.1933C34.169 22.3393 34.0095 22.5587 33.938 22.812C33.8129 23.2936 33.7483 23.789 33.7456 24.2866C33.7456 26.8097 35.227 28.786 37.1202 28.786C39.0133 28.786 40.4947 26.8097 40.4947 24.2866C40.4936 23.454 40.3081 22.6319 39.9514 21.8795L44.372 19.6747Z" fill="#141E21"/>
<path d="M19.6081 22.1889L19.625 22.1552L19.472 22.0787L16.1796 20.4319L10.6262 17.6558L9.62061 19.6749L14.0413 21.8852C13.6854 22.6359 13.4999 23.456 13.498 24.2868C13.498 26.8098 14.9794 28.7862 16.8725 28.7862C18.7656 28.7862 20.247 26.8098 20.247 24.2868C20.2458 23.7878 20.1823 23.2909 20.0581 22.8076C19.9866 22.5544 19.827 22.335 19.6081 22.1889Z" fill="#141E21"/>
<path d="M18.9654 23.0823C19.0711 23.4748 19.124 23.8795 19.1229 24.2859C19.1229 26.1532 18.1105 27.6605 16.8732 27.6605C15.6359 27.6605 14.6235 26.1532 14.6235 24.2859C14.6036 23.7653 14.6868 23.2459 14.8682 22.7575C15.0497 22.2691 15.3258 21.8214 15.6808 21.4401L18.9654 23.0823Z" fill="#273941"/>
<path d="M39.3695 24.2859C39.3695 26.1532 38.3572 27.6605 37.1198 27.6605C35.8825 27.6605 34.8701 26.1532 34.8701 24.2859C34.869 23.8795 34.9219 23.4748 35.0276 23.0823L38.3122 21.4401C38.6672 21.8214 38.9433 22.2691 39.1248 22.7575C39.3063 23.2459 39.3894 23.7653 39.3695 24.2859Z" fill="#273941"/>
<path d="M34.8704 41.159H32.6207C32.6207 39.1207 30.1123 36.6596 26.9965 36.6596C23.8807 36.6596 21.3723 39.1207 21.3723 41.159H19.1226C19.1226 37.9734 22.4892 34.4099 26.9965 34.4099C31.5038 34.4099 34.8704 37.9734 34.8704 41.159Z" fill="#141E21"/>
<path d="M11.7703 38.3741L18.1736 49.4629C18.1736 49.4629 16.1623 50.4786 13.4441 50.3116C12.398 50.2475 11.4194 49.7801 10.704 49.0141C2.24056 39.9348 -0.978772 29.1008 1.04934 16.5119C1.21807 15.4608 1.78837 14.5108 2.64551 13.8781C4.82548 12.2684 7.04932 12.0221 7.04932 12.0221L7.74111 24.8083C7.74111 24.8083 6.50095 24.67 5.72312 24.6143C5.20175 24.5772 4.94359 24.8859 4.83054 25.0951C5.08532 30.4017 6.50095 35.2914 9.17867 39.7273C9.38789 39.8403 9.7726 39.9584 10.1894 39.6412C10.8069 39.1671 11.7703 38.3741 11.7703 38.3741Z" fill="#D03F3F"/>
<path d="M10.0193 12.8636L10.6183 23.9372C10.625 24.0435 10.5795 24.1465 10.4968 24.2156C9.72234 24.8703 8.85845 25.1453 7.92707 25.1302C7.74822 25.1268 7.60143 24.9884 7.59299 24.8096L6.90964 12.1684C6.89952 11.9727 7.05644 11.8107 7.25047 11.8107C8.32359 11.8175 9.27015 12.0082 9.91638 12.6375C9.97712 12.6983 10.0142 12.7776 10.0193 12.8636Z" fill="#E24B4B"/>
<path d="M20.2015 47.132L14.6554 37.528C14.6014 37.4352 14.5086 37.3744 14.4023 37.3609C13.3967 37.2361 12.5227 37.4774 11.7499 37.997C11.6014 38.0966 11.5559 38.294 11.6453 38.4492L17.976 49.4132C18.0738 49.5819 18.2932 49.6325 18.4568 49.5262C19.3528 48.934 20.0395 48.2574 20.2386 47.3783C20.2572 47.2957 20.2454 47.2062 20.2015 47.132Z" fill="#E24B4B"/>
</svg>
