<svg width="57" height="58" viewBox="0 0 57 58" fill="none" xmlns="http://www.w3.org/2000/svg">
<g clip-path="url(#clip0_6132_58635)">
<path d="M31.7928 16.2002C37.1817 16.2002 42.117 18.7411 45.9357 22.5563C44.2304 22.2083 40.9538 52.6788 45.1262 54.1968C41.4311 56.0868 36.8087 57.0165 31.7928 57.0165C19.676 57.0165 9.854 51.5903 9.854 40.3192C9.854 29.0482 19.676 16.2002 31.7928 16.2002Z" fill="#FFDEAF"/>
<path d="M53.731 40.3184C53.731 45.2118 51.8796 49.003 48.7931 51.7266C47.7134 52.6793 46.4827 53.5021 45.1267 54.1959C40.9543 52.6793 37.0831 48.5364 35.1197 42.8667C32.125 34.2192 34.6995 25.2943 40.8723 22.9344C42.5065 22.3091 44.2298 22.2071 45.9355 22.5559C46.7822 23.4 47.5732 24.3072 48.3024 25.2637C51.6819 29.695 53.731 35.1709 53.731 40.3184Z" fill="#F9B880"/>
<path d="M52.7682 24.4754C52.7682 32.1251 48.1923 36.8291 41.4882 38.972C30.2115 38.9709 18.0415 30.5582 18.0415 18.8065C18.0415 14.1432 20.8452 8.69469 24.953 5.21017V5.20896C27.097 4.47092 29.3985 4.06723 31.7931 4.06723C43.3771 4.06723 52.7682 13.5174 52.7682 24.4754Z" fill="#FBD298"/>
<path d="M41.4874 38.9715C38.5872 39.9 35.2901 40.348 31.7924 40.348C20.2084 40.348 10.8174 35.433 10.8174 24.475C10.8174 15.7822 16.7267 8.03962 24.9523 5.20851C22.5102 8.71537 21.0703 13.0294 21.0703 17.6927C21.0702 29.4443 30.2108 38.9704 41.4874 38.9715Z" fill="#F9B880"/>
<path d="M36.782 27.0279C36.782 29.8107 34.549 31.0587 31.7934 31.0587C29.0377 31.0587 26.8047 29.8107 26.8047 27.0279C26.8047 26.6423 26.8473 26.2668 26.9289 25.9058C26.9289 25.9058 29.6654 24.6012 31.7934 24.6012C33.9213 24.6012 36.6578 25.9058 36.6578 25.9058C36.7394 26.2669 36.782 26.6425 36.782 27.0279Z" fill="#FFAA33"/>
<path d="M31.795 21.9885C34.1692 21.9885 36.1556 23.6631 36.659 25.9057C36.659 25.9057 36.6577 25.9064 36.6549 25.9076C33.5668 27.3114 30.0216 27.3116 26.9337 25.9074L26.9302 25.9057C27.4336 23.6631 29.42 21.9885 31.7941 21.9885" fill="#FFB75C"/>
<path d="M22.9043 24.4692C24.7151 24.4692 26.1831 23.3001 26.1831 21.8581C26.1831 20.416 24.7151 19.247 22.9043 19.247C21.0935 19.247 19.6255 20.416 19.6255 21.8581C19.6255 23.3001 21.0935 24.4692 22.9043 24.4692Z" fill="#FFA1AC"/>
<path d="M40.6768 24.4692C42.4876 24.4692 43.9556 23.3001 43.9556 21.8581C43.9556 20.416 42.4876 19.247 40.6768 19.247C38.8659 19.247 37.3979 20.416 37.3979 21.8581C37.3979 23.3001 38.8659 24.4692 40.6768 24.4692Z" fill="#FFA1AC"/>
<path d="M26.3763 16.6049C25.9067 16.6049 25.526 16.9856 25.526 17.4552C25.526 17.8468 25.2074 18.1655 24.8157 18.1655C24.424 18.1655 24.1054 17.8469 24.1054 17.4552C24.1054 16.9855 23.7247 16.6049 23.2551 16.6049C22.7855 16.6049 22.4048 16.9856 22.4048 17.4552C22.4048 18.7846 23.4863 19.8661 24.8158 19.8661C26.1452 19.8661 27.2268 18.7846 27.2268 17.4552C27.2266 16.9856 26.8459 16.6049 26.3763 16.6049Z" fill="#A90000"/>
<path d="M40.327 16.6049C39.8573 16.6049 39.4767 16.9856 39.4767 17.4552C39.4767 17.8468 39.1581 18.1655 38.7664 18.1655C38.3747 18.1655 38.0561 17.8469 38.0561 17.4552C38.0561 16.9855 37.6754 16.6049 37.2058 16.6049C36.736 16.6049 36.3555 16.9856 36.3555 17.4552C36.3555 18.7846 37.437 19.8661 38.7664 19.8661C40.0958 19.8661 41.1773 18.7846 41.1773 17.4552C41.1773 16.9856 40.7966 16.6049 40.327 16.6049Z" fill="#A90000"/>
<path d="M26.3168 11.3022C26.5677 9.20923 26.246 6.85092 24.7612 5.35327C23.8308 4.41481 23.5595 2.7743 23.5 1.52086C23.4702 0.893865 24.1403 0.463982 24.6921 0.763228C28.3561 2.74998 34.9533 -0.63967 36.8947 4.69414C35.225 5.58604 30.8096 7.40473 29.4414 8.80741C28.4586 9.75962 27.4251 10.4995 26.3168 11.3022Z" fill="#FBF198"/>
<path d="M11.2173 49.1584L11.1789 50.7064C11.1433 52.1427 9.95013 53.2781 8.51374 53.2425L3.52027 53.1187C2.00542 53.0811 0.843182 51.7618 0.996747 50.2543L1.23283 47.9383C1.62567 44.0843 4.52428 40.9415 8.34141 40.28C15.6618 39.0116 23.1618 39.1976 30.4102 40.8275C34.1898 41.6774 36.9291 44.9601 37.1302 48.8289L37.2512 51.1537C37.3299 52.667 36.1037 53.927 34.5887 53.8894L29.5953 53.7656C28.159 53.73 27.0236 52.5368 27.0592 51.1004L27.0976 49.5524C27.1194 48.6722 26.4787 47.913 25.6068 47.7916C21.3617 47.2006 17.0627 47.094 12.7936 47.4737C11.9168 47.5517 11.2393 48.2783 11.2173 49.1584Z" fill="#E20F0F"/>
<path d="M19.5153 34.9007C16.3855 34.8231 13.7917 37.0385 13.7219 39.849C13.6521 42.6596 16.1788 43.1504 19.3087 43.228C22.4386 43.3057 24.9865 42.9408 25.0562 40.1302C25.1259 37.3196 22.6453 34.9784 19.5153 34.9007Z" fill="#F9B880"/>
<path d="M26.3163 11.3018C26.5672 9.20883 26.2455 6.85053 24.7608 5.35287C23.8303 4.41441 23.559 2.7739 23.4995 1.52046C23.4697 0.893469 24.1398 0.463586 24.6916 0.762831C28.3557 2.74958 34.9528 -0.640066 36.8942 4.69374C35.2245 5.58564 30.8092 7.40433 29.4409 8.80701C28.4581 9.75922 27.4246 10.4991 26.3163 11.3018Z" fill="#FBD298"/>
</g>
<defs>
<clipPath id="clip0_6132_58635">
<rect width="56.3492" height="56.3492" fill="white" transform="translate(0.214844 0.665115)"/>
</clipPath>
</defs>
</svg>
