<svg width="56" height="56" viewBox="0 0 56 56" fill="none" xmlns="http://www.w3.org/2000/svg">
<g clip-path="url(#clip0_6132_58506)">
<path d="M27.6787 1.70851C12.8231 1.70851 0.780273 13.7514 0.780273 28.6072C0.780273 36.7824 4.42726 44.1057 10.1831 49.039L44.0706 49.9358C50.4599 45.018 54.5771 37.2933 54.5771 28.6072C54.5771 13.7514 42.5342 1.70851 27.6787 1.70851Z" fill="#E20F0F"/>
<path d="M30.9819 32.6444C29.8419 37.2327 33.4376 42.0755 39.0132 43.4609C39.9716 43.699 41.01 43.7377 42.0786 43.6153C47.9722 42.9395 50.3722 35.6089 46.0751 31.5191C45.62 31.086 45.2012 30.6101 44.8201 30.0892C42.5377 26.9708 38.3288 25.8913 34.9356 27.7408C32.9684 28.8131 31.5113 30.5141 30.9819 32.6444Z" fill="#C566DE"/>
<path d="M27.6225 21.8458C26.4825 26.4341 30.0782 31.2769 35.6539 32.6623C36.9607 32.9871 38.4165 32.941 39.8944 32.6208C45.2682 31.4571 47.0639 24.6105 42.9628 20.9481C42.4114 20.4557 41.9099 19.9043 41.4607 19.2905C39.1783 16.1721 34.9694 15.0926 31.5763 16.9421C29.609 18.0146 28.1518 19.7155 27.6225 21.8458Z" fill="#AC80DD"/>
<path d="M23.5615 10.0919C21.5919 14.3899 24.2293 19.8145 29.4523 22.2079C31.8914 23.3257 35.1845 23.106 38.2026 22.1166C41.9379 20.8921 42.9467 16.0807 40.0565 13.4164C39.0492 12.4878 38.2353 11.4013 37.6336 10.1418C35.9677 6.65489 32.0313 4.81502 28.3545 6.0046C26.2228 6.69441 24.4761 8.09633 23.5615 10.0919Z" fill="#9D66D5"/>
<path d="M43.2088 30.8301L34.9358 27.7412C32.9684 28.8135 31.5113 30.5145 30.9819 32.6448C29.8853 37.0578 33.1701 41.7055 38.3834 43.287C38.4234 43.2555 38.4642 43.2246 38.5039 43.1929C40.0445 41.9608 41.2612 40.5128 42.1202 38.8889C43.0359 37.1575 43.5003 35.3112 43.5003 33.4017C43.5003 32.5324 43.402 31.6719 43.2088 30.8301Z" fill="#9857BD"/>
<path d="M38.7759 19.7492C38.7759 16.6489 37.5686 13.7341 35.3763 11.5418C33.184 9.34946 30.2692 8.1421 27.1689 8.1421C26.3055 8.1421 25.4566 8.23597 24.6335 8.41844C24.2062 8.91755 23.8444 9.47605 23.5625 10.0915C21.5929 14.3896 24.2302 19.8141 29.4533 22.2076C32.1066 23.4235 35.7702 23.0561 38.9914 21.8375C38.8495 21.1524 38.7759 20.4522 38.7759 19.7492Z" fill="#9D66D5"/>
<path d="M33.1229 9.74914H23.7271L27.1229 1.45612C27.6001 0.291024 29.25 0.291024 29.7272 1.45612L33.1229 9.74914Z" fill="#B1E4F9"/>
<path d="M29.8073 1.7766C29.8156 1.75629 29.8252 1.73707 29.8342 1.71742L29.7272 1.45612C29.2501 0.291024 27.6001 0.291024 27.1229 1.45612L23.7271 9.74914H26.5425L29.8073 1.7766Z" fill="#90D8F9"/>
<path d="M21.0999 7.59874C19.6363 6.13512 17.5171 5.67532 16.1423 5.53567C15.7821 6.76576 16.0934 8.09466 16.9636 9.03578C19.2888 11.5503 22.2628 14.8777 23.2158 13.9247C24.3785 12.7622 23.4311 9.92992 21.0999 7.59874Z" fill="#FFDDF1"/>
<path d="M17.9835 9.12472C16.9499 8.09104 16.4172 6.73052 16.144 5.536C15.8963 5.51086 15.6724 5.49604 15.4812 5.4877C15.0868 5.47046 14.7632 5.79412 14.7804 6.18849C14.8351 7.44054 15.1643 10.0815 16.8917 11.809C19.2229 14.1402 22.0551 15.0875 23.2175 13.925C23.7216 13.4209 23.8284 12.6029 23.5985 11.6481C22.2163 12.0479 19.9264 11.0676 17.9835 9.12472Z" fill="#FFCEEC"/>
<path d="M22.0284 10.3741C23.3367 11.6825 23.8685 13.2722 23.216 13.9247C22.5634 14.5773 20.9738 14.0455 19.6654 12.7371C18.8419 11.9137 18.5846 10.7206 18.5069 9.94913C18.4645 9.52852 18.8196 9.17335 19.2403 9.21573C20.0119 9.29335 21.2049 9.55081 22.0284 10.3741Z" fill="#FE93D3"/>
<path d="M23.0627 11.7319C21.8207 11.7908 20.1124 11.0303 18.5442 9.65157C18.5105 9.74314 18.4963 9.84393 18.5068 9.94867C18.5846 10.7202 18.8419 11.9133 19.6653 12.7367C20.9329 14.0042 22.4642 14.5428 23.1519 13.982C23.1733 13.9629 23.1954 13.9447 23.2158 13.9243C23.2162 13.924 23.2164 13.9236 23.2166 13.9234C23.6505 13.4883 23.5587 12.6379 23.0627 11.7319Z" fill="#FF5CAB"/>
<path d="M38.4189 5.61443C37.0809 5.82314 35.3371 6.33949 34.0784 7.59824C34.0328 7.64391 33.9877 7.68969 33.9431 7.73569L31.9624 13.9242C33.125 15.0868 35.2227 13.7353 37.5539 11.4041C39.2813 9.67668 39.4629 7.18444 39.5176 5.9325L38.4189 5.61443Z" fill="#FFDDF1"/>
<path d="M39.6966 5.4877C39.357 5.50252 38.9148 5.53787 38.4168 5.61549C38.4498 5.70003 38.4665 5.7928 38.4622 5.88997C38.4076 7.14202 38.0784 9.78302 36.351 11.5105C34.9603 12.9012 33.3915 13.7989 32.105 14.0505C33.3443 15.0101 36.0461 14.049 38.2862 11.809C40.0137 10.0815 40.3429 7.44054 40.3975 6.18849C40.4146 5.79412 40.0911 5.47046 39.6966 5.4877Z" fill="#FFCEEC"/>
<path d="M33.1486 10.3741C31.8402 11.6825 31.3084 13.2722 31.961 13.9247C32.6136 14.5773 34.2031 14.0455 35.5116 12.7371C36.335 11.9137 36.5924 10.7206 36.6701 9.94913C36.7125 9.52852 36.3573 9.17335 35.9367 9.21573C35.1651 9.29335 33.9719 9.55081 33.1486 10.3741Z" fill="#FE93D3"/>
<path d="M38.8804 27.6475C37.1368 25.384 36.1915 22.6072 36.1915 19.75C36.1915 14.7685 32.1532 10.7303 27.1719 10.7303C27.1464 10.7303 27.1209 10.7304 27.0955 10.7306C23.5389 10.7602 20.6841 13.682 20.6841 17.2388V43.0917C29.7507 46.9823 40.9136 41.7473 40.9136 33.4026C40.9136 31.2924 40.1697 29.3212 38.8804 27.6475Z" fill="#FFDDF1"/>
<path d="M20.7458 33.4027C20.7458 31.2925 21.4896 29.3214 22.779 27.6476C24.5225 25.3841 25.4678 22.6073 25.4678 19.7501C25.4678 16.0712 27.6708 12.907 30.8292 11.5037C29.711 11.0069 28.4733 10.7303 27.1709 10.7303C22.1895 10.7303 18.1512 14.7686 18.1512 19.75C18.1512 22.6071 17.206 25.384 15.4624 27.6475C14.173 29.3212 13.4292 31.2924 13.4292 33.4026C13.4292 40.7624 22.2091 45.8966 30.8293 43.9972C25.0159 42.7165 20.7458 38.4586 20.7458 33.4027Z" fill="#FFCEEC"/>
<path d="M27.1719 27.5599C24.8007 27.5599 22.582 28.1477 20.6841 29.17V43.089C27.7452 46.1202 36.5688 43.675 39.7762 37.7838C39.1049 32.0377 33.7182 27.5599 27.1719 27.5599Z" fill="#FFAE91"/>
<path d="M28.3855 44.3477C29.2385 44.2879 30.056 44.1672 30.8286 43.997C25.0159 42.7158 20.7463 38.4583 20.7463 33.4025C20.7463 31.6295 21.2731 29.9553 22.2057 28.4726C18.0665 30.0646 15.0575 33.5859 14.5669 37.7849C16.7031 41.7084 21.909 44.8034 28.3855 44.3477Z" fill="#F89580"/>
<path d="M33.9438 7.73631C31.7119 10.0403 30.8227 12.7845 31.9624 13.9242C32.8017 14.7635 34.5114 14.5027 36.2744 13.4157C36.582 11.1939 35.6653 9.01229 33.9438 7.73631Z" fill="#FFCEEC"/>
<path d="M36.2593 11.6095C36.129 10.779 35.8315 9.99072 35.39 9.29552C34.6708 9.43123 33.7973 9.72799 33.151 10.3743C31.8426 11.6827 31.3109 13.2724 31.9634 13.9249C32.6159 14.5774 34.2055 14.0457 35.514 12.7373C35.8468 12.4045 36.086 12.011 36.2593 11.6095Z" fill="#FF5CAB"/>
<path d="M33.1233 9.74909L31.7748 6.45571C31.4248 6.25579 31.0495 6.08901 30.6498 5.9633C28.9994 5.44454 27.2732 5.5461 25.8054 6.39346C25.4342 6.60777 25.0974 6.8615 24.7933 7.14651L23.7275 9.74909H33.1233Z" fill="#90D8F9"/>
<path d="M25.8773 7.42546C22.716 9.25062 21.9514 13.8445 24.1692 17.686C26.1654 21.1435 32.3789 22.8921 35.9061 21.8764C36.455 21.7183 36.6967 21.0751 36.3841 20.5972C34.9248 18.3674 34.3021 16.0814 34.7172 13.7261C35.2354 10.7855 33.5557 7.87879 30.705 6.99014C29.0597 6.4772 27.3401 6.58095 25.8773 7.42546Z" fill="#C566DE"/>
<path d="M28.2634 14.6093C26.7383 11.9677 26.6234 8.97055 27.7284 6.76234C27.0847 6.87147 26.4604 7.08852 25.8773 7.42514C22.716 9.2503 21.9514 13.8441 24.1692 17.6857C26.2095 21.2198 32.6558 22.9682 36.1362 21.8046C36.5716 21.659 36.7513 21.1441 36.4947 20.7634C36.489 20.7548 36.4832 20.7463 36.4775 20.7378C35.7068 19.5887 34.5698 18.7445 33.2659 18.2813C31.1373 17.5253 29.2181 16.2629 28.2634 14.6093Z" fill="#9857BD"/>
<path d="M23.0065 24.31C22.1939 24.31 21.3813 24.0007 20.7627 23.3822C20.4626 23.0821 20.4626 22.5954 20.7626 22.2954C21.0627 21.9952 21.5494 21.9953 21.8494 22.2953C22.4875 22.9332 23.5255 22.9332 24.1635 22.2953C24.4636 21.9953 24.9502 21.9953 25.2503 22.2954C25.5503 22.5954 25.5503 23.0821 25.2502 23.3822C24.6317 24.0006 23.8192 24.31 23.0065 24.31Z" fill="#00366D"/>
<path d="M30.7712 24.31C29.9586 24.31 29.1459 24.0007 28.5274 23.3821C28.2272 23.0821 28.2272 22.5954 28.5273 22.2953C28.8273 21.9952 29.314 21.9953 29.6141 22.2952C30.2522 22.9332 31.2901 22.9332 31.928 22.2952C32.2282 21.9953 32.7149 21.9953 33.0148 22.2953C33.315 22.5954 33.315 23.082 33.0148 23.3821C32.3964 24.0006 31.5838 24.31 30.7712 24.31Z" fill="#00366D"/>
<path d="M24.8893 33.7679C25.3891 33.7679 25.7942 33.3627 25.7942 32.8629C25.7942 32.3631 25.3891 31.958 24.8893 31.958C24.3895 31.958 23.9844 32.3631 23.9844 32.8629C23.9844 33.3627 24.3895 33.7679 24.8893 33.7679Z" fill="#00366D"/>
<path d="M23.1735 34.64C23.0698 34.64 22.9643 34.6189 22.8633 34.5741C22.475 34.4026 22.2995 33.9487 22.4711 33.5605C23.0283 32.3001 24.2009 31.9637 24.806 31.9637V33.5008L24.8187 33.5007C24.7521 33.503 24.1596 33.5424 23.8769 34.1819C23.7499 34.4691 23.4685 34.64 23.1735 34.64Z" fill="#00366D"/>
<path d="M28.6315 33.7679C29.1313 33.7679 29.5364 33.3627 29.5364 32.8629C29.5364 32.3631 29.1313 31.958 28.6315 31.958C28.1317 31.958 27.7266 32.3631 27.7266 32.8629C27.7266 33.3627 28.1317 33.7679 28.6315 33.7679Z" fill="#00366D"/>
<path d="M30.3481 34.6396C30.053 34.6396 29.7717 34.4687 29.6448 34.1815C29.3519 33.5189 28.722 33.5004 28.7158 33.5004C28.2913 33.5004 27.9473 33.1563 27.9473 32.7319C27.9473 32.3074 28.2913 31.9633 28.7158 31.9633C29.3208 31.9633 30.4935 32.2996 31.0507 33.5601C31.2223 33.9483 31.0466 34.4022 30.6585 34.5737C30.5574 34.6185 30.4519 34.6396 30.3481 34.6396Z" fill="#00366D"/>
<path d="M21.5889 41.8858C20.8343 43.1928 18.7183 43.3839 16.8626 42.3126C15.0069 41.2412 11.9452 39.9922 12.6998 38.6852C13.4544 37.3781 17.7396 36.508 19.5953 37.5794C21.451 38.6506 22.3435 40.5787 21.5889 41.8858Z" fill="#DFF6FD"/>
<path d="M32.7061 41.8858C33.4607 43.1928 35.5768 43.3839 37.4324 42.3126C39.2881 41.2412 42.3498 39.9922 41.5952 38.6852C40.8406 37.3781 36.5554 36.508 34.6998 37.5794C32.8441 38.6506 31.9515 40.5787 32.7061 41.8858Z" fill="#DFF6FD"/>
<path d="M35.1623 39.6182C31.6888 39.6182 28.6763 41.5853 27.1727 44.465C27.0669 44.2622 26.9535 44.064 26.833 43.8706C21.4736 45.5342 21.3011 53.0566 26.5784 54.9643L28.0695 55.5032C34.0885 55.4177 39.6281 53.3538 44.0705 49.9344C44.1363 49.4997 44.1718 49.0638 44.1718 48.6277C44.1718 43.6519 40.1382 39.6182 35.1623 39.6182Z" fill="#FFDDF1"/>
<path d="M25.4716 48.6274C25.4716 46.8811 25.97 45.2519 26.8299 43.8713C25.2965 41.4101 22.6119 39.7407 19.5274 39.6242L11.0427 44.7592C10.4847 45.9312 10.1724 47.2429 10.1724 48.6273C10.1724 48.764 10.1768 48.9008 10.1839 49.0378C14.8874 53.0692 20.9982 55.5056 27.6786 55.5056C27.8089 55.5056 27.9384 55.5025 28.0683 55.5006C26.5079 53.2791 25.4716 50.9354 25.4716 48.6274Z" fill="#FFCEEC"/>
<path d="M19.899 40.1033C19.7966 39.9261 19.6714 39.7674 19.5283 39.6253C19.4137 39.6211 19.2986 39.6182 19.1829 39.6182C15.5916 39.6182 12.4918 41.7199 11.0444 44.7601C11.0893 44.8836 11.1437 45.004 11.2104 45.1196C12.1329 46.7174 15.5827 48.0314 17.9819 46.6462C20.3813 45.2611 20.8214 41.701 19.899 40.1033Z" fill="#F1239A"/>
<path d="M19.1233 38.5723C20.0458 40.1701 19.6056 43.7302 17.2063 45.1154C14.807 46.5006 11.3573 45.1866 10.4348 43.5888C9.51236 41.991 10.7095 39.5728 13.1088 38.1875C15.5082 36.8023 18.2009 36.9746 19.1233 38.5723Z" fill="white"/>
<path d="M34.3952 40.1033C34.4975 39.9261 34.6228 39.7674 34.7659 39.6253C34.8805 39.6211 34.9956 39.6182 35.1113 39.6182C38.7026 39.6182 41.8024 41.7199 43.2497 44.7601C43.2048 44.8836 43.1505 45.004 43.0837 45.1196C42.1613 46.7174 38.7115 48.0314 36.3123 46.6462C33.9129 45.2611 33.4728 41.701 34.3952 40.1033Z" fill="#FE3D97"/>
<path d="M35.1687 38.5722C34.2462 40.17 34.6864 43.73 37.0857 45.1152C39.485 46.5005 42.9347 45.1864 43.8572 43.5886C44.7796 41.9908 43.5825 39.5726 41.1831 38.1874C38.7838 36.8021 36.0911 36.9744 35.1687 38.5722Z" fill="white"/>
<path d="M25.6483 6.92264C28.3677 6.92264 30.2738 5.84636 31.2319 5.14008L30.7142 3.87585C30.0541 4.42348 28.2326 5.67026 25.4227 5.60076L24.8931 6.8942C25.151 6.91276 25.4033 6.92264 25.6483 6.92264Z" fill="#7CCCF0"/>
<path d="M26.3257 3.40145C27.9065 3.23523 29.1544 2.71614 30.0357 2.20979L29.7267 1.4552C29.6583 1.28821 29.5654 1.14603 29.4557 1.02691C28.8383 1.39108 27.9827 1.77722 26.9057 1.98483L26.3257 3.40145Z" fill="#7CCCF0"/>
<path d="M13.2901 47.3886L13.3048 46.6065C13.4096 41.0202 18.0396 36.5607 23.6259 36.6655L31.5099 36.8135C37.0962 36.9183 41.5557 41.5484 41.4508 47.1346L41.4362 47.9168L33.9836 47.777L33.9983 46.9948C34.026 45.5179 32.8469 44.2937 31.37 44.266L23.4861 44.1181C22.0092 44.0904 20.785 45.2694 20.7573 46.7463L20.7426 47.5285L13.2901 47.3886Z" fill="#38DA7C"/>
<path d="M31.4513 39.8697L23.5671 39.7218C18.7627 39.6316 14.6653 42.9176 13.5463 47.3933L13.2886 47.3885L13.3033 46.6066C13.4081 41.0203 18.0382 36.5609 23.6245 36.6657L31.5086 36.8136C37.0943 36.9184 41.5538 41.5486 41.449 47.1348L41.4343 47.9167L41.1766 47.9118C40.2263 43.3973 36.2551 39.9599 31.4513 39.8697Z" fill="#2BB363"/>
<path d="M32.9978 50.0514L33.0265 48.5248C33.0408 47.7601 33.6723 47.1519 34.437 47.1662L40.8375 47.2863C41.6022 47.3007 42.2104 47.9322 42.1961 48.6968L42.1674 50.2235C42.1531 50.9881 41.5216 51.5963 40.7569 51.582L34.3564 51.4619C33.5917 51.4476 32.9835 50.8161 32.9978 50.0514Z" fill="#F9F6F9"/>
<path d="M12.2639 49.6617L12.2926 48.135C12.3069 47.3704 12.9384 46.7622 13.7031 46.7765L20.1037 46.8966C20.8683 46.9109 21.4765 47.5424 21.4622 48.3071L21.4336 49.8338C21.4192 50.5984 20.7877 51.2066 20.023 51.1923L13.6225 51.0722C12.8578 51.0578 12.2496 50.4263 12.2639 49.6617Z" fill="#F9F6F9"/>
</g>
<defs>
<clipPath id="clip0_6132_58506">
<rect width="54.9238" height="54.9238" fill="white" transform="translate(0.214844 0.582298)"/>
</clipPath>
</defs>
</svg>
