<svg width="55" height="55" viewBox="0 0 55 55" fill="none" xmlns="http://www.w3.org/2000/svg">
<g clip-path="url(#clip0_6132_58690)">
<path d="M54.4238 32.1513C54.4238 43.8264 43.7366 53.2563 27.2119 53.2563C10.6872 53.2563 0 43.8264 0 32.1513C0 20.4763 10.6872 2.96368 27.2119 2.96368C43.7366 2.96368 54.4238 20.4763 54.4238 32.1513Z" fill="#F7910B"/>
<path d="M54.4238 32.1511C54.4238 43.8262 43.7366 49.6637 27.2119 49.6637C10.6872 49.6637 0 43.8262 0 32.1511C0 20.476 10.6872 1.16727 27.2119 1.16727C43.7366 1.16727 54.4238 20.476 54.4238 32.1511Z" fill="#F7910B"/>
<path d="M27.2119 1.16727C43.7366 1.16727 54.4238 20.476 54.4238 32.1511C54.4238 43.8262 43.7366 49.6637 27.2119 49.6637" fill="#F9A908"/>
<path d="M54.4238 32.1513C54.4238 43.8264 43.7366 49.6639 27.2119 49.6639C10.6872 49.6639 0 43.8264 0 32.1513C0 20.4763 10.6872 2.96368 27.2119 2.96368C43.7366 2.96368 54.4238 20.4763 54.4238 32.1513Z" fill="#F9A908"/>
<path d="M0 32.1512C0 20.4761 10.6872 2.96354 27.2119 2.96354L0 32.1512Z" fill="#F9C55D"/>
<path d="M27.2119 2.96354C43.7366 2.96354 54.4238 20.4761 54.4238 32.1512C54.4238 43.8263 43.7366 53.2561 27.2119 53.2561" fill="#F7910B"/>
<path d="M27.2119 2.96354C43.7366 2.96354 54.4238 20.4761 54.4238 32.1512L27.2119 2.96354Z" fill="#EA7103"/>
<path d="M21.4637 10.0586C21.6433 11.2261 20.2962 10.8668 18.6797 11.1363C17.0631 11.4057 15.8956 12.214 15.716 11.0465C15.5364 9.87895 16.7039 8.71144 18.3204 8.53183C19.8472 8.17259 21.2841 8.89106 21.4637 10.0586Z" fill="#19BCA4"/>
<path d="M21.4645 10.0588C21.6441 11.2263 20.297 10.8671 18.6805 11.1365C17.0639 11.406 15.8964 12.2142 15.7168 11.0467" fill="#109DA0"/>
<path d="M32.6908 11.8547C32.4214 12.5731 33.7685 12.663 35.2952 13.2916C36.822 13.8305 37.8997 14.7285 38.1691 14.0101C38.4385 13.2916 37.4506 12.2139 35.9239 11.6751C34.487 11.0464 33.05 11.1362 32.6908 11.8547Z" fill="#19BCA4"/>
<path d="M32.6908 11.8542C32.4214 12.5726 33.7685 12.6624 35.2952 13.2911C36.822 13.83 37.8997 14.728 38.1691 14.0096" fill="#109DA0"/>
<path d="M23.4407 26.1338C23.4407 27.2115 20.2975 26.7624 16.4357 26.7624C12.5739 26.7624 9.43066 27.3013 9.43066 26.1338C9.43066 25.0561 12.5739 24.158 16.4357 24.158C20.2975 24.158 23.4407 25.0561 23.4407 26.1338Z" fill="#F9C55D"/>
<path d="M44.9935 26.1338C44.9935 27.2115 41.8502 26.7624 37.9884 26.7624C34.1267 26.7624 30.9834 27.3013 30.9834 26.1338C30.9834 25.0561 34.1267 24.158 37.9884 24.158C41.8502 24.158 44.9935 25.0561 44.9935 26.1338Z" fill="#F9A908"/>
<path d="M7.72244 29.996C8.02004 29.996 8.26129 29.7547 8.26129 29.4571C8.26129 29.1595 8.02004 28.9183 7.72244 28.9183C7.42485 28.9183 7.18359 29.1595 7.18359 29.4571C7.18359 29.7547 7.42485 29.996 7.72244 29.996Z" fill="#F7910B"/>
<path d="M3.68125 32.2408C4.22685 32.2408 4.66914 31.7985 4.66914 31.2529C4.66914 30.7073 4.22685 30.265 3.68125 30.265C3.13565 30.265 2.69336 30.7073 2.69336 31.2529C2.69336 31.7985 3.13565 32.2408 3.68125 32.2408Z" fill="#F7910B"/>
<path d="M6.37688 27.8404C6.47608 27.8404 6.5565 27.76 6.5565 27.6608C6.5565 27.5616 6.47608 27.4811 6.37688 27.4811C6.27768 27.4811 6.19727 27.5616 6.19727 27.6608C6.19727 27.76 6.27768 27.8404 6.37688 27.8404Z" fill="#F7910B"/>
<path d="M10.5073 29.4571C10.6065 29.4571 10.6869 29.3767 10.6869 29.2775C10.6869 29.1783 10.6065 29.0979 10.5073 29.0979C10.4081 29.0979 10.3276 29.1783 10.3276 29.2775C10.3276 29.3767 10.4081 29.4571 10.5073 29.4571Z" fill="#F7910B"/>
<path d="M45.7126 30.4449C46.1094 30.4449 46.4311 30.1232 46.4311 29.7264C46.4311 29.3296 46.1094 29.008 45.7126 29.008C45.3158 29.008 44.9941 29.3296 44.9941 29.7264C44.9941 30.1232 45.3158 30.4449 45.7126 30.4449Z" fill="#F9A908"/>
<path d="M47.9589 31.1626C48.0581 31.1626 48.1385 31.0821 48.1385 30.9829C48.1385 30.8837 48.0581 30.8033 47.9589 30.8033C47.8597 30.8033 47.7793 30.8837 47.7793 30.9829C47.7793 31.0821 47.8597 31.1626 47.9589 31.1626Z" fill="#F9A908"/>
<path d="M43.1991 23.3497C43.3479 23.3497 43.4685 23.2291 43.4685 23.0803C43.4685 22.9315 43.3479 22.8109 43.1991 22.8109C43.0503 22.8109 42.9297 22.9315 42.9297 23.0803C42.9297 23.2291 43.0503 23.3497 43.1991 23.3497Z" fill="#F9A908"/>
<path d="M42.7495 34.6658C43.3943 34.6658 43.917 34.1431 43.917 33.4983C43.917 32.8535 43.3943 32.3308 42.7495 32.3308C42.1047 32.3308 41.582 32.8535 41.582 33.4983C41.582 34.1431 42.1047 34.6658 42.7495 34.6658Z" fill="#F9A908"/>
<path d="M49.2151 34.1271C49.5127 34.1271 49.754 33.8858 49.754 33.5882C49.754 33.2906 49.5127 33.0494 49.2151 33.0494C48.9175 33.0494 48.6763 33.2906 48.6763 33.5882C48.6763 33.8858 48.9175 34.1271 49.2151 34.1271Z" fill="#F9A908"/>
<path d="M6.82502 33.4992C7.07302 33.4992 7.27406 33.2982 7.27406 33.0502C7.27406 32.8022 7.07302 32.6012 6.82502 32.6012C6.57702 32.6012 6.37598 32.8022 6.37598 33.0502C6.37598 33.2982 6.57702 33.4992 6.82502 33.4992Z" fill="#F7910B"/>
<path d="M7.54331 25.8651C7.74171 25.8651 7.90255 25.7042 7.90255 25.5058C7.90255 25.3074 7.74171 25.1466 7.54331 25.1466C7.34492 25.1466 7.18408 25.3074 7.18408 25.5058C7.18408 25.7042 7.34492 25.8651 7.54331 25.8651Z" fill="#F7910B"/>
<path d="M2.78379 14.0998C3.32938 14.0998 3.77168 13.6575 3.77168 13.1119C3.77168 12.5663 3.32938 12.124 2.78379 12.124C2.23819 12.124 1.7959 12.5663 1.7959 13.1119C1.7959 13.6575 2.23819 14.0998 2.78379 14.0998Z" fill="#F9A908"/>
<path d="M5.6575 10.5071C5.9551 10.5071 6.19635 10.2659 6.19635 9.96827C6.19635 9.67067 5.9551 9.42942 5.6575 9.42942C5.3599 9.42942 5.11865 9.67067 5.11865 9.96827C5.11865 10.2659 5.3599 10.5071 5.6575 10.5071Z" fill="#F9A908"/>
<path d="M51.6396 15.4468C51.7388 15.4468 51.8192 15.3664 51.8192 15.2672C51.8192 15.168 51.7388 15.0876 51.6396 15.0876C51.5404 15.0876 51.46 15.168 51.46 15.2672C51.46 15.3664 51.5404 15.4468 51.6396 15.4468Z" fill="#F9A908"/>
<path d="M50.9216 13.3813C51.3184 13.3813 51.6401 13.0597 51.6401 12.6629C51.6401 12.2661 51.3184 11.9444 50.9216 11.9444C50.5248 11.9444 50.2031 12.2661 50.2031 12.6629C50.2031 13.0597 50.5248 13.3813 50.9216 13.3813Z" fill="#F9A908"/>
<path d="M53.2567 13.561C53.5047 13.561 53.7057 13.36 53.7057 13.112C53.7057 12.864 53.5047 12.663 53.2567 12.663C53.0087 12.663 52.8076 12.864 52.8076 13.112C52.8076 13.36 53.0087 13.561 53.2567 13.561Z" fill="#F9A908"/>
<path d="M3.86111 16.3449C4.15871 16.3449 4.39996 16.1037 4.39996 15.8061C4.39996 15.5085 4.15871 15.2672 3.86111 15.2672C3.56352 15.2672 3.32227 15.5085 3.32227 15.8061C3.32227 16.1037 3.56352 16.3449 3.86111 16.3449Z" fill="#F9A908"/>
<path d="M19.9364 23.6199C19.5772 23.5301 19.2179 23.3505 18.9485 22.9912C17.9606 21.5543 15.895 21.1951 14.4581 22.183C13.7396 22.632 12.8415 22.4524 12.3925 21.8237C11.9435 21.1951 12.1231 20.2072 12.7517 19.7581C15.5358 17.7824 19.3975 18.5008 21.3733 21.3747C21.8224 22.0034 21.6427 22.9912 21.0141 23.4403C20.6549 23.6199 20.2956 23.6199 19.9364 23.6199Z" fill="#1E4784"/>
<path d="M21.3733 21.2841C21.8224 21.9127 21.6427 22.9006 21.0141 23.3496C20.6549 23.6191 20.2956 23.6191 19.9364 23.6191C19.5772 23.5293 19.2179 23.3496 18.9485 22.9904C17.9606 21.5535 15.895 21.1942 14.4581 22.1821C13.7396 22.6312 12.8415 22.4516 12.3925 21.8229C11.9435 21.1942 12.1231 20.2064 12.7517 19.7573" fill="#02243E"/>
<path d="M34.4872 23.6199C34.8464 23.5301 35.2056 23.3505 35.475 22.9912C36.4629 21.5543 38.5285 21.1951 39.9654 22.183C40.6839 22.632 41.582 22.4524 42.031 21.8237C42.4801 21.1951 42.3005 20.2072 41.6718 19.7581C38.8878 17.7824 35.026 18.5008 33.0502 21.3747C32.6012 22.0034 32.7808 22.9912 33.4095 23.4403C33.7687 23.6199 34.1279 23.6199 34.4872 23.6199Z" fill="#1E4784"/>
<path d="M33.0502 21.2841C32.6012 21.9127 32.7808 22.9006 33.4095 23.3496C33.7687 23.6191 34.1279 23.6191 34.4872 23.6191C34.8464 23.5293 35.2056 23.3496 35.475 22.9904C36.4629 21.5535 38.5285 21.1942 39.9654 22.1821C40.6839 22.6312 41.582 22.4516 42.031 21.8229C42.4801 21.1942 42.3005 20.2064 41.6718 19.7573" fill="#02243E"/>
<path d="M14.7291 34.8456C14.7291 32.78 14.6393 31.0736 16.7049 31.0736H37.72C39.7856 31.0736 39.6958 32.78 39.6958 34.8456C39.6958 36.9112 37.9894 38.6175 35.9238 38.6175H18.501C16.4354 38.6175 14.7291 36.9112 14.7291 34.8456Z" fill="#F7910B"/>
<path d="M39.6958 31.4324C39.6958 33.498 39.7856 35.2043 37.72 35.2043H16.7049C14.6393 35.2043 14.7291 33.498 14.7291 31.4324C14.7291 29.3668 16.4354 27.6604 18.501 27.6604H35.9238C37.9894 27.6604 39.6958 29.3668 39.6958 31.4324Z" fill="#D6CFB2"/>
<path d="M39.6958 31.9719C39.6958 33.6783 39.7856 35.1152 37.72 35.1152H16.7049C14.6393 35.1152 14.7291 33.6783 14.7291 31.9719C14.7291 30.2656 16.4354 28.8286 18.501 28.8286H35.9238C37.9894 28.8286 39.6958 30.2656 39.6958 31.9719Z" fill="#FFFCE3"/>
<path d="M37.63 31.9718C37.63 32.1514 37.4504 32.331 37.2707 32.331H17.2435C17.0639 32.331 16.8843 32.1514 16.8843 31.9718C16.8843 31.7922 17.0639 31.6125 17.2435 31.6125H37.1809C37.4504 31.6125 37.63 31.7922 37.63 31.9718Z" fill="#D6CFB2"/>
<path d="M27.3357 44.6874C32.7395 45.559 38.492 43.5544 42.1526 38.8478C45.7261 34.2285 46.3362 28.1274 44.1572 23.0722L50.3454 15.0537C56.4465 23.7695 56.4465 35.7973 49.561 44.6003C42.6755 53.4032 31.0835 56.4538 21.1475 52.706L27.3357 44.6874Z" fill="#D22C1D"/>
<path d="M35.6148 43.729C38.1423 42.7703 40.3213 41.1143 42.1516 38.8482C43.8948 36.5821 44.9407 33.9673 45.2893 31.3526L53.395 20.8936C56.0969 28.6507 54.9638 37.628 49.56 44.6006C44.1562 51.5732 35.7891 54.8853 27.5962 54.188L35.6148 43.729Z" fill="#D5461B"/>
<path d="M49.5615 44.6001C44.1577 51.5728 35.7906 54.8848 27.5977 54.1875L35.6162 43.7286C38.1438 42.7698 40.3228 41.1138 42.1531 38.8477C43.8963 36.5816 44.9421 33.9669 45.2908 31.3521" fill="#C40D0D"/>
<path d="M50.1526 47.3061C49.7194 47.3061 49.3682 46.9549 49.3682 46.5216C49.3682 46.0884 49.7194 45.7372 50.1526 45.7372C50.5858 45.7372 50.937 46.0884 50.937 46.5216C50.937 46.9549 50.5858 47.3061 50.1526 47.3061Z" fill="#E8332D"/>
<path d="M50.676 50.0953C50.2428 50.0953 49.8916 49.7441 49.8916 49.3108C49.8916 48.8776 50.2428 48.5264 50.676 48.5264C51.1093 48.5264 51.4604 48.8776 51.4604 49.3108C51.4604 49.7441 51.1093 50.0953 50.676 50.0953Z" fill="#B12B14"/>
<path d="M49.9783 52.7102C49.545 52.7102 49.1939 52.359 49.1939 51.9257C49.1939 51.4925 49.545 51.1413 49.9783 51.1413C50.4115 51.1413 50.7627 51.4925 50.7627 51.9257C50.7627 52.359 50.4115 52.7102 49.9783 52.7102Z" fill="#E8332D"/>
<path d="M48.2351 54.2791C47.8019 54.2791 47.4507 53.9279 47.4507 53.4947C47.4507 53.0615 47.8019 52.7103 48.2351 52.7103C48.6683 52.7103 49.0195 53.0615 49.0195 53.4947C49.0195 53.9279 48.6683 54.2791 48.2351 54.2791Z" fill="#B12B14"/>
</g>
<defs>
<clipPath id="clip0_6132_58690">
<rect width="54.4238" height="54.4238" fill="white"/>
</clipPath>
</defs>
</svg>
