<svg width="100" height="100" viewBox="0 0 100 100" fill="none" xmlns="http://www.w3.org/2000/svg">
<g clip-path="url(#clip0_19_45)">
<path fill-rule="evenodd" clip-rule="evenodd" d="M43.4703 4.21403C46.0103 -1.40468 53.9893 -1.40468 56.5293 4.21403C58.3928 8.33633 63.5633 9.72163 67.2378 7.08338C72.2473 3.48742 79.1573 7.47703 78.5478 13.613C78.1003 18.1148 81.8853 21.8995 86.3868 21.4522C92.5228 20.8425 96.5123 27.7528 92.9163 32.7618C90.2783 36.4368 91.6633 41.6067 95.7858 43.4702C101.405 46.0102 101.405 53.9897 95.7858 56.5297C92.7086 57.9207 91.1566 61.154 91.6646 64.2326C89.1132 63.1182 86.2955 62.5 83.3333 62.5C79.7094 62.5 76.3015 63.4253 73.3331 65.0525C73.8603 63.1963 74.1398 61.1918 74.1398 59.0522C74.1398 54.0527 70.0868 49.9997 65.0873 49.9997H34.9122C29.9127 49.9997 25.8598 54.0527 25.8598 59.0522C25.8598 65.7877 28.6297 71.1842 33.1751 74.8327C37.6487 78.4232 43.6443 80.1748 49.9998 80.1748C54.8751 80.1748 59.5391 79.1439 63.4665 77.0428C62.8387 79.0275 62.5 81.1409 62.5 83.3333C62.5 86.2956 63.1182 89.1134 64.2327 91.6649C61.1541 91.1567 57.9204 92.7088 56.5293 95.7858C53.9893 101.405 46.0103 101.405 43.4703 95.7858C41.6068 91.6637 36.4368 90.2782 32.7618 92.9167C27.7527 96.5127 20.8425 92.5227 21.4522 86.3867C21.8995 81.8852 18.1147 78.1002 13.613 78.5477C7.47705 79.1572 3.48741 72.2472 7.0834 67.2382C9.72165 63.5632 8.3363 58.3932 4.21406 56.5297C-1.40469 53.9897 -1.40469 46.0102 4.21406 43.4702C8.3363 41.6067 9.72165 36.4368 7.0834 32.7618C3.48741 27.7528 7.47705 20.8425 13.613 21.4522C18.1147 21.8995 21.8995 18.1148 21.4522 13.613C20.8425 7.47703 27.7527 3.48742 32.7618 7.08338C36.4368 9.72163 41.6068 8.33633 43.4703 4.21403ZM49.9998 19.8247C43.3338 19.8247 37.9298 25.2286 37.9298 31.8947C37.9298 38.5608 43.3338 43.9647 49.9998 43.9647C56.6658 43.9647 62.0698 38.5608 62.0698 31.8947C62.0698 25.2286 56.6658 19.8247 49.9998 19.8247Z" fill="white"/>
</g>
<defs>
<clipPath id="clip0_19_45">
<rect width="100" height="100" fill="white"/>
</clipPath>
</defs>
</svg>
