<svg width="24" height="24" viewBox="0 0 24 24" fill="none" xmlns="http://www.w3.org/2000/svg">
<g clip-path="url(#clip0_924_41874)">
<path d="M7.07812 1.40625H3.51562C3.12698 1.40625 2.8125 1.72073 2.8125 2.10938C2.8125 2.49802 3.12698 2.8125 3.51562 2.8125H7.07812C7.46677 2.8125 7.78125 2.49802 7.78125 2.10938C7.78125 1.72073 7.46677 1.40625 7.07812 1.40625ZM14.1094 1.40625H9.89062C9.50198 1.40625 9.1875 1.72073 9.1875 2.10938C9.1875 2.49802 9.50198 2.8125 9.89062 2.8125H14.1094C14.498 2.8125 14.8125 2.49802 14.8125 2.10938C14.8125 1.72073 14.498 1.40625 14.1094 1.40625ZM16.9219 2.8125H20.4844C20.873 2.8125 21.1875 2.49802 21.1875 2.10938C21.1875 1.72073 20.873 1.40625 20.4844 1.40625H16.9219C16.5332 1.40625 16.2188 1.72073 16.2188 2.10938C16.2188 2.49802 16.5332 2.8125 16.9219 2.8125ZM7.07812 21.1875H3.51562C3.12698 21.1875 2.8125 21.502 2.8125 21.8906C2.8125 22.2793 3.12698 22.5938 3.51562 22.5938H7.07812C7.46677 22.5938 7.78125 22.2793 7.78125 21.8906C7.78125 21.502 7.46677 21.1875 7.07812 21.1875ZM14.1094 21.1875H9.89062C9.50198 21.1875 9.1875 21.502 9.1875 21.8906C9.1875 22.2793 9.50198 22.5938 9.89062 22.5938H14.1094C14.498 22.5938 14.8125 22.2793 14.8125 21.8906C14.8125 21.502 14.498 21.1875 14.1094 21.1875ZM20.4844 21.1875H16.9219C16.5332 21.1875 16.2188 21.502 16.2188 21.8906C16.2188 22.2793 16.5332 22.5938 16.9219 22.5938H20.4844C20.873 22.5938 21.1875 22.2793 21.1875 21.8906C21.1875 21.502 20.873 21.1875 20.4844 21.1875ZM2.8125 16.9219C2.8125 16.5332 2.49802 16.2188 2.10938 16.2188C1.72073 16.2188 1.40625 16.5332 1.40625 16.9219V20.4844C1.40625 20.873 1.72073 21.1875 2.10938 21.1875C2.49802 21.1875 2.8125 20.873 2.8125 20.4844V16.9219ZM2.10938 14.8125C2.49802 14.8125 2.8125 14.498 2.8125 14.1094V9.89062C2.8125 9.50198 2.49802 9.1875 2.10938 9.1875C1.72073 9.1875 1.40625 9.50198 1.40625 9.89062V14.1094C1.40625 14.498 1.72073 14.8125 2.10938 14.8125ZM2.10938 7.78125C2.49802 7.78125 2.8125 7.46677 2.8125 7.07812V3.51562C2.8125 3.12698 2.49802 2.8125 2.10938 2.8125C1.72073 2.8125 1.40625 3.12698 1.40625 3.51562V7.07812C1.40625 7.46677 1.72073 7.78125 2.10938 7.78125ZM21.8906 16.2188C21.502 16.2188 21.1875 16.5332 21.1875 16.9219V20.4844C21.1875 20.873 21.502 21.1875 21.8906 21.1875C22.2793 21.1875 22.5938 20.873 22.5938 20.4844V16.9219C22.5938 16.5332 22.2793 16.2188 21.8906 16.2188ZM21.8906 9.1875C21.502 9.1875 21.1875 9.50198 21.1875 9.89062V14.1094C21.1875 14.498 21.502 14.8125 21.8906 14.8125C22.2793 14.8125 22.5938 14.498 22.5938 14.1094V9.89062C22.5938 9.50198 22.2793 9.1875 21.8906 9.1875ZM21.8906 2.8125C21.502 2.8125 21.1875 3.12698 21.1875 3.51562V7.07812C21.1875 7.46677 21.502 7.78125 21.8906 7.78125C22.2793 7.78125 22.5938 7.46677 22.5938 7.07812V3.51562C22.5938 3.12698 22.2793 2.8125 21.8906 2.8125Z" fill="url(#paint0_linear_924_41874)"/>
<path d="M2.10938 0C0.946219 0 0 0.946219 0 2.10938C0 3.27253 0.946219 4.21875 2.10938 4.21875C3.27253 4.21875 4.21875 3.27253 4.21875 2.10938C4.21875 0.946219 3.27253 0 2.10938 0ZM21.8906 4.21875C23.0538 4.21875 24 3.27253 24 2.10938C24 0.946219 23.0538 0 21.8906 0C20.7275 0 19.7812 0.946219 19.7812 2.10938C19.7812 3.27253 20.7275 4.21875 21.8906 4.21875ZM21.8906 19.7812C20.7275 19.7812 19.7812 20.7275 19.7812 21.8906C19.7812 23.0538 20.7275 24 21.8906 24C23.0538 24 24 23.0538 24 21.8906C24 20.7275 23.0538 19.7812 21.8906 19.7812ZM2.10938 19.7812C0.946219 19.7812 0 20.7275 0 21.8906C0 23.0538 0.946219 24 2.10938 24C3.27253 24 4.21875 23.0538 4.21875 21.8906C4.21875 20.7275 3.27253 19.7812 2.10938 19.7812Z" fill="url(#paint1_linear_924_41874)"/>
<path d="M19.0783 16.9688C18.8953 16.9688 18.7155 16.8973 18.581 16.7628L14.8594 13.0412L11.1378 16.7628C10.8632 17.0374 10.418 17.0374 10.1434 16.7628L7.82812 14.4475L5.41903 16.8566C5.21794 17.0577 4.91545 17.1178 4.65277 17.009C4.39003 16.9001 4.21875 16.6438 4.21875 16.3594V4.92188C4.21875 4.53356 4.53356 4.21875 4.92188 4.21875H19.0781C19.4664 4.21875 19.7812 4.53356 19.7812 4.92188V16.2656C19.7812 16.55 19.61 16.8064 19.3472 16.9152C19.2602 16.9513 19.1689 16.9688 19.0783 16.9688Z" fill="url(#paint2_linear_924_41874)"/>
<path d="M19.5753 15.7684L15.3565 11.5496C15.082 11.275 14.6368 11.275 14.3622 11.5496L10.6406 15.2712L8.32528 12.9559C8.05073 12.6813 7.60552 12.6813 7.33092 12.9559L4.42467 15.8621C4.29281 15.994 4.21875 16.1728 4.21875 16.3593V19.0781C4.21875 19.4664 4.53356 19.7812 4.92188 19.7812H19.0781C19.4664 19.7812 19.7812 19.4664 19.7812 19.0781V16.2656C19.7812 16.0791 19.7072 15.9003 19.5753 15.7684ZM10.6408 12.7498C11.8039 12.7498 12.7502 11.8035 12.7502 10.6404C12.7502 9.47727 11.8039 8.53101 10.6408 8.53101C9.4777 8.53101 8.53144 9.47727 8.53144 10.6404C8.53144 11.8035 9.47766 12.7498 10.6408 12.7498Z" fill="url(#paint3_linear_924_41874)"/>
</g>
<defs>
<linearGradient id="paint0_linear_924_41874" x1="12" y1="22.5938" x2="12" y2="1.40625" gradientUnits="userSpaceOnUse">
<stop stop-color="#ADDCFF"/>
<stop offset="0.5028" stop-color="#EAF6FF"/>
<stop offset="1" stop-color="#EAF6FF"/>
</linearGradient>
<linearGradient id="paint1_linear_924_41874" x1="12" y1="24" x2="12" y2="0" gradientUnits="userSpaceOnUse">
<stop stop-color="#5558FF"/>
<stop offset="1" stop-color="#00C0FF"/>
</linearGradient>
<linearGradient id="paint2_linear_924_41874" x1="12" y1="17.0625" x2="12" y2="4.21875" gradientUnits="userSpaceOnUse">
<stop stop-color="#5558FF"/>
<stop offset="1" stop-color="#00C0FF"/>
</linearGradient>
<linearGradient id="paint3_linear_924_41874" x1="12" y1="19.7812" x2="12" y2="8.53101" gradientUnits="userSpaceOnUse">
<stop stop-color="#ADDCFF"/>
<stop offset="0.5028" stop-color="#EAF6FF"/>
<stop offset="1" stop-color="#EAF6FF"/>
</linearGradient>
<clipPath id="clip0_924_41874">
<rect width="24" height="24" fill="white"/>
</clipPath>
</defs>
</svg>
