<svg width="48" height="48" viewBox="0 0 48 48" fill="none" xmlns="http://www.w3.org/2000/svg">
<g clip-path="url(#clip0_1670_30590)">
<g filter="url(#filter0_i_1670_30590)">
<rect width="48" height="48" rx="6" fill="#00AB06"/>
</g>
<rect width="48" height="46" rx="6" fill="#12EC1A"/>
<g filter="url(#filter1_d_1670_30590)">
<path d="M21.2009 26.7991C22.9342 28.5325 24.8885 29.9365 26.9766 30.9902L30.388 27.5787C30.8171 27.1496 31.4515 27.0136 31.985 27.195C33.5859 27.7175 35.2434 27.9883 36.9025 28.0408C37.2956 28.0378 37.6765 28.1985 37.969 28.491C38.2723 28.7944 38.4221 29.1863 38.419 29.5793L38.3766 34.9951C38.3845 35.3772 38.2286 35.7715 37.9204 36.0796C37.6123 36.3878 37.218 36.5437 36.8249 36.5468C30.3405 36.4229 23.9183 33.9184 19 29C14.0816 24.0817 11.5771 17.6596 11.4532 11.1751C11.4563 10.782 11.6123 10.3877 11.9204 10.0796C12.2285 9.77146 12.6228 9.61552 13.0159 9.61243L18.4317 9.56998C18.8248 9.5669 19.2166 9.71668 19.52 10.02C19.8125 10.3125 19.9623 10.7044 19.9702 11.0865C20.0117 12.7566 20.3044 14.4139 20.8269 16.0148C21.0083 16.5484 20.8833 17.1717 20.4431 17.6119L17.0317 21.0233C18.0635 23.1115 19.4676 25.0658 21.2009 26.7991Z" fill="white"/>
</g>
</g>
<defs>
<filter id="filter0_i_1670_30590" x="0" y="0" width="48.5" height="48" filterUnits="userSpaceOnUse" color-interpolation-filters="sRGB">
<feFlood flood-opacity="0" result="BackgroundImageFix"/>
<feBlend mode="normal" in="SourceGraphic" in2="BackgroundImageFix" result="shape"/>
<feColorMatrix in="SourceAlpha" type="matrix" values="0 0 0 0 0 0 0 0 0 0 0 0 0 0 0 0 0 0 127 0" result="hardAlpha"/>
<feOffset dx="0.5"/>
<feGaussianBlur stdDeviation="0.5"/>
<feComposite in2="hardAlpha" operator="arithmetic" k2="-1" k3="1"/>
<feColorMatrix type="matrix" values="0 0 0 0 0 0 0 0 0 0 0 0 0 0 0 0 0 0 0.3 0"/>
<feBlend mode="normal" in2="shape" result="effect1_innerShadow_1670_30590"/>
</filter>
<filter id="filter1_d_1670_30590" x="10.4531" y="9.56995" width="28.9658" height="28.9768" filterUnits="userSpaceOnUse" color-interpolation-filters="sRGB">
<feFlood flood-opacity="0" result="BackgroundImageFix"/>
<feColorMatrix in="SourceAlpha" type="matrix" values="0 0 0 0 0 0 0 0 0 0 0 0 0 0 0 0 0 0 127 0" result="hardAlpha"/>
<feOffset dy="1"/>
<feGaussianBlur stdDeviation="0.5"/>
<feComposite in2="hardAlpha" operator="out"/>
<feColorMatrix type="matrix" values="0 0 0 0 0 0 0 0 0 0 0 0 0 0 0 0 0 0 0.15 0"/>
<feBlend mode="normal" in2="BackgroundImageFix" result="effect1_dropShadow_1670_30590"/>
<feBlend mode="normal" in="SourceGraphic" in2="effect1_dropShadow_1670_30590" result="shape"/>
</filter>
<clipPath id="clip0_1670_30590">
<rect width="48" height="48" fill="white"/>
</clipPath>
</defs>
</svg>
