<svg width="48" height="48" viewBox="0 0 48 48" fill="none" xmlns="http://www.w3.org/2000/svg">
<g clip-path="url(#clip0_1670_12372)">
<g filter="url(#filter0_i_1670_12372)">
<rect width="48" height="48" rx="5" fill="white"/>
</g>
<g filter="url(#filter1_di_1670_12372)">
<rect x="6" y="6" width="36" height="36" rx="3" fill="#FF1313"/>
</g>
<g filter="url(#filter2_di_1670_12372)">
<path d="M24 22.2573C22.1333 22.2573 20.325 22.5395 18.6333 23.07V26.5688C18.6333 27.009 18.365 27.4041 17.98 27.5847C16.8367 28.1377 15.7983 28.8488 14.8767 29.6727C14.6667 29.8758 14.375 29.9887 14.06 29.9887C13.7333 29.9887 13.4417 29.8646 13.2317 29.6614L10.3383 26.8623C10.1283 26.6704 10 26.3883 10 26.0722C10 25.7562 10.1283 25.474 10.3383 25.2709C13.8967 22.009 18.7033 20 24 20C29.2967 20 34.1033 22.009 37.6617 25.2709C37.8717 25.474 38 25.7562 38 26.0722C38 26.3883 37.8717 26.6704 37.6617 26.8736L34.7683 29.6727C34.5583 29.8758 34.2667 30 33.94 30C33.625 30 33.3333 29.8758 33.1233 29.684C32.2017 28.8488 31.1517 28.149 30.0083 27.5959C29.6233 27.4153 29.355 27.0316 29.355 26.5801V23.0813C27.675 22.5395 25.8667 22.2573 24 22.2573Z" fill="white"/>
</g>
</g>
<defs>
<filter id="filter0_i_1670_12372" x="0" y="0" width="48.5" height="48" filterUnits="userSpaceOnUse" color-interpolation-filters="sRGB">
<feFlood flood-opacity="0" result="BackgroundImageFix"/>
<feBlend mode="normal" in="SourceGraphic" in2="BackgroundImageFix" result="shape"/>
<feColorMatrix in="SourceAlpha" type="matrix" values="0 0 0 0 0 0 0 0 0 0 0 0 0 0 0 0 0 0 127 0" result="hardAlpha"/>
<feOffset dx="0.5"/>
<feGaussianBlur stdDeviation="0.5"/>
<feComposite in2="hardAlpha" operator="arithmetic" k2="-1" k3="1"/>
<feColorMatrix type="matrix" values="0 0 0 0 0 0 0 0 0 0 0 0 0 0 0 0 0 0 0.3 0"/>
<feBlend mode="normal" in2="shape" result="effect1_innerShadow_1670_12372"/>
</filter>
<filter id="filter1_di_1670_12372" x="6" y="5" width="38" height="38" filterUnits="userSpaceOnUse" color-interpolation-filters="sRGB">
<feFlood flood-opacity="0" result="BackgroundImageFix"/>
<feColorMatrix in="SourceAlpha" type="matrix" values="0 0 0 0 0 0 0 0 0 0 0 0 0 0 0 0 0 0 127 0" result="hardAlpha"/>
<feOffset dx="1"/>
<feGaussianBlur stdDeviation="0.5"/>
<feComposite in2="hardAlpha" operator="out"/>
<feColorMatrix type="matrix" values="0 0 0 0 0 0 0 0 0 0 0 0 0 0 0 0 0 0 0.15 0"/>
<feBlend mode="normal" in2="BackgroundImageFix" result="effect1_dropShadow_1670_12372"/>
<feBlend mode="normal" in="SourceGraphic" in2="effect1_dropShadow_1670_12372" result="shape"/>
<feColorMatrix in="SourceAlpha" type="matrix" values="0 0 0 0 0 0 0 0 0 0 0 0 0 0 0 0 0 0 127 0" result="hardAlpha"/>
<feOffset dx="0.5"/>
<feGaussianBlur stdDeviation="0.5"/>
<feComposite in2="hardAlpha" operator="arithmetic" k2="-1" k3="1"/>
<feColorMatrix type="matrix" values="0 0 0 0 0 0 0 0 0 0 0 0 0 0 0 0 0 0 0.3 0"/>
<feBlend mode="normal" in2="shape" result="effect2_innerShadow_1670_12372"/>
</filter>
<filter id="filter2_di_1670_12372" x="9" y="20" width="30" height="12" filterUnits="userSpaceOnUse" color-interpolation-filters="sRGB">
<feFlood flood-opacity="0" result="BackgroundImageFix"/>
<feColorMatrix in="SourceAlpha" type="matrix" values="0 0 0 0 0 0 0 0 0 0 0 0 0 0 0 0 0 0 127 0" result="hardAlpha"/>
<feOffset dy="1"/>
<feGaussianBlur stdDeviation="0.5"/>
<feComposite in2="hardAlpha" operator="out"/>
<feColorMatrix type="matrix" values="0 0 0 0 0 0 0 0 0 0 0 0 0 0 0 0 0 0 0.15 0"/>
<feBlend mode="normal" in2="BackgroundImageFix" result="effect1_dropShadow_1670_12372"/>
<feBlend mode="normal" in="SourceGraphic" in2="effect1_dropShadow_1670_12372" result="shape"/>
<feColorMatrix in="SourceAlpha" type="matrix" values="0 0 0 0 0 0 0 0 0 0 0 0 0 0 0 0 0 0 127 0" result="hardAlpha"/>
<feOffset dx="0.5"/>
<feGaussianBlur stdDeviation="0.5"/>
<feComposite in2="hardAlpha" operator="arithmetic" k2="-1" k3="1"/>
<feColorMatrix type="matrix" values="0 0 0 0 0 0 0 0 0 0 0 0 0 0 0 0 0 0 0.3 0"/>
<feBlend mode="normal" in2="shape" result="effect2_innerShadow_1670_12372"/>
</filter>
<clipPath id="clip0_1670_12372">
<rect width="48" height="48" fill="white"/>
</clipPath>
</defs>
</svg>
