<svg width="32" height="32" viewBox="0 0 32 32" fill="none" xmlns="http://www.w3.org/2000/svg">
<path d="M28.455 0.5H24.045C22.14 0.5 21 1.64 21 3.545V7.955C21 9.86 22.14 11 24.045 11H28.455C30.36 11 31.5 9.86 31.5 7.955V3.545C31.5 1.64 30.36 0.5 28.455 0.5ZM25.515 8.855C25.47 8.9 25.365 8.96 25.29 8.96L23.73 9.185C23.685 9.2 23.625 9.2 23.58 9.2C23.355 9.2 23.16 9.125 23.025 8.975C22.845 8.795 22.77 8.54 22.815 8.27L23.04 6.71C23.055 6.635 23.1 6.53 23.145 6.485L25.695 3.935C25.74 4.04 25.785 4.16 25.83 4.28C25.89 4.4 25.95 4.505 26.01 4.61C26.055 4.7 26.115 4.79 26.175 4.85C26.235 4.94 26.295 5.03 26.34 5.075C26.37 5.12 26.385 5.135 26.4 5.15C26.535 5.315 26.685 5.465 26.82 5.57C26.85 5.6 26.88 5.63 26.895 5.63C26.97 5.69 27.06 5.765 27.12 5.81C27.21 5.87 27.285 5.93 27.375 5.975C27.48 6.035 27.6 6.095 27.72 6.155C27.84 6.215 27.96 6.26 28.065 6.29L25.515 8.855ZM29.1 5.27L28.62 5.75C28.59 5.795 28.545 5.81 28.5 5.81C28.485 5.81 28.47 5.81 28.455 5.81C27.375 5.495 26.52 4.64 26.205 3.56C26.19 3.5 26.205 3.44 26.25 3.395L26.745 2.9C27.555 2.09 28.32 2.105 29.115 2.9C29.52 3.305 29.715 3.695 29.715 4.085C29.7 4.475 29.505 4.865 29.1 5.27Z" fill="white"/>
<path d="M10.5002 14.5699C12.4718 14.5699 14.0702 12.9716 14.0702 10.9999C14.0702 9.02827 12.4718 7.42993 10.5002 7.42993C8.52852 7.42993 6.93018 9.02827 6.93018 10.9999C6.93018 12.9716 8.52852 14.5699 10.5002 14.5699Z" fill="white"/>
<path d="M28.455 11H27.75V17.915L27.555 17.75C26.385 16.745 24.495 16.745 23.325 17.75L17.085 23.105C15.915 24.11 14.025 24.11 12.855 23.105L12.345 22.685C11.28 21.755 9.585 21.665 8.385 22.475L2.775 26.24C2.445 25.4 2.25 24.425 2.25 23.285V10.715C2.25 6.485 4.485 4.25 8.715 4.25H21V3.545C21 2.945 21.105 2.435 21.345 2H8.715C3.255 2 0 5.255 0 10.715V23.285C0 24.92 0.285 26.345 0.84 27.545C2.13 30.395 4.89 32 8.715 32H21.285C26.745 32 30 28.745 30 23.285V10.655C29.565 10.895 29.055 11 28.455 11Z" fill="white"/>
</svg>
