<svg width="48" height="48" viewBox="0 0 48 48" fill="none" xmlns="http://www.w3.org/2000/svg">
<g filter="url(#filter0_f_1670_37531)">
<path d="M4.5 24C4.5 13.2305 13.2305 4.5 24 4.5C34.7695 4.5 43.5 13.2305 43.5 24C43.5 34.7695 34.7695 43.5 24 43.5C13.2305 43.5 4.5 34.7695 4.5 24Z" stroke="#12EC1A"/>
</g>
<path d="M5.91748 23.8633C5.91748 13.8009 14.0746 5.6438 24.1369 5.6438C34.1993 5.6438 42.3564 13.8009 42.3564 23.8633C42.3564 33.9256 34.1993 42.0827 24.1369 42.0827C14.0746 42.0827 5.91748 33.9256 5.91748 23.8633Z" fill="url(#paint0_linear_1670_37531)" fill-opacity="0.5"/>
<g filter="url(#filter1_f_1670_37531)">
<path d="M22.7232 25.2768C21.6926 24.2462 20.8395 23.1023 20.1789 21.8949L21.9819 20.0919C22.2088 19.865 22.2642 19.5133 22.1447 19.2077C21.7984 18.2914 21.5915 17.3517 21.5072 16.4182C21.496 16.1976 21.3931 15.9784 21.2192 15.8044C21.0388 15.6241 20.8138 15.527 20.5931 15.5158L17.5532 15.3607C17.3384 15.3436 17.1221 15.4182 16.9592 15.581C16.7964 15.7439 16.7218 15.9602 16.7331 16.1808C17.0169 19.8264 18.6355 23.5156 21.5599 26.4401C24.4844 29.3645 28.1736 30.9832 31.8192 31.2669C32.0399 31.2782 32.2561 31.2036 32.419 31.0408C32.5818 30.8779 32.6564 30.6616 32.6451 30.441L32.4901 27.4011C32.4788 27.1804 32.3818 26.9554 32.2014 26.775C32.0275 26.6011 31.8024 26.504 31.5876 26.487C30.6483 26.4085 29.708 26.1894 28.7917 25.8431C28.4861 25.7236 28.1402 25.7732 27.9075 26.0058L26.1045 27.8089C24.8977 27.1605 23.7539 26.3075 22.7232 25.2768Z" fill="#12EC1A"/>
</g>
<g filter="url(#filter2_d_1670_37531)">
<path d="M16.4838 16.2002L16.4838 16.2002L16.4834 16.1935C16.4688 15.9075 16.566 15.6207 16.7825 15.4043C16.9972 15.1896 17.2841 15.0896 17.5692 15.1112L20.6059 15.2661C20.8909 15.2806 21.1737 15.4054 21.3959 15.6277C21.607 15.8387 21.7405 16.1125 21.7566 16.4002C21.8392 17.3103 22.041 18.2258 22.378 19.118C22.5283 19.5039 22.4641 19.9633 22.1587 20.2686L20.489 21.9383C21.1249 23.0645 21.9326 24.1326 22.9 25.1C23.8675 26.0676 24.9354 26.875 26.0601 27.4997L27.7307 25.8291C28.0429 25.5169 28.497 25.46 28.8813 25.6097C29.7769 25.948 30.694 26.1614 31.6081 26.2378C31.8813 26.2597 32.1619 26.382 32.3782 26.5983C32.6004 26.8205 32.7252 27.1033 32.7397 27.3883L32.8948 30.4283C32.9094 30.7143 32.8122 31.0011 32.5958 31.2175C32.3793 31.434 32.0925 31.5312 31.8065 31.5166L31.8065 31.5167L31.7998 31.5162C28.0943 31.2277 24.3494 29.5831 21.3832 26.6168C18.4169 23.6506 16.7723 19.9057 16.4838 16.2002Z" stroke="white" stroke-width="0.5" shape-rendering="crispEdges"/>
</g>
<path d="M24.1369 5.1438C13.7985 5.1438 5.41748 13.5248 5.41748 23.8633C5.41748 34.2017 13.7985 42.5827 24.1369 42.5827C34.4754 42.5827 42.8564 34.2017 42.8564 23.8633C42.8564 13.5248 34.4754 5.1438 24.1369 5.1438Z" stroke="#12EC1A"/>
<circle opacity="0.7" cx="10" cy="10" r="4" fill="#12EC1A"/>
<circle opacity="0.7" cx="10" cy="22" r="2" fill="#12EC1A"/>
<circle opacity="0.7" cx="26" cy="10" r="2" fill="#12EC1A"/>
<defs>
<filter id="filter0_f_1670_37531" x="2" y="2" width="44" height="44" filterUnits="userSpaceOnUse" color-interpolation-filters="sRGB">
<feFlood flood-opacity="0" result="BackgroundImageFix"/>
<feBlend mode="normal" in="SourceGraphic" in2="BackgroundImageFix" result="shape"/>
<feGaussianBlur stdDeviation="1" result="effect1_foregroundBlur_1670_37531"/>
</filter>
<filter id="filter1_f_1670_37531" x="15.7319" y="14.3583" width="17.9141" height="17.9097" filterUnits="userSpaceOnUse" color-interpolation-filters="sRGB">
<feFlood flood-opacity="0" result="BackgroundImageFix"/>
<feBlend mode="normal" in="SourceGraphic" in2="BackgroundImageFix" result="shape"/>
<feGaussianBlur stdDeviation="0.5" result="effect1_foregroundBlur_1670_37531"/>
</filter>
<filter id="filter2_d_1670_37531" x="15.2319" y="13.8583" width="18.9141" height="18.9097" filterUnits="userSpaceOnUse" color-interpolation-filters="sRGB">
<feFlood flood-opacity="0" result="BackgroundImageFix"/>
<feColorMatrix in="SourceAlpha" type="matrix" values="0 0 0 0 0 0 0 0 0 0 0 0 0 0 0 0 0 0 127 0" result="hardAlpha"/>
<feOffset/>
<feGaussianBlur stdDeviation="0.5"/>
<feComposite in2="hardAlpha" operator="out"/>
<feColorMatrix type="matrix" values="0 0 0 0 0 0 0 0 0 0 0 0 0 0 0 0 0 0 0.15 0"/>
<feBlend mode="normal" in2="BackgroundImageFix" result="effect1_dropShadow_1670_37531"/>
<feBlend mode="normal" in="SourceGraphic" in2="effect1_dropShadow_1670_37531" result="shape"/>
</filter>
<linearGradient id="paint0_linear_1670_37531" x1="24.1369" y1="5.6438" x2="24.1369" y2="42.0827" gradientUnits="userSpaceOnUse">
<stop stop-color="#11EA19"/>
<stop offset="1" stop-color="#01AF07"/>
</linearGradient>
</defs>
</svg>
