<svg width="48" height="48" viewBox="0 0 48 48" fill="none" xmlns="http://www.w3.org/2000/svg">
<g clip-path="url(#clip0_1670_37999)">
<path d="M0 24C0 10.7452 10.7452 0 24 0C37.2548 0 48 10.7452 48 24C48 37.2548 37.2548 48 24 48C10.7452 48 0 37.2548 0 24Z" fill="url(#paint0_linear_1670_37999)"/>
<g filter="url(#filter0_d_1670_37999)">
<path d="M24 20.7086C21.8667 20.7086 19.8 21.0472 17.8667 21.6838V25.8824C17.8667 26.4107 17.56 26.8847 17.12 27.1014C15.8133 27.7651 14.6267 28.6183 13.5733 29.607C13.3333 29.8508 13 29.9863 12.64 29.9863C12.2667 29.9863 11.9333 29.8373 11.6933 29.5935L8.38667 26.2346C8.14667 26.0043 8 25.6657 8 25.2865C8 24.9073 8.14667 24.5687 8.38667 24.3249C12.4533 20.4107 17.9467 17.9998 24 17.9998C30.0533 17.9998 35.5467 20.4107 39.6133 24.3249C39.8533 24.5687 40 24.9073 40 25.2865C40 25.6657 39.8533 26.0043 39.6133 26.2481L36.3067 29.607C36.0667 29.8508 35.7333 29.9998 35.36 29.9998C35 29.9998 34.6667 29.8508 34.4267 29.6206C33.3733 28.6183 32.1733 27.7786 30.8667 27.1149C30.4267 26.8982 30.12 26.4377 30.12 25.896V21.6973C28.2 21.0472 26.1333 20.7086 24 20.7086Z" fill="white"/>
</g>
</g>
<defs>
<filter id="filter0_d_1670_37999" x="5.88517" y="15.885" width="36.2297" height="16.2297" filterUnits="userSpaceOnUse" color-interpolation-filters="sRGB">
<feFlood flood-opacity="0" result="BackgroundImageFix"/>
<feColorMatrix in="SourceAlpha" type="matrix" values="0 0 0 0 0 0 0 0 0 0 0 0 0 0 0 0 0 0 127 0" result="hardAlpha"/>
<feOffset/>
<feGaussianBlur stdDeviation="1.05742"/>
<feComposite in2="hardAlpha" operator="out"/>
<feColorMatrix type="matrix" values="0 0 0 0 0 0 0 0 0 0 0 0 0 0 0 0 0 0 0.15 0"/>
<feBlend mode="normal" in2="BackgroundImageFix" result="effect1_dropShadow_1670_37999"/>
<feBlend mode="normal" in="SourceGraphic" in2="effect1_dropShadow_1670_37999" result="shape"/>
</filter>
<linearGradient id="paint0_linear_1670_37999" x1="24" y1="0" x2="24" y2="48" gradientUnits="userSpaceOnUse">
<stop stop-color="#FF4C13"/>
<stop offset="1" stop-color="#EA0000"/>
</linearGradient>
<clipPath id="clip0_1670_37999">
<rect width="48" height="48" fill="white"/>
</clipPath>
</defs>
</svg>
