<svg width="48" height="48" viewBox="0 0 48 48" fill="none" xmlns="http://www.w3.org/2000/svg">
<g clip-path="url(#clip0_1670_9643)">
<g filter="url(#filter0_i_1670_9643)">
<rect width="48" height="48" rx="6" fill="#D00300"/>
</g>
<rect width="48" height="46" rx="6" fill="#FF1313"/>
<g filter="url(#filter1_d_1670_9643)">
<path d="M20.7387 35.783C20.5549 35.6988 20.3792 35.5987 20.214 35.484L20.2244 35.491L20.1144 35.42C19.9912 35.358 19.8819 35.2732 19.7927 35.1704C19.7036 35.0677 19.6363 34.9489 19.5949 34.821L19.5928 34.814C19.4079 34.1608 19.2288 33.5062 19.0556 32.85L18.9872 32.591C18.872 32.2074 18.7875 31.816 18.7341 31.42L18.729 31.377C18.9073 29.803 19.2485 28.366 19.7411 26.999L19.6976 27.137L11.7207 27.149H11.6927C11.4511 27.1491 11.2122 27.0996 10.9919 27.0039C10.7716 26.9082 10.5749 26.7684 10.4149 26.5939C10.2549 26.4193 10.1351 26.214 10.0636 25.9914C9.99215 25.7689 9.97054 25.5342 10.0002 25.303L9.99919 25.311C9.97655 24.9607 10.0507 24.6109 10.2142 24.2973C10.3776 23.9837 10.6244 23.7175 10.9294 23.526L10.9377 23.521C10.6474 23.11 10.5116 22.6157 10.553 22.12V22.127C10.5166 21.7349 10.6112 21.3418 10.823 21.0052C11.0347 20.6686 11.3525 20.4061 11.73 20.256L11.7424 20.252C11.5112 19.8526 11.4039 19.3975 11.4334 18.941V18.947C11.4104 18.6049 11.4834 18.2632 11.645 17.9578C11.8065 17.6525 12.0505 17.3948 12.3512 17.212L12.3595 17.207C12.1467 16.7488 12.0664 16.2436 12.1272 15.745L12.1261 15.758V15.573C12.141 15.3267 12.2073 15.0858 12.3209 14.8648C12.4346 14.6438 12.5933 14.4471 12.7876 14.2866C12.982 14.1261 13.2079 14.0051 13.4518 13.9307C13.6958 13.8564 13.9528 13.8303 14.2075 13.854L14.2002 13.853H24.9574C25.0103 13.853 25.0663 13.853 25.1233 13.846C25.1972 13.84 25.2712 13.8367 25.3453 13.836H25.3619C25.4697 13.836 25.5734 13.85 25.6719 13.876L25.6636 13.874C25.8565 13.937 26.0245 14.021 26.1749 14.127L26.1697 14.123L26.2734 14.186C26.5161 14.33 26.7525 14.484 26.989 14.637L27.0947 14.709C27.2306 14.803 27.2959 14.845 27.3664 14.842C27.6153 14.837 27.8642 14.835 28.1131 14.832V23.987L28.1266 24.756C27.6589 25.044 27.2275 25.316 27.0968 25.42C26.9382 25.7322 26.7569 26.0333 26.5544 26.321L26.5721 26.295C26.4839 26.429 26.3958 26.56 26.3149 26.695L24.5219 29.585C24.4389 29.721 24.3487 29.856 24.2584 29.992C24.0884 30.252 23.9173 30.512 23.7762 30.782C23.6946 30.9436 23.666 31.1253 23.6943 31.303L23.6933 31.298L23.6995 34.418C23.6691 34.6353 23.5905 34.8437 23.4689 35.0291C23.3474 35.2144 23.1859 35.3723 22.9953 35.492L22.9891 35.496C22.6572 35.7841 22.2364 35.9594 21.7913 35.995H21.6949C21.3598 35.9924 21.0297 35.9165 20.7294 35.773L20.7419 35.779L20.7387 35.783ZM28.7861 25.026V12H36.062C36.2383 12 36.3835 12.13 36.4001 12.295V12.296L37.6632 24.664L37.6653 24.696C37.6653 24.7392 37.6564 24.782 37.6393 24.8219C37.6221 24.8618 37.597 24.8981 37.5653 24.9286C37.5337 24.9592 37.496 24.9834 37.4546 25C37.4132 25.0165 37.3689 25.025 37.3241 25.025L28.7861 25.026ZM32.5444 23.266C32.5444 23.447 32.6968 23.594 32.8845 23.594H35.4885C35.5333 23.594 35.5777 23.5855 35.6191 23.569C35.6605 23.5524 35.6981 23.5282 35.7298 23.4976C35.7615 23.4671 35.7866 23.4308 35.8037 23.3909C35.8209 23.351 35.8297 23.3082 35.8297 23.265C35.8297 23.2218 35.8209 23.179 35.8037 23.1391C35.7866 23.0992 35.7615 23.0629 35.7298 23.0324C35.6981 23.0018 35.6605 22.9776 35.6191 22.961C35.5777 22.9445 35.5333 22.936 35.4885 22.936H32.8856C32.8409 22.9359 32.7967 22.9442 32.7555 22.9606C32.7142 22.977 32.6767 23.001 32.6451 23.0314C32.6135 23.0618 32.5884 23.0979 32.5713 23.1376C32.5542 23.1774 32.5454 23.22 32.5454 23.263L32.5444 23.266ZM30.602 23.266C30.602 23.447 30.7544 23.594 30.9422 23.594H31.7448C31.7896 23.594 31.834 23.5855 31.8754 23.569C31.9168 23.5524 31.9544 23.5282 31.9861 23.4976C32.0178 23.4671 32.0429 23.4308 32.06 23.3909C32.0772 23.351 32.086 23.3082 32.086 23.265C32.086 23.2218 32.0772 23.179 32.06 23.1391C32.0429 23.0992 32.0178 23.0629 31.9861 23.0324C31.9544 23.0018 31.9168 22.9776 31.8754 22.961C31.834 22.9445 31.7896 22.936 31.7448 22.936H30.9422C30.8976 22.936 30.8535 22.9445 30.8124 22.9609C30.7712 22.9773 30.7339 23.0014 30.7024 23.0318C30.6709 23.0621 30.6459 23.0982 30.6289 23.1379C30.6118 23.1775 30.603 23.2201 30.603 23.263L30.602 23.266ZM29.8823 15.266C29.872 15.4425 29.8991 15.6192 29.9621 15.7852C30.025 15.9513 30.1224 16.1032 30.2482 16.2317C30.3741 16.3603 30.5259 16.4627 30.6942 16.5327C30.8626 16.6027 31.0439 16.6389 31.2273 16.6391C31.4106 16.6392 31.5921 16.6033 31.7605 16.5335C31.9289 16.4637 32.0809 16.3615 32.207 16.2332C32.3331 16.1049 32.4307 15.9531 32.4939 15.7871C32.5571 15.6212 32.5845 15.4445 32.5744 15.268C32.5536 14.9378 32.4029 14.6277 32.1532 14.4008C31.9035 14.174 31.5734 14.0475 31.2304 14.0471C30.8873 14.0467 30.5569 14.1725 30.3067 14.3987C30.0564 14.625 29.905 14.9348 29.8833 15.265L29.8823 15.266ZM30.5636 15.266C30.5637 15.182 30.5809 15.0987 30.6144 15.0211C30.6478 14.9435 30.6967 14.873 30.7584 14.8136C30.8201 14.7542 30.8933 14.7071 30.9738 14.675C31.0544 14.6429 31.1407 14.6264 31.2279 14.6265C31.315 14.6266 31.4013 14.6432 31.4818 14.6754C31.5623 14.7076 31.6354 14.7548 31.697 14.8143C31.7586 14.8738 31.8074 14.9444 31.8407 15.022C31.874 15.0997 31.8911 15.183 31.891 15.267C31.8841 15.4322 31.8112 15.5885 31.6874 15.703C31.5637 15.8175 31.3988 15.8813 31.2274 15.8812C31.0559 15.8811 30.8911 15.817 30.7676 15.7023C30.644 15.5876 30.5703 15.4312 30.5636 15.266Z" fill="white"/>
</g>
</g>
<defs>
<filter id="filter0_i_1670_9643" x="0" y="0" width="48.5" height="48" filterUnits="userSpaceOnUse" color-interpolation-filters="sRGB">
<feFlood flood-opacity="0" result="BackgroundImageFix"/>
<feBlend mode="normal" in="SourceGraphic" in2="BackgroundImageFix" result="shape"/>
<feColorMatrix in="SourceAlpha" type="matrix" values="0 0 0 0 0 0 0 0 0 0 0 0 0 0 0 0 0 0 127 0" result="hardAlpha"/>
<feOffset dx="0.5"/>
<feGaussianBlur stdDeviation="0.5"/>
<feComposite in2="hardAlpha" operator="arithmetic" k2="-1" k3="1"/>
<feColorMatrix type="matrix" values="0 0 0 0 0 0 0 0 0 0 0 0 0 0 0 0 0 0 0.3 0"/>
<feBlend mode="normal" in2="shape" result="effect1_innerShadow_1670_9643"/>
</filter>
<filter id="filter1_d_1670_9643" x="8.9873" y="12" width="29.6777" height="25.995" filterUnits="userSpaceOnUse" color-interpolation-filters="sRGB">
<feFlood flood-opacity="0" result="BackgroundImageFix"/>
<feColorMatrix in="SourceAlpha" type="matrix" values="0 0 0 0 0 0 0 0 0 0 0 0 0 0 0 0 0 0 127 0" result="hardAlpha"/>
<feOffset dy="1"/>
<feGaussianBlur stdDeviation="0.5"/>
<feComposite in2="hardAlpha" operator="out"/>
<feColorMatrix type="matrix" values="0 0 0 0 0 0 0 0 0 0 0 0 0 0 0 0 0 0 0.25 0"/>
<feBlend mode="normal" in2="BackgroundImageFix" result="effect1_dropShadow_1670_9643"/>
<feBlend mode="normal" in="SourceGraphic" in2="effect1_dropShadow_1670_9643" result="shape"/>
</filter>
<clipPath id="clip0_1670_9643">
<rect width="48" height="48" fill="white"/>
</clipPath>
</defs>
</svg>
