<svg width="48" height="48" viewBox="0 0 48 48" fill="none" xmlns="http://www.w3.org/2000/svg">
<g clip-path="url(#clip0_1670_29546)">
<g filter="url(#filter0_i_1670_29546)">
<rect x="24" width="33.9411" height="33.9411" rx="2" transform="rotate(45 24 0)" fill="#12EC1A"/>
</g>
<g filter="url(#filter1_d_1670_29546)">
<path d="M21.693 26.307C23.0263 27.6403 24.5296 28.7204 26.1358 29.5309L28.76 26.9067C29.0901 26.5766 29.578 26.472 29.9885 26.6115C31.2199 27.0134 32.4949 27.2218 33.7712 27.2622C34.0735 27.2598 34.3665 27.3835 34.5915 27.6085C34.8249 27.8418 34.9401 28.1433 34.9377 28.4456L34.9051 32.6116C34.9111 32.9055 34.7912 33.2088 34.5542 33.4458C34.3171 33.6829 34.0139 33.8028 33.7115 33.8052C28.7234 33.7099 23.7833 31.7833 20 28C16.2167 24.2167 14.2901 19.2766 14.1949 14.2885C14.1972 13.9862 14.3172 13.6829 14.5542 13.4459C14.7912 13.2088 15.0945 13.0889 15.3969 13.0865L19.5629 13.0539C19.8652 13.0515 20.1667 13.1667 20.4 13.4C20.625 13.625 20.7402 13.9265 20.7463 14.2204C20.7783 15.5051 21.0034 16.78 21.4053 18.0114C21.5449 18.4219 21.4487 18.9013 21.1101 19.2399L18.486 21.8641C19.2796 23.4704 20.3597 24.9737 21.693 26.307Z" fill="white"/>
</g>
</g>
<defs>
<filter id="filter0_i_1670_29546" x="0.828613" y="0.82843" width="46.8428" height="46.3431" filterUnits="userSpaceOnUse" color-interpolation-filters="sRGB">
<feFlood flood-opacity="0" result="BackgroundImageFix"/>
<feBlend mode="normal" in="SourceGraphic" in2="BackgroundImageFix" result="shape"/>
<feColorMatrix in="SourceAlpha" type="matrix" values="0 0 0 0 0 0 0 0 0 0 0 0 0 0 0 0 0 0 127 0" result="hardAlpha"/>
<feOffset dx="0.5"/>
<feGaussianBlur stdDeviation="0.5"/>
<feComposite in2="hardAlpha" operator="arithmetic" k2="-1" k3="1"/>
<feColorMatrix type="matrix" values="0 0 0 0 0 0 0 0 0 0 0 0 0 0 0 0 0 0 0.3 0"/>
<feBlend mode="normal" in2="shape" result="effect1_innerShadow_1670_29546"/>
</filter>
<filter id="filter1_d_1670_29546" x="13.1948" y="13.0538" width="22.7427" height="22.7513" filterUnits="userSpaceOnUse" color-interpolation-filters="sRGB">
<feFlood flood-opacity="0" result="BackgroundImageFix"/>
<feColorMatrix in="SourceAlpha" type="matrix" values="0 0 0 0 0 0 0 0 0 0 0 0 0 0 0 0 0 0 127 0" result="hardAlpha"/>
<feOffset dy="1"/>
<feGaussianBlur stdDeviation="0.5"/>
<feComposite in2="hardAlpha" operator="out"/>
<feColorMatrix type="matrix" values="0 0 0 0 0 0 0 0 0 0 0 0 0 0 0 0 0 0 0.15 0"/>
<feBlend mode="normal" in2="BackgroundImageFix" result="effect1_dropShadow_1670_29546"/>
<feBlend mode="normal" in="SourceGraphic" in2="effect1_dropShadow_1670_29546" result="shape"/>
</filter>
<clipPath id="clip0_1670_29546">
<rect width="48" height="48" fill="white"/>
</clipPath>
</defs>
</svg>
