<svg width="24" height="24" viewBox="0 0 24 24" fill="none" xmlns="http://www.w3.org/2000/svg">
<g clip-path="url(#clip0_924_41847)">
<path d="M11.9999 23.9997C18.6272 23.9997 23.9997 18.6272 23.9997 11.9999C23.9997 5.37252 18.6272 0 11.9999 0C5.37252 0 0 5.37252 0 11.9999C0 18.6272 5.37252 23.9997 11.9999 23.9997Z" fill="#FD9468"/>
<path d="M23.9998 11.9998C23.9998 18.627 18.6269 24 11.9996 24C10.0146 24 8.14251 23.5182 6.49316 22.6646C7.9274 23.2703 9.50441 23.6055 11.1595 23.6055C17.7868 23.6055 23.1591 18.2326 23.1591 11.6054C23.1591 6.96117 20.5212 2.93335 16.6616 0.938721C20.9731 2.75874 23.9998 7.02577 23.9998 11.9998Z" fill="#FE7D43"/>
<path d="M12.0001 21.9765C17.51 21.9765 21.9767 17.5098 21.9767 11.9998C21.9767 6.48989 17.51 2.02319 12.0001 2.02319C6.49013 2.02319 2.02344 6.48989 2.02344 11.9998C2.02344 17.5098 6.49013 21.9765 12.0001 21.9765Z" fill="#F9F3F1"/>
<path d="M21.976 11.9998C21.976 17.5096 17.5093 21.9763 11.9994 21.9763C10.4871 21.9763 9.0533 21.6397 7.76855 21.0374C8.76348 21.3706 9.82876 21.551 10.936 21.551C16.4463 21.551 20.9131 17.0843 20.9131 11.5745C20.9131 7.57701 18.562 4.12883 15.1669 2.53687C19.1239 3.86071 21.976 7.59726 21.976 11.9998Z" fill="#EFE2DD"/>
<path d="M10.6114 6.79622C9.9065 5.70877 8.95287 4.86469 7.63746 5.70408C6.90279 6.17293 6.36767 6.92105 6.07953 7.74357C5.46696 9.49215 5.7581 11.3639 6.58278 12.9905C7.59884 14.9946 9.3507 16.8197 11.3224 17.8965C13.4939 19.0823 15.6428 18.8417 17.4805 17.185C18.2571 16.4849 18.63 15.2696 17.6923 14.5156C16.92 13.8946 15.7449 12.9333 14.7266 13.5983C14.0257 14.056 13.807 14.8242 12.8817 14.888C11.2993 14.9971 9.61793 12.5381 9.41135 11.1665C9.34732 10.7411 9.46315 10.3709 9.71782 10.0317C9.98478 9.67618 10.3054 9.5873 10.6219 9.34055C11.3745 8.75372 11.1834 7.67851 10.6114 6.79622Z" fill="#FD9468"/>
<path d="M17.4806 17.1852C15.6427 18.8417 13.4937 19.0824 11.3225 17.8965C9.35055 16.8196 7.59898 14.9947 6.58287 12.9905C5.96796 11.778 5.64968 10.4296 5.78135 9.09717C5.86962 10.0231 6.15415 10.935 6.58287 11.78C7.59898 13.7842 9.35055 15.6091 11.3225 16.686C13.4937 17.8719 15.6426 17.6312 17.4806 15.9747C17.7627 15.72 17.9913 15.3979 18.1234 15.0545C18.4514 15.7673 18.0906 16.6349 17.4806 17.1852Z" fill="#FE7D43"/>
</g>
<defs>
<clipPath id="clip0_924_41847">
<rect width="24" height="24" fill="white"/>
</clipPath>
</defs>
</svg>
