<svg width="48" height="48" viewBox="0 0 48 48" fill="none" xmlns="http://www.w3.org/2000/svg">
<g clip-path="url(#clip0_1670_9647)">
<g filter="url(#filter0_i_1670_9647)">
<rect width="48" height="48" rx="6" fill="#00AB06"/>
</g>
<rect width="48" height="46" rx="6" fill="#12EC1A"/>
<g filter="url(#filter1_d_1670_9647)">
<path d="M27.2486 12.217C27.4325 12.3012 27.6081 12.4013 27.7733 12.516L27.7629 12.509L27.8729 12.58C27.9961 12.642 28.1054 12.7268 28.1946 12.8296C28.2837 12.9323 28.351 13.0511 28.3924 13.179L28.3945 13.186C28.5795 13.8392 28.7585 14.4938 28.9317 15.15L29.0001 15.409C29.1153 15.7926 29.1999 16.184 29.2532 16.58L29.2583 16.623C29.08 18.197 28.7388 19.634 28.2462 21.001L28.2897 20.863L36.2666 20.851L36.2946 20.851C36.5363 20.8509 36.7751 20.9004 36.9954 20.9961C37.2157 21.0918 37.4124 21.2316 37.5724 21.4061C37.7324 21.5807 37.8522 21.786 37.9237 22.0086C37.9952 22.2311 38.0168 22.4658 37.9871 22.697L37.9881 22.689C38.0108 23.0393 37.9366 23.3891 37.7731 23.7027C37.6097 24.0163 37.3629 24.2825 37.0579 24.474L37.0496 24.479C37.3399 24.89 37.4757 25.3843 37.4343 25.88L37.4343 25.873C37.4707 26.2651 37.3761 26.6582 37.1643 26.9948C36.9526 27.3314 36.6348 27.5939 36.2573 27.744L36.2449 27.748C36.4761 28.1474 36.5834 28.6025 36.5539 29.059L36.5539 29.053C36.577 29.3951 36.5039 29.7368 36.3423 30.0422C36.1808 30.3475 35.9368 30.6052 35.6361 30.788L35.6278 30.793C35.8406 31.2512 35.9209 31.7564 35.8601 32.255L35.8612 32.242L35.8612 32.427C35.8463 32.6733 35.7801 32.9142 35.6664 33.1352C35.5527 33.3562 35.394 33.5529 35.1997 33.7134C35.0053 33.8739 34.7794 33.9949 34.5355 34.0693C34.2915 34.1436 34.0345 34.1697 33.7798 34.146L33.7871 34.147L23.0299 34.147C22.977 34.147 22.921 34.147 22.864 34.154C22.7901 34.16 22.7161 34.1633 22.642 34.164L22.6255 34.164C22.5176 34.164 22.4139 34.15 22.3154 34.124L22.3237 34.126C22.1308 34.063 21.9628 33.979 21.8124 33.873L21.8176 33.877L21.7139 33.814C21.4712 33.67 21.2348 33.516 20.9983 33.363L20.8926 33.291C20.7567 33.197 20.6914 33.155 20.6209 33.158C20.372 33.163 20.1231 33.165 19.8742 33.168L19.8742 24.013L19.8607 23.244C20.3284 22.956 20.7598 22.684 20.8905 22.58C21.0491 22.2678 21.2304 21.9667 21.4329 21.679L21.4152 21.705C21.5034 21.571 21.5915 21.44 21.6724 21.305L23.4655 18.415C23.5484 18.279 23.6386 18.144 23.7289 18.008C23.8989 17.748 24.07 17.488 24.2111 17.218C24.2927 17.0564 24.3213 16.8747 24.293 16.697L24.294 16.702L24.2878 13.582C24.3182 13.3647 24.3969 13.1563 24.5184 12.9709C24.6399 12.7856 24.8014 12.6277 24.992 12.508L24.9982 12.504C25.3302 12.2159 25.7509 12.0406 26.196 12.005L26.2924 12.005C26.6275 12.0076 26.9576 12.0835 27.2579 12.227L27.2455 12.221L27.2486 12.217ZM19.2012 22.974L19.2012 36L11.9253 36C11.749 36 11.6038 35.87 11.5872 35.705L11.5872 35.704L10.3241 23.336L10.322 23.304C10.322 23.2608 10.3309 23.218 10.348 23.1781C10.3652 23.1382 10.3903 23.1019 10.422 23.0714C10.4537 23.0408 10.4913 23.0166 10.5327 23C10.5741 22.9835 10.6184 22.975 10.6632 22.975L19.2012 22.974ZM15.4429 24.734C15.4429 24.553 15.2905 24.406 15.1028 24.406L12.4988 24.406C12.454 24.406 12.4096 24.4145 12.3682 24.431C12.3268 24.4476 12.2892 24.4718 12.2575 24.5024C12.2258 24.5329 12.2007 24.5692 12.1836 24.6091C12.1664 24.649 12.1576 24.6918 12.1576 24.735C12.1576 24.7782 12.1664 24.821 12.1836 24.8609C12.2007 24.9008 12.2258 24.9371 12.2575 24.9676C12.2892 24.9982 12.3268 25.0224 12.3682 25.039C12.4096 25.0555 12.454 25.064 12.4988 25.064L15.1017 25.064C15.1464 25.0641 15.1906 25.0558 15.2318 25.0394C15.2731 25.023 15.3106 24.999 15.3422 24.9686C15.3738 24.9382 15.3989 24.9021 15.416 24.8624C15.4331 24.8226 15.4419 24.78 15.4419 24.737L15.4429 24.734ZM17.3853 24.734C17.3853 24.553 17.2329 24.406 17.0452 24.406L16.2425 24.406C16.1977 24.406 16.1533 24.4145 16.1119 24.431C16.0705 24.4476 16.0329 24.4718 16.0012 24.5024C15.9696 24.5329 15.9444 24.5692 15.9273 24.6091C15.9101 24.649 15.9013 24.6918 15.9013 24.735C15.9013 24.7782 15.9101 24.821 15.9273 24.8609C15.9444 24.9008 15.9696 24.9371 16.0012 24.9676C16.0329 24.9982 16.0705 25.0224 16.1119 25.039C16.1533 25.0555 16.1977 25.064 16.2425 25.064L17.0452 25.064C17.0897 25.064 17.1338 25.0555 17.1749 25.0391C17.2161 25.0227 17.2535 24.9986 17.2849 24.9682C17.3164 24.9379 17.3414 24.9018 17.3585 24.8621C17.3755 24.8225 17.3843 24.7799 17.3843 24.737L17.3853 24.734ZM18.105 32.734C18.1153 32.5575 18.0882 32.3808 18.0253 32.2148C17.9623 32.0487 17.8649 31.8968 17.7391 31.7683C17.6132 31.6397 17.4614 31.5373 17.2931 31.4673C17.1247 31.3973 16.9434 31.3611 16.76 31.3609C16.5767 31.3608 16.3953 31.3967 16.2268 31.4665C16.0584 31.5363 15.9064 31.6385 15.7804 31.7668C15.6543 31.8951 15.5566 32.0469 15.4934 32.2129C15.4303 32.3788 15.4028 32.5555 15.4129 32.732C15.4337 33.0622 15.5844 33.3723 15.8341 33.5992C16.0838 33.826 16.4139 33.9525 16.757 33.9529C17.1 33.9533 17.4304 33.8275 17.6806 33.6013C17.9309 33.375 18.0823 33.0652 18.104 32.735L18.105 32.734ZM17.4237 32.734C17.4236 32.818 17.4064 32.9013 17.373 32.9789C17.3395 33.0565 17.2906 33.127 17.2289 33.1864C17.1672 33.2458 17.094 33.2929 17.0135 33.325C16.9329 33.3571 16.8466 33.3736 16.7595 33.3735C16.6723 33.3734 16.586 33.3568 16.5055 33.3246C16.425 33.2924 16.3519 33.2452 16.2903 33.1857C16.2287 33.1262 16.1799 33.0556 16.1466 32.978C16.1133 32.9003 16.0962 32.817 16.0963 32.733C16.1032 32.5678 16.1761 32.4115 16.2999 32.297C16.4236 32.1825 16.5885 32.1187 16.7599 32.1188C16.9314 32.1189 17.0962 32.183 17.2197 32.2977C17.3433 32.4124 17.417 32.5688 17.4237 32.734Z" fill="white"/>
</g>
</g>
<defs>
<filter id="filter0_i_1670_9647" x="0" y="0" width="48.5" height="48" filterUnits="userSpaceOnUse" color-interpolation-filters="sRGB">
<feFlood flood-opacity="0" result="BackgroundImageFix"/>
<feBlend mode="normal" in="SourceGraphic" in2="BackgroundImageFix" result="shape"/>
<feColorMatrix in="SourceAlpha" type="matrix" values="0 0 0 0 0 0 0 0 0 0 0 0 0 0 0 0 0 0 127 0" result="hardAlpha"/>
<feOffset dx="0.5"/>
<feGaussianBlur stdDeviation="0.5"/>
<feComposite in2="hardAlpha" operator="arithmetic" k2="-1" k3="1"/>
<feColorMatrix type="matrix" values="0 0 0 0 0 0 0 0 0 0 0 0 0 0 0 0 0 0 0.3 0"/>
<feBlend mode="normal" in2="shape" result="effect1_innerShadow_1670_9647"/>
</filter>
<filter id="filter1_d_1670_9647" x="9.32227" y="12.005" width="29.6777" height="25.995" filterUnits="userSpaceOnUse" color-interpolation-filters="sRGB">
<feFlood flood-opacity="0" result="BackgroundImageFix"/>
<feColorMatrix in="SourceAlpha" type="matrix" values="0 0 0 0 0 0 0 0 0 0 0 0 0 0 0 0 0 0 127 0" result="hardAlpha"/>
<feOffset dy="1"/>
<feGaussianBlur stdDeviation="0.5"/>
<feComposite in2="hardAlpha" operator="out"/>
<feColorMatrix type="matrix" values="0 0 0 0 0 0 0 0 0 0 0 0 0 0 0 0 0 0 0.25 0"/>
<feBlend mode="normal" in2="BackgroundImageFix" result="effect1_dropShadow_1670_9647"/>
<feBlend mode="normal" in="SourceGraphic" in2="effect1_dropShadow_1670_9647" result="shape"/>
</filter>
<clipPath id="clip0_1670_9647">
<rect width="48" height="48" fill="white"/>
</clipPath>
</defs>
</svg>
