<svg width="48" height="48" viewBox="0 0 48 48" fill="none" xmlns="http://www.w3.org/2000/svg">
<g clip-path="url(#clip0_1670_12376)">
<g filter="url(#filter0_i_1670_12376)">
<rect width="48" height="48" rx="5" fill="white"/>
</g>
<g filter="url(#filter1_di_1670_12376)">
<rect x="6" y="6" width="36" height="36" rx="3" fill="#12EC1A"/>
</g>
<g filter="url(#filter2_di_1670_12376)">
<path d="M21.1229 27.5045C22.5477 28.9294 24.1542 30.0835 25.8706 30.9496L28.6749 28.1454C29.0277 27.7926 29.5491 27.6808 29.9877 27.8299C31.3037 28.2594 32.6661 28.4821 34.03 28.5252C34.3531 28.5227 34.6662 28.6549 34.9066 28.8953C35.156 29.1446 35.2791 29.4668 35.2766 29.7899L35.2417 34.2418C35.2482 34.5559 35.12 34.88 34.8667 35.1333C34.6134 35.3866 34.2893 35.5148 33.9662 35.5173C28.6358 35.4155 23.3567 33.3567 19.3137 29.3137C15.2707 25.2707 13.212 19.9916 13.1101 14.6612C13.1127 14.3381 13.2409 14.014 13.4941 13.7607C13.7474 13.5074 14.0715 13.3792 14.3947 13.3767L18.8466 13.3418C19.1697 13.3393 19.4918 13.4624 19.7412 13.7117C19.9816 13.9522 20.1047 14.2743 20.1112 14.5884C20.1454 15.9613 20.386 17.3236 20.8154 18.6396C20.9646 19.0782 20.8618 19.5906 20.5 19.9524L17.6957 22.7567C18.5439 24.4732 19.6981 26.0797 21.1229 27.5045Z" fill="white"/>
</g>
</g>
<defs>
<filter id="filter0_i_1670_12376" x="0" y="0" width="48.5" height="48" filterUnits="userSpaceOnUse" color-interpolation-filters="sRGB">
<feFlood flood-opacity="0" result="BackgroundImageFix"/>
<feBlend mode="normal" in="SourceGraphic" in2="BackgroundImageFix" result="shape"/>
<feColorMatrix in="SourceAlpha" type="matrix" values="0 0 0 0 0 0 0 0 0 0 0 0 0 0 0 0 0 0 127 0" result="hardAlpha"/>
<feOffset dx="0.5"/>
<feGaussianBlur stdDeviation="0.5"/>
<feComposite in2="hardAlpha" operator="arithmetic" k2="-1" k3="1"/>
<feColorMatrix type="matrix" values="0 0 0 0 0 0 0 0 0 0 0 0 0 0 0 0 0 0 0.3 0"/>
<feBlend mode="normal" in2="shape" result="effect1_innerShadow_1670_12376"/>
</filter>
<filter id="filter1_di_1670_12376" x="6" y="5" width="38" height="38" filterUnits="userSpaceOnUse" color-interpolation-filters="sRGB">
<feFlood flood-opacity="0" result="BackgroundImageFix"/>
<feColorMatrix in="SourceAlpha" type="matrix" values="0 0 0 0 0 0 0 0 0 0 0 0 0 0 0 0 0 0 127 0" result="hardAlpha"/>
<feOffset dx="1"/>
<feGaussianBlur stdDeviation="0.5"/>
<feComposite in2="hardAlpha" operator="out"/>
<feColorMatrix type="matrix" values="0 0 0 0 0 0 0 0 0 0 0 0 0 0 0 0 0 0 0.15 0"/>
<feBlend mode="normal" in2="BackgroundImageFix" result="effect1_dropShadow_1670_12376"/>
<feBlend mode="normal" in="SourceGraphic" in2="effect1_dropShadow_1670_12376" result="shape"/>
<feColorMatrix in="SourceAlpha" type="matrix" values="0 0 0 0 0 0 0 0 0 0 0 0 0 0 0 0 0 0 127 0" result="hardAlpha"/>
<feOffset dx="0.5"/>
<feGaussianBlur stdDeviation="0.5"/>
<feComposite in2="hardAlpha" operator="arithmetic" k2="-1" k3="1"/>
<feColorMatrix type="matrix" values="0 0 0 0 0 0 0 0 0 0 0 0 0 0 0 0 0 0 0.3 0"/>
<feBlend mode="normal" in2="shape" result="effect2_innerShadow_1670_12376"/>
</filter>
<filter id="filter2_di_1670_12376" x="12.1104" y="13.3417" width="24.1665" height="24.1755" filterUnits="userSpaceOnUse" color-interpolation-filters="sRGB">
<feFlood flood-opacity="0" result="BackgroundImageFix"/>
<feColorMatrix in="SourceAlpha" type="matrix" values="0 0 0 0 0 0 0 0 0 0 0 0 0 0 0 0 0 0 127 0" result="hardAlpha"/>
<feOffset dy="1"/>
<feGaussianBlur stdDeviation="0.5"/>
<feComposite in2="hardAlpha" operator="out"/>
<feColorMatrix type="matrix" values="0 0 0 0 0 0 0 0 0 0 0 0 0 0 0 0 0 0 0.15 0"/>
<feBlend mode="normal" in2="BackgroundImageFix" result="effect1_dropShadow_1670_12376"/>
<feBlend mode="normal" in="SourceGraphic" in2="effect1_dropShadow_1670_12376" result="shape"/>
<feColorMatrix in="SourceAlpha" type="matrix" values="0 0 0 0 0 0 0 0 0 0 0 0 0 0 0 0 0 0 127 0" result="hardAlpha"/>
<feOffset dx="0.5"/>
<feGaussianBlur stdDeviation="0.5"/>
<feComposite in2="hardAlpha" operator="arithmetic" k2="-1" k3="1"/>
<feColorMatrix type="matrix" values="0 0 0 0 0 0 0 0 0 0 0 0 0 0 0 0 0 0 0.3 0"/>
<feBlend mode="normal" in2="shape" result="effect2_innerShadow_1670_12376"/>
</filter>
<clipPath id="clip0_1670_12376">
<rect width="48" height="48" fill="white"/>
</clipPath>
</defs>
</svg>
