<svg width="35" height="35" viewBox="0 0 35 35" fill="none" xmlns="http://www.w3.org/2000/svg">
<path fill-rule="evenodd" clip-rule="evenodd" d="M17.4546 35.0001C26.8686 35.0001 34.5001 27.3686 34.5001 17.9546C34.5001 8.54069 26.8686 0.90918 17.4546 0.90918C8.04069 0.90918 0.40918 8.54069 0.40918 17.9546C0.40918 27.3686 8.04069 35.0001 17.4546 35.0001ZM21.114 9.53658C20.7315 8.88516 20.0324 8.48509 19.2769 8.48509H15.6762C14.9356 8.48509 14.2481 8.86971 13.8605 9.50086L13.0323 10.8496H11.0622C9.36248 10.8496 7.98458 12.2275 7.98458 13.9273V22.9235C7.98458 24.6232 9.36248 26.0012 11.0622 26.0012H23.8463C25.546 26.0012 26.924 24.6232 26.924 22.9235V13.9273C26.924 12.2275 25.546 10.8496 23.8463 10.8496H21.8854L21.114 9.53658ZM13.1929 17.9519C13.1929 15.5984 15.1008 13.6905 17.4543 13.6905C19.8078 13.6905 21.7156 15.5984 21.7156 17.9519C21.7156 20.3053 19.8078 22.2133 17.4543 22.2133C15.1008 22.2133 13.1929 20.3053 13.1929 17.9519ZM20.2952 17.9519C20.2952 16.3829 19.0233 15.111 17.4543 15.111C15.8852 15.111 14.6134 16.3829 14.6134 17.9519C14.6134 19.5209 15.8852 20.7928 17.4543 20.7928C19.0233 20.7928 20.2952 19.5209 20.2952 17.9519Z" fill="white"/>
</svg>
