<svg width="54" height="51" viewBox="0 0 54 51" fill="none" xmlns="http://www.w3.org/2000/svg">
<circle opacity="0.2" cx="25.6763" cy="26.021" r="24.939" fill="#FFC533"/>
<path d="M24.7147 9.7141L20.5575 18.1432L11.2561 19.4993C9.58815 19.7412 8.91967 21.7975 10.1293 22.9753L16.8586 29.5327L15.267 38.7958C14.9805 40.4702 16.744 41.7244 18.221 40.9413L26.5419 36.5676L34.8628 40.9413C36.3398 41.718 38.1033 40.4702 37.8168 38.7958L36.2252 29.5327L42.9544 22.9753C44.1641 21.7975 43.4956 19.7412 41.8276 19.4993L32.5263 18.1432L28.369 9.7141C27.6242 8.21163 25.4659 8.19253 24.7147 9.7141Z" fill="#FFC533"/>
<rect x="36.2715" y="0.104004" width="2.771" height="8.13982" rx="1.3855" fill="#FFC533"/>
<rect x="48.2002" y="3.43115" width="2.85176" height="8.07999" rx="1.42588" transform="rotate(45.3712 48.2002 3.43115)" fill="#FFC533"/>
<rect x="53.8438" y="13.4126" width="2.85176" height="8.07999" rx="1.42588" transform="rotate(86.6589 53.8438 13.4126)" fill="#FFC533"/>
</svg>
