<svg width="54" height="51" viewBox="0 0 54 51" fill="none" xmlns="http://www.w3.org/2000/svg">
<circle opacity="0.2" cx="25.6763" cy="26.021" r="24.939" fill="#FFC533"/>
<path fill-rule="evenodd" clip-rule="evenodd" d="M41.8276 19.4993L32.5263 18.1432L28.369 9.7141C27.6242 8.21163 25.4659 8.19253 24.7147 9.7141L20.5575 18.1432L11.2561 19.4993C9.58815 19.7412 8.91967 21.7975 10.1293 22.9753L16.8586 29.5327L15.267 38.7958C14.9805 40.4702 16.744 41.7244 18.221 40.9413L26.5419 36.5676L34.8628 40.9413C36.3398 41.718 38.1033 40.4702 37.8168 38.7958L36.2252 29.5327L42.9544 22.9753C44.1641 21.7975 43.4956 19.7412 41.8276 19.4993ZM26.6166 10.5829C26.6164 10.5826 26.6163 10.5823 26.6161 10.5821C26.607 10.5638 26.6002 10.5562 26.5983 10.5541C26.5959 10.5516 26.5938 10.5499 26.5908 10.5481C26.5833 10.5437 26.5648 10.5362 26.5378 10.5361C26.5111 10.536 26.4958 10.5432 26.4923 10.5452C26.4912 10.5459 26.4902 10.5466 26.4884 10.5485C26.4869 10.5501 26.4792 10.5585 26.4687 10.5798C26.4687 10.5799 26.4688 10.5797 26.4687 10.5798L21.857 19.9304L11.5369 21.435C11.5155 21.4381 11.5061 21.4424 11.5044 21.4432C11.5022 21.4442 11.5009 21.4451 11.4993 21.4465C11.4948 21.4505 11.4825 21.4642 11.4741 21.4901C11.4657 21.5159 11.4675 21.5344 11.4689 21.5406C11.4694 21.5429 11.47 21.5445 11.4714 21.547C11.4725 21.549 11.4779 21.5584 11.4938 21.5739L18.9606 28.8499L17.195 39.1257C17.1949 39.1258 17.1949 39.1259 17.1949 39.1261C17.191 39.1492 17.1922 39.1604 17.1925 39.1626C17.1928 39.1652 17.1932 39.1664 17.1939 39.1679C17.1957 39.1722 17.2043 39.1874 17.2262 39.2032C17.2484 39.2192 17.2671 39.2234 17.2737 39.224C17.2761 39.2242 17.2773 39.2241 17.2788 39.2238C17.2799 39.2236 17.2883 39.2219 17.3048 39.2132L17.3078 39.2115L26.5419 34.3578L35.7728 39.2099L35.7731 39.2101C35.79 39.219 35.7989 39.2208 35.8007 39.2211C35.803 39.2216 35.8051 39.2217 35.8085 39.2214C35.8169 39.2206 35.8366 39.2159 35.8589 39.1998C35.8809 39.184 35.8889 39.1692 35.8903 39.166C35.8906 39.1653 35.8909 39.1647 35.8911 39.1633C35.8912 39.1629 35.8912 39.1626 35.8913 39.1621C35.8915 39.1603 35.8928 39.1492 35.8888 39.1257L34.1232 28.8499L41.5899 21.5739C41.6059 21.5584 41.6112 21.549 41.6123 21.547C41.6137 21.5445 41.6143 21.5429 41.6148 21.5406C41.6162 21.5344 41.618 21.5159 41.6096 21.4901C41.6012 21.4642 41.589 21.4505 41.5844 21.4465C41.5828 21.4451 41.5816 21.4442 41.5794 21.4432C41.5776 21.4424 41.5683 21.4381 41.5468 21.435L31.2268 19.9304L26.6166 10.5829Z" fill="#D7D7D7"/>
<rect x="36.2715" y="0.104004" width="2.771" height="8.13982" rx="1.3855" fill="#FFC533"/>
<rect x="48.2002" y="3.43115" width="2.85176" height="8.07999" rx="1.42588" transform="rotate(45.3712 48.2002 3.43115)" fill="#FFC533"/>
<rect x="53.8438" y="13.4126" width="2.85176" height="8.07999" rx="1.42588" transform="rotate(86.6589 53.8438 13.4126)" fill="#FFC533"/>
</svg>
