<svg width="32" height="32" viewBox="0 0 32 32" fill="none" xmlns="http://www.w3.org/2000/svg">
<rect width="32" height="32" rx="8" fill="#2C434A"/>
<path d="M6.5798 23.01L6.5598 23.03C6.2898 22.44 6.1198 21.77 6.0498 21.03C6.1198 21.76 6.3098 22.42 6.5798 23.01Z" fill="white"/>
<path d="M13.0001 14.38C14.3146 14.38 15.3801 13.3144 15.3801 12C15.3801 10.6856 14.3146 9.62 13.0001 9.62C11.6857 9.62 10.6201 10.6856 10.6201 12C10.6201 13.3144 11.6857 14.38 13.0001 14.38Z" fill="white"/>
<path d="M20.19 6H11.81C8.17 6 6 8.17 6 11.81V20.19C6 21.28 6.19 22.23 6.56 23.03C7.42 24.93 9.26 26 11.81 26H20.19C23.83 26 26 23.83 26 20.19V17.9V11.81C26 8.17 23.83 6 20.19 6ZM24.37 16.5C23.59 15.83 22.33 15.83 21.55 16.5L17.39 20.07C16.61 20.74 15.35 20.74 14.57 20.07L14.23 19.79C13.52 19.17 12.39 19.11 11.59 19.65L7.85 22.16C7.63 21.6 7.5 20.95 7.5 20.19V11.81C7.5 8.99 8.99 7.5 11.81 7.5H20.19C23.01 7.5 24.5 8.99 24.5 11.81V16.61L24.37 16.5Z" fill="white"/>
</svg>
