<svg width="32" height="32" viewBox="0 0 32 32" fill="none" xmlns="http://www.w3.org/2000/svg">
<rect width="32" height="32" rx="8" fill="#2C434A"/>
<path d="M15.5133 6.04776C15.283 5.96139 15.025 5.99345 14.8228 6.13356C14.6206 6.27367 14.5 6.50402 14.5 6.75V18.8773C13.8152 18.3284 12.946 18 12 18C9.79086 18 8 19.7909 8 22C8 24.2091 9.79086 26 12 26C14.0613 26 15.7584 24.4409 15.9763 22.4376C15.9918 22.3776 16 22.3148 16 22.25V12.8322L22.9867 15.4523C23.217 15.5386 23.475 15.5066 23.6772 15.3664C23.8794 15.2263 24 14.996 24 14.75V11.4825C24 10.1278 23.1596 8.91512 21.8912 8.43944L15.5133 6.04776Z" fill="white"/>
</svg>
