<svg width="21" height="20" viewBox="0 0 21 20" fill="none" xmlns="http://www.w3.org/2000/svg">
<path d="M10.5003 1.66663C5.90866 1.66663 2.16699 5.40829 2.16699 9.99996C2.16699 14.5916 5.90866 18.3333 10.5003 18.3333C15.092 18.3333 18.8337 14.5916 18.8337 9.99996C18.8337 5.40829 15.092 1.66663 10.5003 1.66663ZM12.8253 10.4416L9.88366 13.3833C9.75866 13.5083 9.60033 13.5666 9.44199 13.5666C9.28366 13.5666 9.12533 13.5083 9.00033 13.3833C8.75866 13.1416 8.75866 12.7416 9.00033 12.5L11.5003 9.99996L9.00033 7.49996C8.75866 7.25829 8.75866 6.85829 9.00033 6.61663C9.24199 6.37496 9.64199 6.37496 9.88366 6.61663L12.8253 9.55829C13.0753 9.79996 13.0753 10.2 12.8253 10.4416Z" fill="white"/>
</svg>
