<svg width="24" height="24" viewBox="0 0 24 24" fill="none" xmlns="http://www.w3.org/2000/svg">
<g clip-path="url(#clip0_1952_10134)">
<path d="M23.7723 12.9604C24.0759 12.359 24.0759 11.641 23.7723 11.0396L23.4578 10.4168C23.3893 10.281 23.3654 10.1298 23.3886 9.97949L23.4951 9.29005C23.5981 8.62427 23.3762 7.94134 22.9015 7.46322L22.4101 6.96809C22.3029 6.86013 22.2334 6.72371 22.2091 6.57356L22.0974 5.88491C21.9907 5.22729 21.5768 4.6519 20.9883 4.34133L20.3836 3.98472C20.3719 3.97783 20.36 3.97127 20.3479 3.96508C20.2127 3.89556 20.1045 3.78731 20.0349 3.65202L19.7159 3.03163C19.4151 2.44658 18.8017 2.01393 18.115 1.90255L17.4264 1.79088C17.2763 1.76651 17.1398 1.69703 17.0319 1.58991L16.5367 1.09839C16.0586 0.623788 15.3758 0.402051 14.71 0.504809L14.0205 0.611365C13.8701 0.634616 13.719 0.610661 13.5832 0.542125L12.9604 0.227708C12.359 -0.0758792 11.641 -0.0759262 11.0396 0.227708L10.4168 0.542125C10.2811 0.610614 10.13 0.634523 9.97952 0.611411L9.29007 0.504856C8.62416 0.401863 7.94137 0.623834 7.46325 1.09844L6.96807 1.58987C6.86016 1.69703 6.72374 1.76651 6.57359 1.79088L5.88489 1.90255C5.1983 2.01393 4.58489 2.44653 4.28407 3.03163L3.96506 3.65202C3.89549 3.78727 3.78725 3.89556 3.65196 3.96508L3.03151 4.28413C2.44647 4.58496 2.01382 5.19837 1.90248 5.88495L1.79077 6.57365C1.76644 6.7238 1.69692 6.86017 1.58976 6.96814L1.09837 7.46327C0.62377 7.94139 0.401892 8.62427 0.504791 9.29005L0.611394 9.97954C0.634646 10.1298 0.610691 10.281 0.542107 10.4168L0.227691 11.0396C-0.0758968 11.6409 -0.0758968 12.359 0.227691 12.9604L0.542107 13.5832C0.610644 13.7189 0.634599 13.8701 0.611394 14.0204L0.504791 14.7099C0.401892 15.3757 0.623817 16.0586 1.09837 16.5367L1.58985 17.0319C1.69701 17.1399 1.76654 17.2762 1.79087 17.4264L1.90258 18.115C2.01392 18.8017 2.44656 19.4151 3.03161 19.7159L3.652 20.0349C3.78729 20.1045 3.89554 20.2127 3.96511 20.348L4.28412 20.9685C4.58499 21.5535 5.19839 21.9861 5.88498 22.0975L6.57363 22.2092C6.72379 22.2336 6.8602 22.303 6.96812 22.4102L7.4633 22.9017C7.94151 23.3763 8.62435 23.598 9.29007 23.4952L9.97957 23.3886C10.1298 23.3654 10.2811 23.3894 10.4168 23.4579L11.0396 23.7723C11.3403 23.9241 11.6702 24 12 24C12.3299 24 12.6597 23.9241 12.9604 23.7723L13.5832 23.4579C13.719 23.3894 13.8702 23.3655 14.0205 23.3886L14.7099 23.4952C15.3757 23.598 16.0586 23.3762 16.5367 22.9016L17.0319 22.4101C17.1398 22.303 17.2762 22.2335 17.4264 22.2091L18.115 22.0974C18.7726 21.9907 19.3481 21.5769 19.6586 20.9882L20.0153 20.3836C20.0221 20.3719 20.0287 20.36 20.0349 20.3479C20.1044 20.2127 20.2127 20.1044 20.3479 20.0349L20.9683 19.7159C21.5675 19.4078 21.9896 18.8269 22.0974 18.1619L22.2091 17.4733C22.2335 17.3231 22.3029 17.1867 22.4101 17.0787C22.4176 17.0712 22.9139 16.5242 22.9139 16.5242C23.38 16.0467 23.5972 15.3699 23.4951 14.7099L23.3886 14.0205C23.3653 13.8702 23.3893 13.7189 23.4578 13.5832L23.7723 12.9604Z" fill="url(#paint0_linear_1952_10134)"/>
<path d="M12 3C7.0589 3 3 7.05999 3 12C3 16.9411 7.05999 21 12 21C16.9411 21 21 16.94 21 12C21 7.0589 16.94 3 12 3Z" fill="url(#paint1_linear_1952_10134)"/>
<path d="M12.103 15.3433L6.65663 15.0228L5.01234 8.22514C4.96942 8.04903 5.0408 7.86447 5.18972 7.76643C5.33866 7.66841 5.53193 7.67874 5.67012 7.79215L8.67282 10.2564C8.81847 10.3759 8.86779 10.5808 8.79312 10.7562C8.74725 10.8638 8.72396 10.9784 8.72396 11.0965C8.72396 11.566 9.09631 11.948 9.554 11.948C10.0117 11.948 10.384 11.566 10.384 11.0965C10.384 10.8203 10.2522 10.56 10.0313 10.4002C9.86467 10.2797 9.80891 10.0523 9.90009 9.86521L11.67 6.23388C11.7399 6.09054 11.8827 6 12.0389 6C12.1952 6 12.3379 6.09054 12.4078 6.23388L14.1778 9.86521C14.269 10.0523 14.2132 10.2796 14.0466 10.4002C13.8257 10.56 13.6938 10.8203 13.6938 11.0965C13.6938 11.566 14.0662 11.948 14.5239 11.948C14.9816 11.948 15.3539 11.566 15.3539 11.0965C15.3539 10.9784 15.3306 10.8638 15.2847 10.7562C15.21 10.5808 15.2594 10.3759 15.405 10.2564L18.4077 7.79215C18.5459 7.67877 18.7392 7.66841 18.8881 7.76643C19.037 7.86447 19.1084 8.04903 19.0655 8.22514L17.4212 15.0228L12.103 15.3433Z" fill="#FFB600"/>
<path d="M12.0642 15.1079H17.4006L19.0266 8.16907C19.0695 7.99739 18.9981 7.81748 18.8492 7.72191C18.7003 7.62636 18.507 7.63645 18.3688 7.74698L15.3661 10.1491C15.2204 10.2657 15.1711 10.4654 15.2458 10.6363C15.2917 10.7413 15.3149 10.8529 15.3149 10.9681C15.3149 11.4258 14.9426 11.7981 14.4849 11.7981C14.0273 11.7981 13.6549 11.4258 13.6549 10.9681C13.6549 10.6988 13.7868 10.4451 14.0076 10.2893C14.1743 10.1718 14.23 9.9502 14.1388 9.76782L12.3689 6.22799C12.299 6.08826 12.1562 6 12 6V15.1042L12.0642 15.1079Z" fill="#FE8700"/>
<path d="M12 11L10.1904 12.8095L12 14.6191L13.8095 12.8095L12 11Z" fill="#FF4B00"/>
<path d="M13.8095 12.8095L12 14.6191V11L13.8095 12.8095Z" fill="#CC1E0D"/>
<path d="M6.65674 15.0305V16.5871C6.65674 16.8149 6.8414 16.9995 7.06917 16.9995H12.039L12.9005 16.015L12.039 15.0305H6.65674Z" fill="#FE8700"/>
<path d="M12.0391 16.9995H17.0089C17.2367 16.9995 17.4213 16.8149 17.4213 16.5871V15.0305H12.0391V16.9995Z" fill="#FD5900"/>
<path d="M8.55407 7L9.10814 7.55407L8.55407 8.10814L8 7.55407L8.55407 7Z" fill="#CC1E0D"/>
<path d="M15.5541 7L16.1081 7.55407L15.5541 8.10814L15 7.55407L15.5541 7Z" fill="#CC1E0D"/>
</g>
<defs>
<linearGradient id="paint0_linear_1952_10134" x1="12" y1="24" x2="12" y2="1.71661e-05" gradientUnits="userSpaceOnUse">
<stop stop-color="#FD5900"/>
<stop offset="1" stop-color="#FFB800"/>
</linearGradient>
<linearGradient id="paint1_linear_1952_10134" x1="12" y1="21" x2="12" y2="3" gradientUnits="userSpaceOnUse">
<stop stop-color="#FFE59A"/>
<stop offset="1" stop-color="#FFFFD5"/>
</linearGradient>
<clipPath id="clip0_1952_10134">
<rect width="24" height="24" fill="white"/>
</clipPath>
</defs>
</svg>
