<svg width="44" height="44" viewBox="0 0 44 44" fill="none" xmlns="http://www.w3.org/2000/svg">
<rect width="44" height="44" rx="12" fill="url(#paint0_linear_1788_11713)"/>
<path d="M20.76 23.24L12.4351 19.577C11.8557 19.3221 11.8635 18.5163 12.4077 18.2557L12.4981 18.2193L31.0399 12.0386C31.5739 11.8607 32.0834 12.3257 31.9885 12.8537L31.9613 12.96L25.7807 31.5019C25.5806 32.1025 24.7776 32.1693 24.4677 31.6515L24.423 31.5649L20.76 23.24ZM14.7503 19.0041L21.1493 21.8198L25.7012 17.2688C25.9619 17.008 26.3712 16.9862 26.6566 17.2036L26.7313 17.2688C26.992 17.5295 27.0137 17.9388 26.7964 18.2243L26.7313 18.2989L22.1794 22.8499L24.9959 29.2497L30.1187 13.8814L14.7503 19.0041Z" fill="white"/>
<defs>
<linearGradient id="paint0_linear_1788_11713" x1="22" y1="0" x2="22" y2="44" gradientUnits="userSpaceOnUse">
<stop stop-color="#9AF354"/>
<stop offset="1" stop-color="#028F43"/>
</linearGradient>
</defs>
</svg>
