<svg width="35" height="34" viewBox="0 0 35 34" fill="none" xmlns="http://www.w3.org/2000/svg">
<path fill-rule="evenodd" clip-rule="evenodd" d="M32.3071 11.4993L23.0058 10.1432L18.8485 1.7141C18.1037 0.211634 15.9454 0.192535 15.1942 1.7141L11.0369 10.1432L1.73563 11.4993C0.067638 11.7412 -0.600834 13.7975 0.608782 14.9753L7.33807 21.5327L5.74647 30.7958C5.45998 32.4702 7.22347 33.7244 8.70048 32.9413L17.0214 28.5676L25.3422 32.9413C26.8193 33.718 28.5827 32.4702 28.2963 30.7958L26.7047 21.5327L33.4339 14.9753C34.6436 13.7975 33.9751 11.7412 32.3071 11.4993ZM17.0961 2.58291C17.0959 2.58263 17.0958 2.58235 17.0956 2.58207C17.0865 2.56383 17.0797 2.55618 17.0777 2.55412C17.0754 2.55165 17.0733 2.54995 17.0703 2.54815C17.0628 2.54366 17.0443 2.53617 17.0173 2.53608C16.9906 2.53599 16.9753 2.54318 16.9718 2.54525C16.9707 2.54593 16.9697 2.54657 16.9679 2.54851C16.9664 2.55011 16.9587 2.55854 16.9482 2.57976C16.9482 2.57985 16.9483 2.57967 16.9482 2.57976L12.3364 11.9304L2.01639 13.435C1.99498 13.4381 1.98561 13.4424 1.98387 13.4432C1.98167 13.4442 1.98043 13.4451 1.97878 13.4465C1.97427 13.4505 1.96198 13.4642 1.95359 13.4901C1.94521 13.5159 1.94703 13.5344 1.94841 13.5406C1.94893 13.5429 1.94953 13.5445 1.95089 13.547C1.95201 13.549 1.95737 13.5584 1.97332 13.5739L9.44005 20.8499L7.67445 31.1257C7.67443 31.1258 7.67441 31.1259 7.67439 31.1261C7.67046 31.1492 7.67173 31.1604 7.672 31.1626C7.67232 31.1652 7.67273 31.1664 7.67336 31.1679C7.67522 31.1722 7.68379 31.1874 7.70574 31.2032C7.72791 31.2192 7.74661 31.2234 7.75322 31.224C7.7556 31.2242 7.75679 31.2241 7.75828 31.2238C7.7594 31.2236 7.76777 31.2219 7.78426 31.2132L7.78733 31.2115L17.0214 26.3578L26.2523 31.2099L26.2526 31.2101C26.2695 31.219 26.2784 31.2208 26.2802 31.2211C26.2825 31.2216 26.2846 31.2217 26.2879 31.2214C26.2964 31.2206 26.3161 31.2159 26.3384 31.1998C26.3604 31.184 26.3684 31.1692 26.3698 31.166C26.3701 31.1653 26.3704 31.1647 26.3706 31.1633C26.3706 31.1629 26.3707 31.1626 26.3708 31.1621C26.371 31.1603 26.3723 31.1492 26.3683 31.1257L24.6027 20.8499L32.0694 13.5739C32.0854 13.5584 32.0907 13.549 32.0918 13.547C32.0932 13.5445 32.0938 13.5429 32.0943 13.5406C32.0957 13.5344 32.0975 13.5159 32.0891 13.4901C32.0807 13.4642 32.0685 13.4505 32.0639 13.4465C32.0623 13.4451 32.0611 13.4442 32.0589 13.4432C32.0571 13.4424 32.0477 13.4381 32.0263 13.435L21.7063 11.9304L17.0961 2.58291Z" fill="#D7D7D7"/>
</svg>
