<svg width="47" height="58" viewBox="0 0 47 58" fill="none" xmlns="http://www.w3.org/2000/svg">
<path d="M1.66699 57V6C1.66699 3.23858 3.90557 1 6.66699 1H40.667C43.4284 1 45.667 3.23858 45.667 6V57" stroke="white" stroke-width="1.5" stroke-linecap="round" stroke-linejoin="round"/>
<path d="M26.667 1C26.667 1.39397 26.5894 1.78407 26.4386 2.14805C26.2879 2.51203 26.0669 2.84274 25.7883 3.12132C25.5097 3.3999 25.179 3.62087 24.815 3.77164C24.4511 3.9224 24.061 4 23.667 4C23.273 4 22.8829 3.9224 22.5189 3.77164C22.155 3.62087 21.8242 3.3999 21.5457 3.12132C21.2671 2.84274 21.0461 2.51203 20.8954 2.14805C20.7446 1.78407 20.667 1.39397 20.667 1L26.667 1Z" fill="white"/>
</svg>
