<svg width="86" height="87" viewBox="0 0 86 87" fill="none" xmlns="http://www.w3.org/2000/svg">
<path opacity="0.3" d="M69.7996 86.8249H16.2004C7.29008 86.8249 0 79.7339 0 71.0667V15.7582C0 7.09107 7.29008 0 16.2004 0H69.7996C78.7099 0 86 7.09107 86 15.7582V71.069C86 79.7339 78.7099 86.8249 69.7996 86.8249Z" fill="white"/>
<path d="M62.9425 75.7177H23.0558C16.425 75.7177 11 70.4408 11 63.991V22.8322C11 16.3824 16.425 11.1055 23.0558 11.1055H62.9425C69.5733 11.1055 74.9983 16.3824 74.9983 22.8322V63.9927C74.9983 70.4408 69.5733 75.7177 62.9425 75.7177Z" fill="#FFC533"/>
<path opacity="0.05" d="M68.8504 12.6284V53.4608C68.8504 59.9106 63.4254 65.1875 56.7946 65.1875H16.9079C14.7645 65.1875 12.7509 64.6288 11.002 63.6647V63.9928C11.002 70.4426 16.427 75.7195 23.0577 75.7195H62.9445C69.5752 75.7195 75.0003 70.4426 75.0003 63.9928V22.8323C74.9985 18.4674 72.5109 14.6477 68.8504 12.6284Z" fill="black"/>
<path opacity="0.27" d="M16.9336 41.2208C16.9163 37.8049 17.0166 34.3907 17.1809 30.9799C17.3263 27.9561 16.9785 24.2794 18.2639 21.4794C19.4177 18.962 21.9711 17.2591 24.6732 16.4313C27.3754 15.6034 30.2522 15.5327 33.0858 15.4688C36.1028 15.4015 48.4942 15.5411 50.5718 15.9584C51.6651 16.1772 51.2344 18.0753 50.6099 18.9755C49.9871 19.8757 48.9543 20.426 47.9129 20.813C43.2923 22.5327 37.7151 21.7654 33.7189 24.6024C29.19 27.8181 27.4809 34.8046 26.7422 39.9066C26.4879 41.6684 26.5848 44.3035 25.4569 45.7843C24.3601 47.2246 22.2652 46.9655 20.71 46.5566C19.0683 46.1242 17.6878 45.0927 17.2138 43.4537C17.0045 42.7268 16.9405 41.9763 16.9336 41.2208Z" fill="white"/>
<path d="M60.3395 48.898C64.3493 47.717 66.6156 43.5978 65.4015 39.6975C64.1874 35.7973 59.9526 33.5928 55.9429 34.7738C51.9331 35.9547 49.6668 40.0739 50.8809 43.9742C52.0951 47.8745 56.3298 50.0789 60.3395 48.898Z" fill="#381737"/>
<path d="M61.5862 41.2783C60.7888 41.3338 60.0881 41.8134 59.5536 42.441C59.5155 42.4848 59.4792 42.5302 59.4429 42.5757C59.41 42.5285 59.3754 42.4798 59.3408 42.4343C58.8512 41.773 58.1818 41.2497 57.3912 41.1437C56.2166 40.9872 55.4277 42.0574 55.5679 43.2824C55.6924 44.3795 56.3117 45.3454 56.9777 46.1363C57.578 46.848 58.5935 47.654 59.2578 48.0259C59.9463 47.6961 61.0136 46.9574 61.6606 46.286C62.3803 45.5389 63.0619 44.6151 63.2608 43.5281C63.484 42.3148 62.7678 41.1975 61.5862 41.2783Z" fill="white"/>
<path d="M56.5609 36.8995C56.118 36.9298 55.7288 37.1973 55.4312 37.5457C55.4105 37.5709 55.3897 37.5945 55.3707 37.6214C55.3516 37.5945 55.3343 37.5692 55.3136 37.5423C55.042 37.1755 54.6701 36.8844 54.2307 36.8255C53.5785 36.738 53.1391 37.3336 53.2169 38.0134C53.2861 38.6226 53.6304 39.1594 54.0006 39.5985C54.3345 39.994 54.8984 40.4416 55.2669 40.6486C55.6492 40.4651 56.2425 40.0562 56.6024 39.6827C57.002 39.2671 57.3808 38.7538 57.4915 38.1514C57.6144 37.475 57.2165 36.8541 56.5609 36.8995Z" fill="white"/>
<path d="M30.0642 48.8984C34.0739 47.7175 36.3402 43.5983 35.1261 39.698C33.912 35.7977 29.6772 33.5933 25.6675 34.7743C21.6578 35.9552 19.3915 40.0744 20.6056 43.9747C21.8197 47.875 26.0544 50.0794 30.0642 48.8984Z" fill="#381737"/>
<path d="M31.3108 41.2778C30.5134 41.3333 29.8127 41.8129 29.2782 42.4406C29.2401 42.4843 29.2038 42.5297 29.1675 42.5752C29.1346 42.5281 29.1 42.4793 29.0654 42.4338C28.5759 41.7725 27.9064 41.2492 27.1158 41.1432C25.9412 40.9867 25.1523 42.0569 25.2925 43.2819C25.417 44.379 26.0363 45.3449 26.7023 46.1358C27.3026 46.8475 28.3181 47.6536 28.9824 48.0254C29.6709 47.6956 30.7382 46.9569 31.3852 46.2855C32.1049 45.5384 32.7865 44.6146 32.9854 43.5276C33.2086 42.3144 32.4924 41.197 31.3108 41.2778Z" fill="white"/>
<path d="M26.2852 36.8995C25.8424 36.9298 25.4531 37.1973 25.1556 37.5457C25.1348 37.5709 25.1141 37.5945 25.0933 37.6214C25.0743 37.5945 25.057 37.5692 25.0362 37.5423C24.7646 37.1755 24.3927 36.8844 23.9533 36.8255C23.3011 36.738 22.8617 37.3336 22.9396 38.0134C23.0088 38.6226 23.353 39.1594 23.7232 39.5985C24.0571 39.994 24.6211 40.4416 24.9895 40.6485C25.3718 40.4651 25.9652 40.0562 26.325 39.6827C26.7246 39.2671 27.1035 38.7538 27.2142 38.1514C27.3405 37.475 26.9426 36.8541 26.2852 36.8995Z" fill="white"/>
<path fill-rule="evenodd" clip-rule="evenodd" d="M37.7318 47.8501C38.0885 47.8501 38.3776 48.1314 38.3776 48.4783V50.0685C38.3776 51.1299 39.2735 52.0013 40.3647 52.0013C41.456 52.0013 42.3518 51.1299 42.3518 50.0685V49.5552C42.3518 49.2083 42.6409 48.927 42.9976 48.927C43.3543 48.927 43.6435 49.2083 43.6435 49.5552V50.0685C43.6435 51.8238 42.1693 53.2577 40.3647 53.2577C38.5601 53.2577 37.0859 51.8238 37.0859 50.0685V48.4783C37.0859 48.1314 37.3751 47.8501 37.7318 47.8501Z" fill="#381737"/>
<path fill-rule="evenodd" clip-rule="evenodd" d="M48.2652 47.8501C48.6219 47.8501 48.9111 48.1314 48.9111 48.4783V50.0685C48.9111 51.8238 47.4369 53.2577 45.6323 53.2577C43.8277 53.2577 42.3535 51.8238 42.3535 50.0685V49.5552C42.3535 49.2083 42.6427 48.927 42.9994 48.927C43.356 48.927 43.6452 49.2083 43.6452 49.5552V50.0685C43.6452 51.1299 44.541 52.0013 45.6323 52.0013C46.7235 52.0013 47.6194 51.1299 47.6194 50.0685V48.4783C47.6194 48.1314 47.9085 47.8501 48.2652 47.8501Z" fill="#381737"/>
</svg>
