<svg width="86" height="87" viewBox="0 0 86 87" fill="none" xmlns="http://www.w3.org/2000/svg">
<path opacity="0.3" d="M69.7996 86.6056H16.2004C7.29008 86.6056 0 79.5325 0 70.8872V15.7184C0 7.07316 7.29008 0 16.2004 0H69.7996C78.7099 0 86 7.07316 86 15.7184V70.8895C86 79.5325 78.7099 86.6056 69.7996 86.6056Z" fill="white"/>
<path d="M62.9439 75.5266H23.0561C16.4252 75.5266 11 70.263 11 63.8295V22.7747C11 16.3412 16.4252 11.0776 23.0561 11.0776H62.9439C69.5748 11.0776 75 16.3412 75 22.7747V63.8312C75 70.263 69.5748 75.5266 62.9439 75.5266Z" fill="#FFC533"/>
<path opacity="0.05" d="M68.8517 12.5967V53.3259C68.8517 59.7594 63.4265 65.023 56.7956 65.023H16.9061C14.7627 65.023 12.749 64.4657 11 63.504V63.8313C11 70.2648 16.4252 75.5284 23.0561 75.5284H62.9439C69.5748 75.5284 75 70.2648 75 63.8313V22.7748C75 18.4209 72.5123 14.6108 68.8517 12.5967Z" fill="black"/>
<path opacity="0.27" d="M15.1429 41.1166C15.1239 37.7094 15.2259 34.3038 15.3903 30.9016C15.5356 27.8854 15.1879 24.218 16.4732 21.4251C17.6271 18.9141 20.1806 17.2155 22.8828 16.3897C25.585 15.5639 28.4619 15.4934 31.2956 15.4297C34.3126 15.3625 46.7043 15.5018 48.782 15.9181C49.8754 16.1363 49.4446 18.0296 48.8201 18.9275C48.1973 19.8255 47.1645 20.3744 46.1231 20.7604C41.5024 22.4758 35.9249 21.7104 31.9287 24.5403C27.3997 27.7478 25.6905 34.7167 24.9518 39.8057C24.6975 41.5631 24.7944 44.1915 23.6664 45.6686C22.5696 47.1053 20.4746 46.8468 18.9194 46.439C17.2777 46.0076 15.8972 44.9787 15.4232 43.3439C15.2156 42.6188 15.1515 41.8702 15.1429 41.1166Z" fill="white"/>
<path d="M32.7341 46.5419C32.6407 46.5419 32.549 46.5234 32.4607 46.4831L26.1619 43.6314L19.8632 46.4831C19.7749 46.5234 19.6815 46.5419 19.5898 46.5419C19.4393 46.5419 19.2905 46.4915 19.1712 46.3925C18.9791 46.233 18.8996 45.9796 18.9688 45.7446L20.7247 39.771L16.2389 34.8481C16.0728 34.6669 16.0313 34.4084 16.1299 34.1851C16.2285 33.9619 16.4517 33.8159 16.7025 33.8075L22.837 33.6161L25.5824 28.2183C25.6914 28.0051 25.9163 27.8691 26.1619 27.8691C26.4076 27.8691 26.6325 28.0051 26.7415 28.2183L29.4869 33.6161L35.6214 33.8075C35.8722 33.8159 36.0937 33.9619 36.194 34.1851C36.2926 34.4084 36.2511 34.6669 36.085 34.8481L31.5992 39.771L33.3551 45.7446C33.4243 45.9796 33.3448 46.2347 33.1527 46.3925C33.0351 46.4915 32.8846 46.5419 32.7341 46.5419Z" fill="#FFC533"/>
<path d="M26.1617 28.4948L29.0784 34.2284L35.6004 34.4315L30.881 39.6128L32.7338 45.9154L26.1617 42.9395L19.5896 45.9154L21.4424 39.6128L16.723 34.4331L23.245 34.2301L26.1617 28.4948ZM26.1617 27.2427C25.6704 27.2427 25.2206 27.5129 25.0026 27.9409L22.4284 33.0014L16.6798 33.181C16.1798 33.1961 15.7335 33.4915 15.5345 33.9363C15.3356 34.3828 15.4221 34.8997 15.7525 35.2623L20.003 39.9284L18.344 45.5713C18.2056 46.043 18.363 46.5499 18.7488 46.8688C18.9875 47.0668 19.2851 47.1675 19.5861 47.1675C19.7712 47.1675 19.958 47.1289 20.1328 47.05L26.1582 44.3209L32.1837 47.05C32.3584 47.1289 32.5453 47.1675 32.7304 47.1675C33.0314 47.1675 33.3307 47.0651 33.5694 46.8688C33.9552 46.5499 34.1126 46.043 33.9742 45.5713L32.3152 39.9284L36.5657 35.2623C36.8979 34.8981 36.9826 34.3811 36.7837 33.9363C36.5847 33.4899 36.1401 33.1961 35.6384 33.181L29.8898 33.0014L27.3156 27.9409C27.1028 27.5129 26.6547 27.2427 26.1617 27.2427Z" fill="#381737"/>
<path d="M66.4108 46.5419C66.3174 46.5419 66.2257 46.5234 66.1375 46.4831L59.8387 43.6314L53.5399 46.4831C53.4517 46.5234 53.36 46.5419 53.2666 46.5419C53.1161 46.5419 52.9673 46.4915 52.8479 46.3925C52.6559 46.233 52.5763 45.9796 52.6455 45.7446L54.4014 39.771L49.9156 34.8481C49.7496 34.6669 49.708 34.4084 49.8066 34.1851C49.9053 33.9619 50.1284 33.8159 50.3793 33.8075L56.5137 33.6161L59.2592 28.2183C59.3682 28.0051 59.5913 27.8691 59.8387 27.8691C60.0844 27.8691 60.3093 28.0051 60.4182 28.2183L63.1637 33.6161L69.2981 33.8075C69.549 33.8159 69.7704 33.9619 69.8708 34.1851C69.9694 34.4084 69.9279 34.6669 69.7618 34.8481L65.276 39.771L67.0319 45.7446C67.1011 45.9796 67.0215 46.2347 66.8295 46.3925C66.7101 46.4915 66.5613 46.5419 66.4108 46.5419Z" fill="#FFC533"/>
<path d="M59.8389 28.4948L62.7556 34.2284L69.2776 34.4315L64.5582 39.6112L66.411 45.9137L59.8389 42.9378L53.2668 45.9137L55.1195 39.6112L50.4002 34.4315L56.9222 34.2284L59.8389 28.4948ZM59.8389 27.2427C59.3476 27.2427 58.8978 27.5129 58.6798 27.9409L56.1056 33.0014L50.357 33.181C49.857 33.1961 49.4107 33.4915 49.2117 33.9363C49.0128 34.3828 49.0975 34.8997 49.4297 35.2623L53.6802 39.9284L52.0212 45.5713C51.8828 46.043 52.0402 46.5499 52.426 46.8688C52.6647 47.0668 52.9623 47.1675 53.265 47.1675C53.4501 47.1675 53.637 47.1289 53.8117 47.05L59.8372 44.3209L65.8626 47.05C66.0373 47.1289 66.2242 47.1675 66.4093 47.1675C66.7103 47.1675 67.0096 47.0651 67.2466 46.8688C67.6324 46.5499 67.7898 46.043 67.6514 45.5713L65.9924 39.9284L70.2429 35.2623C70.575 34.8981 70.6598 34.3811 70.4609 33.9363C70.2619 33.4899 69.8173 33.1961 69.3156 33.181L63.567 33.0014L60.9928 27.9409C60.7783 27.5129 60.3302 27.2427 59.8389 27.2427Z" fill="#381737"/>
<path d="M50.0783 48.9942C50.817 48.6871 51.6387 49.2326 51.6387 50.013V50.1389C51.6387 54.6691 47.7515 58.3751 43.001 58.3751C38.2505 58.3751 34.3633 54.6691 34.3633 50.1389V50.0282C34.3633 49.251 35.1764 48.7156 35.9133 49.0211C37.1399 49.528 39.2902 50.0265 43.001 50.0265C46.6789 50.0248 48.8379 49.5095 50.0783 48.9942Z" fill="#381737"/>
<path d="M48.7583 54.402C48.6597 54.2627 48.5006 54.1687 48.3345 54.073C48.0058 53.88 47.6546 53.7222 47.2861 53.6131C46.5976 53.4117 45.8658 53.405 45.1756 53.6014C44.5978 53.7659 44.0597 54.0613 43.5978 54.4372C43.3591 54.6319 43.02 54.6487 42.7605 54.4809C42.2018 54.1183 41.6326 53.7306 40.9839 53.5812C40.2677 53.4168 39.5099 53.5896 38.8854 53.9471C38.5014 54.167 38.164 54.444 37.8596 54.7578C37.5845 55.0415 37.6087 55.4863 37.9028 55.7515C39.2453 56.9667 41.0513 57.7169 43.0373 57.7169C44.7344 57.7169 46.4038 57.1496 47.7307 56.1224C47.9677 55.9378 48.1943 55.7414 48.4071 55.5299C48.5109 55.4275 48.6113 55.3235 48.7082 55.2144C48.8396 55.0667 48.869 54.8636 48.8535 54.6756C48.8465 54.5665 48.8102 54.4775 48.7583 54.402Z" fill="#EB9EA5"/>
<path d="M63.7418 39.4923C63.5723 38.2066 62.3596 37.2986 61.0362 37.4631C59.711 37.6276 58.7751 38.8042 58.9446 40.0882C59.1142 41.3739 60.3269 42.2819 61.6503 42.1174C62.9755 41.9529 63.9131 40.778 63.7418 39.4923Z" fill="white"/>
<path d="M65.5404 36.3653C65.4452 35.6436 64.7654 35.1333 64.0197 35.2256C63.2759 35.3179 62.75 35.9776 62.8451 36.6993C62.9403 37.421 63.6201 37.9313 64.3657 37.839C65.1096 37.7483 65.6355 37.0887 65.5404 36.3653Z" fill="white"/>
<path d="M30.3097 39.6584C30.3045 38.3626 29.218 37.3153 27.8825 37.3203C26.547 37.3254 25.4675 38.3794 25.4727 39.6752C25.4779 40.9709 26.5643 42.0183 27.8998 42.0133C29.2353 42.0082 30.3148 40.9542 30.3097 39.6584Z" fill="white"/>
<path d="M32.4914 36.7715C32.488 36.0431 31.879 35.4556 31.1282 35.459C30.3774 35.4624 29.7719 36.0548 29.7754 36.7816C29.7789 37.5101 30.3878 38.0975 31.1386 38.0942C31.8877 38.0908 32.4949 37.4983 32.4914 36.7715Z" fill="white"/>
</svg>
