<svg width="86" height="87" viewBox="0 0 86 87" fill="none" xmlns="http://www.w3.org/2000/svg">
<path opacity="0.3" d="M69.7996 86.3814H16.2004C7.29008 86.3814 0 79.3265 0 70.7037V15.6777C0 7.05485 7.29008 0 16.2004 0H69.7996C78.7099 0 86 7.05485 86 15.6777V70.7059C86 79.3265 78.7099 86.3814 69.7996 86.3814Z" fill="white"/>
<path d="M62.9439 75.331H23.0561C16.4252 75.331 11 70.0811 11 63.6645V22.7153C11 16.2987 16.4252 11.0488 23.0561 11.0488H62.9439C69.5748 11.0488 75 16.2987 75 22.7153V63.6645C75 70.0811 69.5748 75.331 62.9439 75.331Z" fill="#FFC533"/>
<path opacity="0.05" d="M68.8517 12.5659V53.1886C68.8517 59.6053 63.4265 64.8551 56.7956 64.8551H16.9061C14.7627 64.8551 12.749 64.2993 11 63.3401V63.6665C11 70.0832 16.4252 75.333 23.0561 75.333H62.9439C69.5748 75.333 75 70.0832 75 63.6665V22.7174C75 18.3749 72.5123 14.5731 68.8517 12.5659Z" fill="black"/>
<path opacity="0.27" d="M15.1429 40.723C15.1239 37.3247 15.2259 33.928 15.3903 30.5347C15.5356 27.5264 15.1879 23.8686 16.4732 21.083C17.6271 18.5786 20.1806 16.8844 22.8828 16.0608C25.585 15.2372 28.4619 15.1668 31.2956 15.1049C34.3126 15.0379 46.7043 15.1769 48.782 15.5921C49.8754 15.8097 49.4446 17.698 48.8201 18.5937C48.1973 19.4893 47.1645 20.0367 46.1231 20.4217C41.5024 22.1326 35.9249 21.3692 31.9287 24.1917C27.3997 27.3908 25.6905 34.3415 24.9518 39.4172C24.6975 41.17 24.7944 43.7916 23.6664 45.2647C22.5696 46.6977 20.4746 46.4399 18.9194 46.0331C17.2777 45.6029 15.8972 44.5767 15.4232 42.9462C15.2156 42.2213 15.1515 41.4747 15.1429 40.723Z" fill="white"/>
<path d="M29.4246 35.1001C29.1409 35.1001 28.8624 35.1168 28.5873 35.147C27.513 36.5666 25.7035 38.2088 22.8162 38.9538C22.2643 39.9632 21.9512 41.1116 21.9512 42.332C21.9512 44.4966 22.9355 46.4385 24.4925 47.7644C27.9299 47.0428 30.6062 48.0272 32.2773 49.0182C34.9899 47.9334 36.8981 45.3487 36.8981 42.3337C36.8981 38.3377 33.5523 35.1001 29.4246 35.1001Z" fill="#381737"/>
<path d="M53.4334 48.8924C55.1824 47.908 57.9175 46.9957 61.4016 47.8494C63.0191 46.5236 64.0484 44.5432 64.0484 42.3301C64.0484 41.1097 63.7353 39.9596 63.1835 38.9518C60.2962 38.2069 58.4866 36.5646 57.4123 35.145C57.1372 35.1149 56.8587 35.0981 56.575 35.0981C52.4473 35.0981 49.1016 38.3358 49.1016 42.3301C49.1016 45.2396 50.8765 47.744 53.4334 48.8924Z" fill="#381737"/>
<path d="M33.0364 40.5841C33.0364 43.0316 30.9863 45.0153 28.4571 45.0153C25.9279 45.0153 23.8779 43.0316 23.8779 40.5841C23.8779 38.1366 25.9279 36.1528 28.4571 36.1528C30.9863 36.1528 33.0364 38.1366 33.0364 40.5841Z" fill="white"/>
<path d="M34.0452 45.3504C34.0452 46.0652 33.4466 46.6461 32.7062 46.6461C31.9675 46.6461 31.3672 46.0669 31.3672 45.3504C31.3672 44.6356 31.9658 44.0547 32.7062 44.0547C33.4449 44.0547 34.0452 44.6339 34.0452 45.3504Z" fill="white"/>
<path d="M60.1867 40.5841C60.1867 43.0316 58.1367 45.0153 55.6075 45.0153C53.0783 45.0153 51.0283 43.0316 51.0283 40.5841C51.0283 38.1366 53.0783 36.1528 55.6075 36.1528C58.1367 36.1528 60.1867 38.1366 60.1867 40.5841Z" fill="white"/>
<path d="M61.1956 45.3504C61.1956 46.0652 60.597 46.6461 59.8566 46.6461C59.1179 46.6461 58.5176 46.0669 58.5176 45.3504C58.5176 44.6356 59.1161 44.0547 59.8566 44.0547C60.5953 44.0547 61.1956 44.6339 61.1956 45.3504Z" fill="white"/>
<path d="M56.6973 32.4854C56.6973 32.4854 58.7127 38.9723 67.0563 38.6844" stroke="#381737" stroke-width="1.5" stroke-miterlimit="10" stroke-linecap="round" stroke-linejoin="round"/>
<path d="M29.3014 32.4854C29.3014 32.4854 27.286 38.9723 18.9424 38.6844" stroke="#381737" stroke-width="1.5" stroke-miterlimit="10" stroke-linecap="round" stroke-linejoin="round"/>
<path d="M51.7764 50.96C51.7764 50.96 56.3781 45.8558 63.855 49.45" stroke="#381737" stroke-width="1.5" stroke-miterlimit="10" stroke-linecap="round" stroke-linejoin="round"/>
<path d="M33.7192 50.96C33.7192 50.96 29.1175 45.8558 21.6406 49.45" stroke="#381737" stroke-width="1.5" stroke-miterlimit="10" stroke-linecap="round" stroke-linejoin="round"/>
<path d="M38.3818 52.865C38.3818 54.5926 39.5963 55.1099 40.7086 55.1099C42.8261 55.1099 42.9316 52.8332 45.12 52.8399C46.5265 52.8432 47.6181 53.8359 47.6181 55.1099" stroke="#381737" stroke-width="1.5" stroke-miterlimit="10" stroke-linecap="round" stroke-linejoin="round"/>
</svg>
