<svg width="86" height="87" viewBox="0 0 86 87" fill="none" xmlns="http://www.w3.org/2000/svg">
<path opacity="0.3" d="M69.7996 86.6056H16.2004C7.29008 86.6056 0 79.5325 0 70.8872V15.7184C0 7.07316 7.29008 0 16.2004 0H69.7996C78.7099 0 86 7.07316 86 15.7184V70.8895C86 79.5325 78.7099 86.6056 69.7996 86.6056Z" fill="white"/>
<path d="M62.9425 75.5267H23.0558C16.425 75.5267 11 70.2631 11 63.8296V22.7747C11 16.3413 16.425 11.0776 23.0558 11.0776H62.9425C69.5733 11.0776 74.9983 16.3413 74.9983 22.7747V63.8313C74.9983 70.2631 69.5733 75.5267 62.9425 75.5267Z" fill="#FFC533"/>
<path opacity="0.05" d="M68.8504 12.5962V53.3254C68.8504 59.7589 63.4254 65.0225 56.7946 65.0225H16.9079C14.7645 65.0225 12.7509 64.4653 11.002 63.5035V63.8308C11.002 70.2643 16.427 75.5279 23.0577 75.5279H62.9445C69.5752 75.5279 75.0003 70.2643 75.0003 63.8308V22.7743C74.9985 18.4204 72.5109 14.6103 68.8504 12.5962Z" fill="black"/>
<path opacity="0.27" d="M16.9336 41.1171C16.9163 37.7099 17.0166 34.3043 17.1809 30.9021C17.3263 27.8859 16.9785 24.2185 18.2639 21.4256C19.4177 18.9146 21.9711 17.216 24.6732 16.3902C27.3754 15.5644 30.2522 15.4939 33.0858 15.4301C36.1028 15.363 48.4942 15.5023 50.5718 15.9186C51.6651 16.1368 51.2344 18.0301 50.6099 18.928C49.9871 19.826 48.9543 20.3749 47.9129 20.7609C43.2923 22.4763 37.7151 21.7109 33.7189 24.5408C29.19 27.7483 27.4809 34.7172 26.7422 39.8062C26.4879 41.5636 26.5848 44.192 25.4569 45.6691C24.3601 47.1058 22.2652 46.8473 20.71 46.4395C19.0683 46.0081 17.6878 44.9792 17.2138 43.3444C17.0045 42.6193 16.9405 41.8707 16.9336 41.1171Z" fill="white"/>
<path d="M36.6789 39.5605C36.6789 43.5652 33.3333 46.8114 29.2057 46.8114C25.0781 46.8114 21.7324 43.5652 21.7324 39.5605C21.7324 35.5557 25.0781 32.3096 29.2057 32.3096C33.3333 32.3096 36.6789 35.5557 36.6789 39.5605Z" fill="#381737"/>
<path d="M28.2392 42.2514C30.7682 42.2514 32.8183 40.2623 32.8183 37.8086C32.8183 35.3549 30.7682 33.3657 28.2392 33.3657C25.7103 33.3657 23.6602 35.3549 23.6602 37.8086C23.6602 40.2623 25.7103 42.2514 28.2392 42.2514Z" fill="white"/>
<path d="M32.4854 43.8863C33.2249 43.8863 33.8244 43.3047 33.8244 42.5872C33.8244 41.8697 33.2249 41.2881 32.4854 41.2881C31.746 41.2881 31.1465 41.8697 31.1465 42.5872C31.1465 43.3047 31.746 43.8863 32.4854 43.8863Z" fill="white"/>
<path d="M63.8283 39.5605C63.8283 43.5652 60.4827 46.8114 56.3551 46.8114C52.2275 46.8114 48.8818 43.5652 48.8818 39.5605C48.8818 35.5557 52.2275 32.3096 56.3551 32.3096C60.4827 32.3096 63.8283 35.5557 63.8283 39.5605Z" fill="#381737"/>
<path d="M59.9678 37.8086C59.9678 40.2625 57.9178 42.2514 55.3887 42.2514C52.8595 42.2514 50.8096 40.2625 50.8096 37.8086C50.8096 35.3547 52.8595 33.3657 55.3887 33.3657C57.9178 33.3657 59.9678 35.3547 59.9678 37.8086Z" fill="white"/>
<path d="M59.6349 43.8863C60.3743 43.8863 60.9738 43.3047 60.9738 42.5872C60.9738 41.8697 60.3743 41.2881 59.6349 41.2881C58.8954 41.2881 58.2959 41.8697 58.2959 42.5872C58.2959 43.3047 58.8954 43.8863 59.6349 43.8863Z" fill="white"/>
<path d="M58.0205 27.3584L68.6785 36.0695" stroke="#381737" stroke-width="1.5" stroke-miterlimit="10" stroke-linecap="round" stroke-linejoin="round"/>
<path d="M27.5399 27.3584L16.8818 36.0695" stroke="#381737" stroke-width="1.5" stroke-miterlimit="10" stroke-linecap="round" stroke-linejoin="round"/>
<path fill-rule="evenodd" clip-rule="evenodd" d="M46.2905 55.5844V54.7511C46.2905 52.9561 44.7802 51.501 42.9172 51.501C41.0541 51.501 39.5438 52.9561 39.5438 54.7511V55.5844C39.5438 57.3794 41.0541 58.8345 42.9172 58.8345C44.7802 58.8345 46.2905 57.3794 46.2905 55.5844ZM42.9172 50.501C40.4809 50.501 38.5059 52.4038 38.5059 54.7511V55.5844C38.5059 57.9317 40.4809 59.8346 42.9172 59.8346C45.3534 59.8346 47.3284 57.9317 47.3284 55.5844V54.7511C47.3284 52.4038 45.3534 50.501 42.9172 50.501Z" fill="#381737"/>
</svg>
