<svg width="86" height="87" viewBox="0 0 86 87" fill="none" xmlns="http://www.w3.org/2000/svg">
<path opacity="0.3" d="M69.7996 86.3814H16.2004C7.29008 86.3814 0 79.3265 0 70.7037V15.6777C0 7.05485 7.29008 0 16.2004 0H69.7996C78.7099 0 86 7.05485 86 15.6777V70.7059C86 79.3265 78.7099 86.3814 69.7996 86.3814Z" fill="white"/>
<path d="M62.9442 75.331H23.0558C16.425 75.331 11 70.081 11 63.6642V22.7156C11 16.2988 16.425 11.0488 23.0558 11.0488H62.9425C69.5733 11.0488 74.9983 16.2988 74.9983 22.7156V63.6658C75 70.081 69.575 75.331 62.9442 75.331Z" fill="#FFC533"/>
<path opacity="0.05" d="M68.8504 12.564V53.1877C68.8504 59.6045 63.4254 64.8545 56.7946 64.8545H16.9079C14.7645 64.8545 12.7509 64.2987 11.002 63.3395V63.6659C11.002 70.0827 16.427 75.3327 23.0577 75.3327H62.9445C69.5752 75.3327 75.0003 70.0827 75.0003 63.6659V22.7157C75.0003 18.3731 72.5109 14.5729 68.8504 12.564Z" fill="black"/>
<path opacity="0.27" d="M15.8945 41.01C15.8772 37.6116 15.9775 34.2148 16.1419 30.8214C16.2872 27.8131 15.9395 24.1552 17.2248 21.3695C18.3787 18.865 20.932 17.1708 23.6342 16.3472C26.3363 15.5235 29.2131 15.4532 32.0467 15.3896C35.0637 15.3226 47.4551 15.4616 49.5328 15.8767C50.6261 16.0944 50.1953 17.9828 49.5708 18.8784C48.9463 19.774 47.9153 20.3215 46.8739 20.7065C42.2567 22.4175 36.6777 21.6541 32.6816 24.4766C28.1527 27.6758 26.4436 34.6267 25.7049 39.7025C25.4506 41.4553 25.5475 44.077 24.4195 45.5502C23.3228 46.9832 21.2278 46.7254 19.6727 46.3186C18.031 45.8884 16.6505 44.8621 16.1765 43.2316C15.9672 42.5083 15.9032 41.7617 15.8945 41.01Z" fill="white"/>
<path d="M43.3695 54.1651C44.1341 54.2371 44.8935 54.3877 45.6564 54.5953C47.421 55.0758 49.2529 55.645 51.1091 55.5177C51.5831 55.4843 52.0658 55.4307 52.5035 55.2516C53.3598 54.9017 53.9583 54.0964 54.2057 53.2293C54.4531 52.3621 54.3873 51.438 54.2005 50.5557C53.5258 47.3565 51.2147 44.5407 48.189 43.111C44.0909 41.174 39.107 41.9776 35.5779 44.6662C33.2253 46.4575 31.1303 49.2499 31.741 52.2817C31.8794 52.9647 32.1458 53.6461 32.6475 54.145C33.7442 55.2348 35.5883 55.4441 37.0622 55.1779C38.242 54.9653 39.3665 54.5284 40.5428 54.2973C41.4977 54.1082 42.4371 54.078 43.3695 54.1651Z" fill="#381737"/>
<path d="M45.5212 49.0439C44.3967 48.7726 42.9921 49.3151 43.274 50.6761C42.1496 49.8608 41.3071 48.7726 40.1827 49.5879C38.5392 51.1783 37.2902 52.9579 36.1035 54.7693C36.4322 54.7592 36.7557 54.7257 37.0619 54.6705C38.2417 54.4579 39.3661 54.021 40.5425 53.7899C41.4974 53.6024 42.4367 53.5723 43.3692 53.6593C44.1338 53.7313 44.8932 53.882 45.6561 54.0896C47.4206 54.5701 49.2526 55.1393 51.1088 55.012C51.2178 55.0053 51.3268 54.9953 51.4358 54.9836C49.4983 52.9931 48.1247 50.3045 45.5212 49.0439Z" fill="#EB9EA5"/>
<path d="M39.0583 46.5779C42.8693 47.3312 42.551 45.9585 42.4991 42.3608C41.1775 42.4496 39.8697 42.7509 38.6362 43.2381C38.5463 44.7063 38.3266 46.0455 39.0583 46.5779Z" fill="white"/>
<path d="M45.4073 46.0073C46.0075 46.024 45.7342 43.8561 45.5318 42.5436C44.634 42.3728 43.7189 42.3109 42.8072 42.3494C42.7536 43.9967 42.5564 45.3544 42.9975 45.8466C43.3504 46.235 43.9472 46.2718 45.4073 46.0073Z" fill="white"/>
<path d="M27.3402 47.2724C30.7658 47.1454 33.4363 44.355 33.305 41.0399C33.1737 37.7248 30.2903 35.1404 26.8647 35.2675C23.4391 35.3946 20.7685 38.185 20.8998 41.5C21.0311 44.8151 23.9146 47.3995 27.3402 47.2724Z" fill="#381737"/>
<path d="M30.094 39.8179C30.094 41.8502 28.3917 43.4975 26.2916 43.4975C24.1915 43.4975 22.4893 41.8502 22.4893 39.8179C22.4893 37.7855 24.1915 36.1382 26.2916 36.1382C28.3917 36.1382 30.094 37.7855 30.094 39.8179Z" fill="white"/>
<path d="M30.9307 43.7771C30.9307 44.3714 30.4325 44.8536 29.8184 44.8536C29.2043 44.8536 28.7061 44.3714 28.7061 43.7771C28.7061 43.1828 29.2043 42.7007 29.8184 42.7007C30.4325 42.7007 30.9307 43.1828 30.9307 43.7771Z" fill="white"/>
<path d="M61.2144 46.8391C64.3928 45.5971 65.929 42.0967 64.6456 39.0208C63.3621 35.9449 59.745 34.4583 56.5666 35.7003C53.3882 36.9424 51.852 40.4427 53.1354 43.5186C54.4188 46.5945 58.0359 48.0811 61.2144 46.8391Z" fill="#381737"/>
<path d="M61.9045 39.8183C61.9045 41.8507 60.2023 43.498 58.1022 43.498C56.002 43.498 54.2998 41.8507 54.2998 39.8183C54.2998 37.786 56.002 36.1387 58.1022 36.1387C60.2023 36.1387 61.9045 37.786 61.9045 39.8183Z" fill="white"/>
<path d="M62.7413 43.7776C62.7413 44.3719 62.2431 44.8541 61.6289 44.8541C61.0148 44.8541 60.5166 44.3719 60.5166 43.7776C60.5166 43.1833 61.0148 42.7012 61.6289 42.7012C62.2431 42.7012 62.7413 43.1833 62.7413 43.7776Z" fill="white"/>
<path fill-rule="evenodd" clip-rule="evenodd" d="M60.437 31.2272L60.4368 31.2268C60.4368 31.2268 60.2493 31.0196 60.1291 30.8869M60.1291 30.8869C60.3021 30.9706 60.4367 31.2264 60.4367 31.2264L60.4391 31.2323C60.4416 31.2387 60.4461 31.2496 60.4526 31.265C60.4656 31.2956 60.4867 31.3434 60.5164 31.4058C60.5759 31.5308 60.6695 31.7131 60.8016 31.9314C61.0667 32.3693 61.482 32.944 62.0809 33.4909C63.261 34.5685 65.1836 35.5699 68.1994 35.1451C68.5524 35.0953 68.8801 35.3319 68.9315 35.6735C68.9829 36.0151 68.7384 36.3323 68.3855 36.382C64.9365 36.8679 62.6286 35.7097 61.1944 34.4C60.4861 33.7533 59.9983 33.0774 59.6871 32.5632C59.531 32.3054 59.4182 32.0863 59.3432 31.9288C59.3057 31.8499 59.2775 31.7863 59.2582 31.7408C59.2485 31.718 59.241 31.6997 59.2356 31.6863C59.2329 31.6796 59.2307 31.6741 59.229 31.6699L59.2269 31.6644L59.2261 31.6624L59.2258 31.6616C59.2257 31.6613 58.9178 31.1035 59.5236 30.8869" fill="#381737"/>
<path fill-rule="evenodd" clip-rule="evenodd" d="M26.3913 30.5233C26.7259 30.6429 26.8969 31.0023 26.7733 31.3261L26.1675 31.1095C26.7733 31.3261 26.7732 31.3265 26.7731 31.3268L26.7727 31.3276L26.772 31.3296L26.7699 31.335C26.7682 31.3393 26.766 31.3448 26.7633 31.3515C26.7579 31.3649 26.7504 31.3832 26.7407 31.406C26.7213 31.4515 26.6932 31.5151 26.6557 31.5939C26.5807 31.7515 26.4678 31.9706 26.3118 32.2284C26.0006 32.7426 25.5128 33.4184 24.8045 34.0652C23.3703 35.3749 21.0624 36.5331 17.6134 36.0472C17.2605 35.9975 17.016 35.6803 17.0674 35.3387C17.1187 34.9971 17.4465 34.7605 17.7995 34.8102C20.8153 35.2351 22.7379 34.2337 23.918 33.1561C24.5169 32.6092 24.9322 32.0345 25.1973 31.5966C25.3294 31.3783 25.423 31.196 25.4825 31.071C25.5122 31.0086 25.5333 30.9608 25.5463 30.9301C25.5528 30.9148 25.5573 30.9039 25.5598 30.8975L25.5621 30.8919L25.5619 30.8924C25.6857 30.569 26.0569 30.4037 26.3913 30.5233Z" fill="#381737"/>
</svg>
