<svg width="86" height="87" viewBox="0 0 86 87" fill="none" xmlns="http://www.w3.org/2000/svg">
<path opacity="0.3" d="M69.7996 86.6056H16.2004C7.29008 86.6056 0 79.5325 0 70.8872V15.7184C0 7.07316 7.29008 0 16.2004 0H69.7996C78.7099 0 86 7.07316 86 15.7184V70.8895C86 79.5325 78.7099 86.6056 69.7996 86.6056Z" fill="white"/>
<path d="M62.9439 75.5267H23.0561C16.4252 75.5267 11 70.2631 11 63.8296V22.7747C11 16.3413 16.4252 11.0776 23.0561 11.0776H62.9439C69.5748 11.0776 75 16.3413 75 22.7747V63.8313C75 70.2631 69.5748 75.5267 62.9439 75.5267Z" fill="#FFC533"/>
<path opacity="0.05" d="M68.85 12.5967V53.3259C68.85 59.7594 63.4248 65.023 56.7938 65.023H16.9061C14.7627 65.023 12.749 64.4658 11 63.504V63.8313C11 70.2648 16.4252 75.5284 23.0561 75.5284H62.9439C69.5748 75.5284 75 70.2648 75 63.8313V22.7748C75 18.4209 72.5106 14.6108 68.85 12.5967Z" fill="black"/>
<path opacity="0.27" d="M15.998 41.1166C15.9807 37.7094 16.0811 34.3038 16.2454 30.9016C16.3907 27.8854 16.043 24.218 17.3284 21.4251C18.4822 18.9141 21.0357 17.2155 23.7379 16.3897C26.4401 15.5639 29.317 15.4934 32.1507 15.4297C35.1677 15.3625 47.5595 15.5018 49.6371 15.9181C50.7305 16.1363 50.2997 18.0296 49.6752 18.9275C49.0524 19.8255 48.0196 20.3744 46.9782 20.7604C42.3575 22.4758 36.7801 21.7104 32.7839 24.5403C28.2548 27.7478 26.5456 34.7167 25.8069 39.8058C25.5526 41.5631 25.6495 44.1915 24.5216 45.6686C23.4248 47.1053 21.3298 46.8469 19.7745 46.439C18.1328 46.0076 16.7523 44.9787 16.2783 43.3439C16.0707 42.6188 16.0067 41.8702 15.998 41.1166Z" fill="white"/>
<path d="M49.6703 46.4817C50.3675 46.1914 51.1408 46.7066 51.1408 47.4418V47.5593C51.1408 51.8293 47.4767 55.3221 42.9996 55.3221C38.5224 55.3221 34.8584 51.8293 34.8584 47.5593V47.4552C34.8584 46.7234 35.6248 46.2182 36.3185 46.5052C37.4741 46.9819 39.5016 47.4519 42.9979 47.4519C46.4664 47.4535 48.5026 46.9668 49.6703 46.4817Z" fill="#381737"/>
<path d="M48.4269 51.5788C48.3335 51.4479 48.183 51.359 48.0273 51.2683C47.7176 51.087 47.3855 50.9377 47.0395 50.8353C46.3907 50.6456 45.7005 50.6389 45.05 50.8235C44.5051 50.9796 43.9982 51.2566 43.564 51.6107C43.3391 51.7937 43.019 51.8088 42.7751 51.651C42.2475 51.3086 41.7129 50.9444 41.1005 50.8034C40.4258 50.649 39.7113 50.8118 39.1214 51.1492C38.7599 51.3556 38.4415 51.6174 38.1544 51.9128C37.8949 52.1797 37.9174 52.5993 38.1959 52.8494C39.4605 53.9941 41.1645 54.7024 43.0346 54.7024C44.6348 54.7024 46.2091 54.1687 47.4581 53.1985C47.6813 53.0257 47.8941 52.8393 48.0947 52.6413C48.1916 52.5456 48.2868 52.4466 48.3785 52.3442C48.503 52.2049 48.5289 52.0135 48.5168 51.8356C48.5099 51.7332 48.477 51.6493 48.4269 51.5788Z" fill="#EB9EA5"/>
<path d="M60.4924 46.0785C64.5379 44.8901 66.8244 40.7447 65.5994 36.8197C64.3745 32.8947 60.102 30.6762 56.0565 31.8647C52.011 33.0532 49.7245 37.1985 50.9494 41.1235C52.1743 45.0485 56.4469 47.267 60.4924 46.0785Z" fill="#381737"/>
<path d="M61.7491 38.4087C60.9446 38.4641 60.2371 38.9475 59.6973 39.5786C59.6593 39.6239 59.6229 39.6692 59.5849 39.7145C59.552 39.6658 59.5174 39.6188 59.4828 39.5718C58.988 38.9072 58.3151 38.3802 57.5158 38.2727C56.3308 38.115 55.535 39.1925 55.6752 40.4245C55.8014 41.5289 56.4242 42.5007 57.0989 43.2963C57.7044 44.013 58.7285 44.8237 59.3998 45.198C60.0935 44.8674 61.1713 44.1238 61.8252 43.4474C62.5518 42.6954 63.2386 41.7656 63.4392 40.6729C63.6641 39.451 62.9427 38.3264 61.7491 38.4087Z" fill="white"/>
<path d="M56.6809 34.001C56.2346 34.0312 55.8401 34.2998 55.5408 34.6506C55.5201 34.6758 55.4993 34.7009 55.4786 34.7261C55.4595 34.6993 55.4405 34.6724 55.4215 34.6472C55.1464 34.278 54.7727 33.9842 54.3281 33.9255C53.6707 33.8382 53.2279 34.4357 53.3057 35.1206C53.3767 35.7332 53.7226 36.2736 54.0963 36.7151C54.4319 37.1129 55.0011 37.5627 55.3748 37.7708C55.7605 37.5862 56.3591 37.1733 56.7207 36.799C57.1238 36.3811 57.5061 35.8641 57.6168 35.2582C57.7448 34.5801 57.3435 33.9557 56.6809 34.001Z" fill="white"/>
<path d="M33.1364 44.2247C36.1252 41.3249 36.1252 36.6234 33.1364 33.7236C30.1476 30.8238 25.3018 30.8238 22.3131 33.7236C19.3243 36.6234 19.3243 41.3249 22.3131 44.2247C25.3018 47.1245 30.1476 47.1245 33.1364 44.2247Z" fill="#381737"/>
<path d="M31.2071 38.4082C30.4026 38.4636 29.6951 38.947 29.1553 39.5781C29.1173 39.6234 29.0809 39.6687 29.0429 39.714C29.01 39.6654 28.9754 39.6184 28.9408 39.5714C28.446 38.9067 27.7731 38.3797 26.9738 38.2722C25.7888 38.1145 24.993 39.192 25.1332 40.424C25.2594 41.5284 25.8822 42.5003 26.5569 43.2958C27.1624 44.0125 28.1865 44.8232 28.8578 45.1975C29.5515 44.8669 30.6292 44.1233 31.2832 43.4469C32.0097 42.695 32.6965 41.7651 32.8972 40.6724C33.1221 39.4505 32.399 38.326 31.2071 38.4082Z" fill="white"/>
<path d="M26.1372 34.0005C25.6908 34.0307 25.2981 34.2993 24.9989 34.6501C24.9781 34.6753 24.9573 34.7004 24.9366 34.7256C24.9176 34.6988 24.8985 34.6719 24.8795 34.6467C24.6044 34.2775 24.2308 33.9838 23.7862 33.925C23.1288 33.8377 22.6859 34.4353 22.7637 35.1201C22.8347 35.7327 23.1807 36.2732 23.5543 36.7146C23.8917 37.1124 24.4591 37.5622 24.8328 37.7703C25.2186 37.5857 25.8171 37.1728 26.1787 36.7985C26.5818 36.3806 26.9641 35.8636 27.0748 35.2577C27.2011 34.5796 26.7997 33.9552 26.1372 34.0005Z" fill="white"/>
</svg>
